{
.appVersion = "1141";
copyright = "Copyright © 2018 by Cadson Demak Co.,Ltd.. All rights reserved.";
customParameters = (
{
name = vendorID;
value = CDK;
},
{
name = description;
value = "Copyright (c) 2018, Cadson Demak (info@cadsondemak.com)";
},
{
name = license;

glyphs = (
{
glyphname = A;
lastChange = "2018-06-07 20:36:09 +0000";
layers = (
{
anchors = (
{
name = bottom;
position = "{341, 0}";
},
{
name = ogonek;
position = "{677, 0}";
},
{
name = top;
position = "{341, 700}";
}
);
background = {
paths = (
{
closed = 1;
nodes = (
"148 0 LINE",
"228 212 LINE",
"231 235 LINE",
"341 531 LINE",
"342 531 LINE",
"451 235 LINE",
"456 206 LINE",
"533 0 LINE",
"677 0 LINE",
"428 640 LINE SMOOTH",
"412 681 OFFCURVE",
"383 700 OFFCURVE",
"340 700 CURVE SMOOTH",
"278 700 LINE",
"4 0 LINE"
);
},
{
closed = 1;
nodes = (
"564 163 LINE",
"564 279 LINE",
"132 279 LINE",
"132 163 LINE"
);
}
);
};
layerId = "EA06CE92-4115-4482-8874-2441C279E756";
paths = (
{
closed = 1;
nodes = (
"148 0 LINE",
"228 212 LINE",
"231 235 LINE",
"341 531 LINE",
"342 531 LINE",
"451 235 LINE",
"456 206 LINE",
"533 0 LINE",
"677 0 LINE",
"428 640 LINE SMOOTH",
"412 681 OFFCURVE",
"383 700 OFFCURVE",
"340 700 CURVE SMOOTH",
"278 700 LINE",
"4 0 LINE"
);
},
{
closed = 1;
nodes = (
"564 163 LINE",
"564 279 LINE",
"132 279 LINE",
"132 163 LINE"
);
}
);
width = 681;
},
{
anchors = (
{
name = bottom;
position = "{315, 0}";
},
{
name = ogonek;
position = "{595, 0}";
},
{
name = top;
position = "{315, 700}";
}
);
background = {
paths = (
{
closed = 1;
nodes = (
"71 0 LINE",
"315 650 LINE",
"316 650 LINE",
"558 0 LINE",
"595 0 LINE",
"339 678 LINE SMOOTH",
"333 693 OFFCURVE",
"325 700 OFFCURVE",
"315 700 CURVE SMOOTH",
"300 700 LINE",
"34 0 LINE"
);
},
{
closed = 1;
nodes = (
"502 213 LINE",
"502 246 LINE",
"141 246 LINE",
"141 213 LINE"
);
}
);
};
layerId = "76C6DC51-463D-4A0C-B694-3EB424048C5D";
paths = (
{
closed = 1;
nodes = (
"72 0 LINE",
"157 226 LINE",
"159 232 LINE",
"315 648 LINE",
"316 648 LINE",
"470 233 LINE",
"472 227 LINE",
"557 0 LINE",
"595 0 LINE",
"340 678 LINE SMOOTH",
"334 693 OFFCURVE",
"326 700 OFFCURVE",
"316 700 CURVE SMOOTH",
"299 700 LINE",
"34 0 LINE"
);
},
{
closed = 1;
nodes = (
"500 213 LINE",
"500 246 LINE",
"139 246 LINE",
"139 213 LINE"
);
}
);
width = 629;
},
{
anchors = (
{
name = bottom;
position = "{324, 0}";
},
{
name = ogonek;
position = "{625, 0}";
},
{
name = top;
position = "{324, 700}";
}
);
layerId = "BB270C98-E610-4AC3-8B1B-9C54875E1C66";
paths = (
{
closed = 1;
nodes = (
"98 0 LINE",
"180 221 LINE",
"185 234 LINE",
"323 604 LINE",
"324 604 LINE",
"463 232 LINE",
"470 213 LINE",
"549 0 LINE",
"625 0 LINE",
"373 660 LINE SMOOTH",
"363 687 OFFCURVE",
"347 700 OFFCURVE",
"325 700 CURVE SMOOTH",
"291 700 LINE",
"22 0 LINE"
);
},
{
closed = 1;
nodes = (
"528 194 LINE",
"528 256 LINE",
"145 256 LINE",
"145 194 LINE"
);
}
);
width = 647;
},
{
anchors = (
{
name = bottom;
position = "{302, 0}";
},
{
name = ogonek;
position = "{633, 0}";
},
{
name = top;
position = "{420, 700}";
}
);
background = {
paths = (
{
closed = 1;
nodes = (
"104 0 LINE",
"221 212 LINE",
"228 235 LINE",
"391 531 LINE",
"392 531 LINE",
"448 235 LINE",
"448 206 LINE",
"489 0 LINE",
"633 0 LINE",
"497 640 LINE SMOOTH",
"488 681 OFFCURVE",
"462 700 OFFCURVE",
"419 700 CURVE SMOOTH",
"357 700 LINE",
"-40 0 LINE"
);
},
{
closed = 1;
nodes = (
"549 163 LINE",
"569 279 LINE",
"137 279 LINE",
"117 163 LINE"
);
}
);
};
layerId = "6404A7B3-B80B-4413-A1A7-686F7DCA7307";
paths = (
{
closed = 1;
nodes = (
"109 0 LINE",
"226 212 LINE",
"233 235 LINE",
"396 531 LINE",
"397 531 LINE",
"453 235 LINE",
"453 206 LINE",
"494 0 LINE",
"633 0 LINE",
"497 640 LINE SMOOTH",
"488 681 OFFCURVE",
"462 700 OFFCURVE",
"419 700 CURVE SMOOTH",
"357 700 LINE",
"-40 0 LINE"
);
},
{
closed = 1;
nodes = (
"549 163 LINE",
"569 279 LINE",
"137 279 LINE",
"117 163 LINE"
);
}
);
width = 681;
},
{
anchors = (
{
name = bottom;
position = "{284, 0}";
},
{
name = ogonek;
position = "{581, 0}";
},
{
name = top;
position = "{403, 700}";
}
);
background = {
paths = (
{
closed = 1;
nodes = (
"54 0 LINE",
"175 221 LINE",
"182 234 LINE",
"386 604 LINE",
"387 604 LINE",
"460 232 LINE",
"464 213 LINE",
"505 0 LINE",
"581 0 LINE",
"445 660 LINE SMOOTH",
"439 689 OFFCURVE",
"424 700 OFFCURVE",
"404 700 CURVE SMOOTH",
"370 700 LINE",
"-22 0 LINE"
);
},
{
closed = 1;
nodes = (
"518 194 LINE",
"529 256 LINE",
"146 256 LINE",
"135 194 LINE"
);
}
);
};
layerId = "A26C2DC2-6E9D-4E0E-A939-3EF723D8B45B";
paths = (
{
closed = 1;
nodes = (
"58 0 LINE",
"179 221 LINE",
"186 234 LINE",
"390 604 LINE",
"391 604 LINE",
"464 232 LINE",
"468 213 LINE",
"509 0 LINE",
"581 0 LINE",
"445 660 LINE SMOOTH",
"439 689 OFFCURVE",
"424 700 OFFCURVE",
"404 700 CURVE SMOOTH",
"370 700 LINE",
"-22 0 LINE"
);
},
{
closed = 1;
nodes = (
"518 194 LINE",
"529 256 LINE",
"146 256 LINE",
"135 194 LINE"
);
}
);
width = 647;
},
{
anchors = (
{
name = bottom;
position = "{273, 0}";
},
{
name = ogonek;
position = "{551, 0}";
},
{
name = top;
position = "{394, 700}";
}
);
background = {
anchors = (
{
name = bottom;
position = "{271, 0}";
},
{
name = ogonek;
position = "{551, 0}";
},
{
name = top;
position = "{394, 700}";
}
);
paths = (
{
closed = 1;
nodes = (
"30 0 LINE",
"155 226 LINE",
"158 232 LINE",
"387 648 LINE",
"388 648 LINE",
"469 233 LINE",
"470 227 LINE",
"515 0 LINE",
"551 0 LINE",
"415 678 LINE SMOOTH",
"412 693 OFFCURVE",
"405 700 OFFCURVE",
"395 700 CURVE SMOOTH",
"378 700 LINE",
"-10 0 LINE"
);
},
{
closed = 1;
nodes = (
"494 213 LINE",
"499 246 LINE",
"138 246 LINE",
"133 213 LINE"
);
}
);
};
layerId = "4CEAA5B1-2F28-4CD4-84D3-78B02271F1AF";
paths = (
{
closed = 1;
nodes = (
"30 0 LINE",
"155 226 LINE",
"158 232 LINE",
"387 648 LINE",
"388 648 LINE",
"469 233 LINE",
"470 227 LINE",
"515 0 LINE",
"551 0 LINE",
"415 678 LINE SMOOTH",
"412 693 OFFCURVE",
"405 700 OFFCURVE",
"395 700 CURVE SMOOTH",
"378 700 LINE",
"-10 0 LINE"
);
},
{
closed = 1;
nodes = (
"494 213 LINE",
"499 246 LINE",
"138 246 LINE",
"133 213 LINE"
);
}
);
width = 629;
}
);
leftKerningGroup = A;
note = A;
rightKerningGroup = A;
rightMetricsKey = "=|";
unicode = 0041;
},
{
glyphname = B;
lastChange = "2018-06-07 14:10:13 +0000";
layers = (
{
anchors = (
{
name = bottom;
position = "{354, 0}";
},
{
name = top;
position = "{354, 700}";
}
);
background = {
paths = (
{
closed = 1;
nodes = (
"439 0 LINE SMOOTH",
"574 0 OFFCURVE",
"664 69 OFFCURVE",
"664 179 CURVE SMOOTH",
"664 229 LINE SMOOTH",
"664 292 OFFCURVE",
"621 348 OFFCURVE",
"557 370 CURVE",
"557 371 LINE",
"595 396 OFFCURVE",
"620 440 OFFCURVE",
"620 484 CURVE SMOOTH",
"620 534 LINE SMOOTH",
"620 635 OFFCURVE",
"536 700 OFFCURVE",
"410 700 CURVE SMOOTH",
"62 700 LINE",
"62 94 LINE SMOOTH",
"62 38 OFFCURVE",
"101 0 OFFCURVE",
"159 0 CURVE SMOOTH"
);
},
{
closed = 1;
nodes = (
"200 296 LINE",
"449 296 LINE SMOOTH",
"495 296 OFFCURVE",
"526 270 OFFCURVE",
"526 231 CURVE SMOOTH",
"526 187 LINE SMOOTH",
"526 144 OFFCURVE",
"492 120 OFFCURVE",
"434 120 CURVE SMOOTH",
"200 120 LINE"
);
},
{
closed = 1;
nodes = (
"200 580 LINE",
"405 580 LINE SMOOTH",
"451 580 OFFCURVE",
"482 556 OFFCURVE",
"482 519 CURVE SMOOTH",
"482 485 LINE SMOOTH",
"482 440 OFFCURVE",
"453 410 OFFCURVE",
"410 410 CURVE SMOOTH",
"200 410 LINE"
);
}
);
};
layerId = "EA06CE92-4115-4482-8874-2441C279E756";
paths = (
{
closed = 1;
nodes = (
"444 0 LINE SMOOTH",
"579 0 OFFCURVE",
"664 69 OFFCURVE",
"664 179 CURVE SMOOTH",
"664 231 LINE SMOOTH",
"664 294 OFFCURVE",
"621 349 OFFCURVE",
"557 371 CURVE",
"557 372 LINE",
"597 397 OFFCURVE",
"620 440 OFFCURVE",
"620 484 CURVE SMOOTH",
"620 534 LINE SMOOTH",
"620 635 OFFCURVE",
"536 700 OFFCURVE",
"410 700 CURVE SMOOTH",
"62 700 LINE",
"62 94 LINE SMOOTH",
"62 38 OFFCURVE",
"101 0 OFFCURVE",
"159 0 CURVE SMOOTH"
);
},
{
closed = 1;
nodes = (
"200 296 LINE",
"449 296 LINE SMOOTH",
"495 296 OFFCURVE",
"526 270 OFFCURVE",
"526 231 CURVE SMOOTH",
"526 187 LINE SMOOTH",
"526 144 OFFCURVE",
"492 120 OFFCURVE",
"434 120 CURVE SMOOTH",
"200 120 LINE"
);
},
{
closed = 1;
nodes = (
"200 580 LINE",
"405 580 LINE SMOOTH",
"451 580 OFFCURVE",
"482 556 OFFCURVE",
"482 519 CURVE SMOOTH",
"482 485 LINE SMOOTH",
"482 440 OFFCURVE",
"453 410 OFFCURVE",
"410 410 CURVE SMOOTH",
"200 410 LINE"
);
}
);
width = 690;
},
{
anchors = (
{
name = bottom;
position = "{333, 0}";
},
{
name = top;
position = "{333, 700}";
}
);
background = {
paths = (
{
closed = 1;
nodes = (
"412 0 LINE SMOOTH",
"520 0 OFFCURVE",
"592 66 OFFCURVE",
"592 165 CURVE SMOOTH",
"592 224 LINE SMOOTH",
"592 293 OFFCURVE",
"547 348 OFFCURVE",
"479 361 CURVE",
"479 362 LINE",
"520 383 OFFCURVE",
"548 437 OFFCURVE",
"548 497 CURVE SMOOTH",
"548 557 LINE SMOOTH",
"548 643 OFFCURVE",
"480 700 OFFCURVE",
"377 700 CURVE SMOOTH",
"92 700 LINE",
"92 48 LINE SMOOTH",
"92 19 OFFCURVE",
"110 0 OFFCURVE",
"138 0 CURVE SMOOTH"
);
},
{
closed = 1;
nodes = (
"128 337 LINE",
"428 337 LINE SMOOTH",
"505 337 OFFCURVE",
"556 292 OFFCURVE",
"556 224 CURVE SMOOTH",
"556 165 LINE SMOOTH",
"556 86 OFFCURVE",
"496 33 OFFCURVE",
"407 33 CURVE SMOOTH",
"128 33 LINE"
);
},
{
closed = 1;
nodes = (
"128 667 LINE",
"377 667 LINE SMOOTH",
"458 667 OFFCURVE",
"512 623 OFFCURVE",
"512 557 CURVE SMOOTH",
"512 497 LINE SMOOTH",
"512 420 OFFCURVE",
"466 369 OFFCURVE",
"397 369 CURVE SMOOTH",
"128 369 LINE"
);
}
);
};
layerId = "76C6DC51-463D-4A0C-B694-3EB424048C5D";
paths = (
{
closed = 1;
nodes = (
"410 0 LINE SMOOTH",
"520 0 OFFCURVE",
"592 66 OFFCURVE",
"592 165 CURVE SMOOTH",
"592 224 LINE SMOOTH",
"592 293 OFFCURVE",
"547 346 OFFCURVE",
"479 361 CURVE",
"479 362 LINE",
"520 385 OFFCURVE",
"548 432 OFFCURVE",
"548 496 CURVE SMOOTH",
"548 556 LINE SMOOTH",
"548 642 OFFCURVE",
"480 700 OFFCURVE",
"377 700 CURVE SMOOTH",
"92 700 LINE",
"92 36 LINE SMOOTH",
"92 13 OFFCURVE",
"105 0 OFFCURVE",
"128 0 CURVE SMOOTH"
);
},
{
closed = 1;
nodes = (
"128 337 LINE",
"428 337 LINE SMOOTH",
"505 337 OFFCURVE",
"556 292 OFFCURVE",
"556 224 CURVE SMOOTH",
"556 165 LINE SMOOTH",
"556 86 OFFCURVE",
"496 33 OFFCURVE",
"410 33 CURVE SMOOTH",
"128 33 LINE"
);
},
{
closed = 1;
nodes = (
"128 667 LINE",
"377 667 LINE SMOOTH",
"458 667 OFFCURVE",
"512 622 OFFCURVE",
"512 556 CURVE SMOOTH",
"512 496 LINE SMOOTH",
"512 419 OFFCURVE",
"466 369 OFFCURVE",
"397 369 CURVE SMOOTH",
"128 369 LINE"
);
}
);
width = 648;
},
{
anchors = (
{
name = bottom;
position = "{340, 0}";
},
{
name = top;
position = "{340, 700}";
}
);
layerId = "BB270C98-E610-4AC3-8B1B-9C54875E1C66";
paths = (
{
closed = 1;
nodes = (
"425 0 LINE SMOOTH",
"544 0 OFFCURVE",
"618 72 OFFCURVE",
"618 181 CURVE SMOOTH",
"618 229 LINE SMOOTH",
"618 295 OFFCURVE",
"575 350 OFFCURVE",
"510 367 CURVE",
"510 368 LINE",
"550 395 OFFCURVE",
"574 443 OFFCURVE",
"574 492 CURVE SMOOTH",
"574 545 LINE SMOOTH",
"574 638 OFFCURVE",
"495 700 OFFCURVE",
"376 700 CURVE SMOOTH",
"80 700 LINE",
"80 65 LINE SMOOTH",
"80 26 OFFCURVE",
"106 0 OFFCURVE",
"145 0 CURVE SMOOTH"
);
},
{
closed = 1;
nodes = (
"154 322 LINE",
"435 322 LINE SMOOTH",
"500 322 OFFCURVE",
"544 285 OFFCURVE",
"544 229 CURVE SMOOTH",
"544 181 LINE SMOOTH",
"544 112 OFFCURVE",
"495 66 OFFCURVE",
"415 66 CURVE SMOOTH",
"154 66 LINE"
);
},
{
closed = 1;
nodes = (
"154 634 LINE",
"376 634 LINE SMOOTH",
"450 634 OFFCURVE",
"500 598 OFFCURVE",
"500 545 CURVE SMOOTH",
"500 492 LINE SMOOTH",
"500 427 OFFCURVE",
"458 384 OFFCURVE",
"396 384 CURVE SMOOTH",
"154 384 LINE"
);
}
);
width = 662;
},
{
anchors = (
{
name = bottom;
position = "{310, 0}";
},
{
name = top;
position = "{434, 700}";
}
);
background = {
paths = (
{
closed = 1;
nodes = (
"400 0 LINE SMOOTH",
"535 0 OFFCURVE",
"633 69 OFFCURVE",
"652 179 CURVE SMOOTH",
"661 231 LINE SMOOTH",
"672 294 OFFCURVE",
"638 349 OFFCURVE",
"579 371 CURVE",
"579 372 LINE",
"623 397 OFFCURVE",
"653 440 OFFCURVE",
"662 484 CURVE SMOOTH",
"671 534 LINE SMOOTH",
"689 635 OFFCURVE",
"615 700 OFFCURVE",
"490 700 CURVE SMOOTH",
"142 700 LINE",
"35 94 LINE SMOOTH",
"25 38 OFFCURVE",
"58 0 OFFCURVE",
"115 0 CURVE SMOOTH"
);
},
{
closed = 1;
nodes = (
"209 296 LINE",
"458 296 LINE SMOOTH",
"503 296 OFFCURVE",
"530 270 OFFCURVE",
"523 231 CURVE SMOOTH",
"515 187 LINE SMOOTH",
"507 144 OFFCURVE",
"469 120 OFFCURVE",
"412 120 CURVE SMOOTH",
"178 120 LINE"
);
},
{
closed = 1;
nodes = (
"259 580 LINE",
"464 580 LINE SMOOTH",
"509 580 OFFCURVE",
"537 556 OFFCURVE",
"530 519 CURVE SMOOTH",
"524 485 LINE SMOOTH",
"516 440 OFFCURVE",
"481 410 OFFCURVE",
"439 410 CURVE SMOOTH",
"229 410 LINE"
);
}
);
};
layerId = "6404A7B3-B80B-4413-A1A7-686F7DCA7307";
paths = (
{
closed = 1;
nodes = (
"416 0 LINE SMOOTH",
"549 0 OFFCURVE",
"633 66 OFFCURVE",
"652 179 CURVE SMOOTH",
"661 231 LINE SMOOTH",
"672 294 OFFCURVE",
"638 348 OFFCURVE",
"579 371 CURVE",
"579 372 LINE",
"623 397 OFFCURVE",
"653 440 OFFCURVE",
"662 484 CURVE SMOOTH",
"671 534 LINE SMOOTH",
"689 634 OFFCURVE",
"610 700 OFFCURVE",
"474 700 CURVE SMOOTH",
"142 700 LINE",
"35 94 LINE SMOOTH",
"25 38 OFFCURVE",
"58 0 OFFCURVE",
"115 0 CURVE SMOOTH"
);
},
{
closed = 1;
nodes = (
"209 296 LINE",
"458 296 LINE SMOOTH",
"503 296 OFFCURVE",
"530 270 OFFCURVE",
"523 231 CURVE SMOOTH",
"515 187 LINE SMOOTH",
"507 145 OFFCURVE",
"469 120 OFFCURVE",
"412 120 CURVE SMOOTH",
"178 120 LINE"
);
},
{
closed = 1;
nodes = (
"259 580 LINE",
"464 580 LINE SMOOTH",
"511 580 OFFCURVE",
"537 556 OFFCURVE",
"530 519 CURVE SMOOTH",
"524 485 LINE SMOOTH",
"516 440 OFFCURVE",
"481 410 OFFCURVE",
"439 410 CURVE SMOOTH",
"229 410 LINE"
);
}
);
width = 690;
},
{
anchors = (
{
name = bottom;
position = "{296, 0}";
},
{
name = top;
position = "{419, 700}";
}
);
background = {
paths = (
{
closed = 1;
nodes = (
"381 0 LINE SMOOTH",
"501 0 OFFCURVE",
"585 74 OFFCURVE",
"605 181 CURVE SMOOTH",
"614 229 LINE SMOOTH",
"626 295 OFFCURVE",
"592 349 OFFCURVE",
"530 367 CURVE",
"530 368 LINE",
"575 395 OFFCURVE",
"606 443 OFFCURVE",
"616 492 CURVE SMOOTH",
"626 545 LINE SMOOTH",
"643 634 OFFCURVE",
"578 700 OFFCURVE",
"455 700 CURVE SMOOTH",
"159 700 LINE",
"47 65 LINE SMOOTH",
"40 26 OFFCURVE",
"62 0 OFFCURVE",
"101 0 CURVE SMOOTH"
);
},
{
closed = 1;
nodes = (
"166 322 LINE",
"447 322 LINE SMOOTH",
"515 322 OFFCURVE",
"550 282 OFFCURVE",
"540 229 CURVE SMOOTH",
"531 181 LINE SMOOTH",
"518 112 OFFCURVE",
"462 66 OFFCURVE",
"382 66 CURVE SMOOTH",
"121 66 LINE"
);
},
{
closed = 1;
nodes = (
"221 634 LINE",
"443 634 LINE SMOOTH",
"517 634 OFFCURVE",
"562 598 OFFCURVE",
"552 545 CURVE SMOOTH",
"542 492 LINE SMOOTH",
"530 427 OFFCURVE",
"480 384 OFFCURVE",
"419 384 CURVE SMOOTH",
"177 384 LINE"
);
}
);
};
layerId = "A26C2DC2-6E9D-4E0E-A939-3EF723D8B45B";
paths = (
{
closed = 1;
nodes = (
"391 0 LINE SMOOTH",
"504 0 OFFCURVE",
"584 67 OFFCURVE",
"605 181 CURVE SMOOTH",
"614 229 LINE SMOOTH",
"626 295 OFFCURVE",
"592 349 OFFCURVE",
"530 367 CURVE",
"530 368 LINE",
"575 395 OFFCURVE",
"607 443 OFFCURVE",
"616 492 CURVE SMOOTH",
"626 545 LINE SMOOTH",
"643 638 OFFCURVE",
"572 700 OFFCURVE",
"451 700 CURVE SMOOTH",
"159 700 LINE",
"47 65 LINE SMOOTH",
"40 26 OFFCURVE",
"62 0 OFFCURVE",
"101 0 CURVE SMOOTH"
);
},
{
closed = 1;
nodes = (
"166 322 LINE",
"447 322 LINE SMOOTH",
"515 322 OFFCURVE",
"550 282 OFFCURVE",
"540 229 CURVE SMOOTH",
"531 181 LINE SMOOTH",
"517 109 OFFCURVE",
"462 66 OFFCURVE",
"382 66 CURVE SMOOTH",
"121 66 LINE"
);
},
{
closed = 1;
nodes = (
"221 634 LINE",
"449 634 LINE SMOOTH",
"520 634 OFFCURVE",
"562 598 OFFCURVE",
"552 545 CURVE SMOOTH",
"542 492 LINE SMOOTH",
"530 427 OFFCURVE",
"480 384 OFFCURVE",
"419 384 CURVE SMOOTH",
"177 384 LINE"
);
}
);
width = 662;
},
{
anchors = (
{
name = bottom;
position = "{289, 0}";
},
{
name = top;
position = "{412, 700}";
}
);
background = {
anchors = (
{
name = bottom;
position = "{289, 0}";
},
{
name = top;
position = "{412, 700}";
}
);
paths = (
{
closed = 1;
nodes = (
"371 0 LINE SMOOTH",
"483 0 OFFCURVE",
"559 61 OFFCURVE",
"577 165 CURVE SMOOTH",
"587 224 LINE SMOOTH",
"599 293 OFFCURVE",
"563 346 OFFCURVE",
"498 361 CURVE",
"498 362 LINE",
"543 385 OFFCURVE",
"579 431 OFFCURVE",
"591 496 CURVE SMOOTH",
"602 556 LINE SMOOTH",
"618 642 OFFCURVE",
"557 700 OFFCURVE",
"450 700 CURVE SMOOTH",
"171 700 LINE",
"54 36 LINE SMOOTH",
"50 13 OFFCURVE",
"61 0 OFFCURVE",
"84 0 CURVE SMOOTH"
);
},
{
closed = 1;
nodes = (
"143 337 LINE",
"443 337 LINE SMOOTH",
"523 337 OFFCURVE",
"562 289 OFFCURVE",
"551 224 CURVE SMOOTH",
"541 165 LINE SMOOTH",
"527 82 OFFCURVE",
"464 33 OFFCURVE",
"371 33 CURVE SMOOTH",
"89 33 LINE"
);
},
{
closed = 1;
nodes = (
"201 667 LINE",
"450 667 LINE SMOOTH",
"532 667 OFFCURVE",
"578 623 OFFCURVE",
"566 556 CURVE SMOOTH",
"555 496 LINE SMOOTH",
"541 419 OFFCURVE",
"486 369 OFFCURVE",
"418 369 CURVE SMOOTH",
"149 369 LINE"
);
}
);
};
layerId = "4CEAA5B1-2F28-4CD4-84D3-78B02271F1AF";
paths = (
{
closed = 1;
nodes = (
"371 0 LINE SMOOTH",
"483 0 OFFCURVE",
"559 61 OFFCURVE",
"577 165 CURVE SMOOTH",
"587 224 LINE SMOOTH",
"599 293 OFFCURVE",
"563 346 OFFCURVE",
"498 361 CURVE",
"498 362 LINE",
"543 385 OFFCURVE",
"579 431 OFFCURVE",
"591 496 CURVE SMOOTH",
"602 556 LINE SMOOTH",
"618 642 OFFCURVE",
"557 700 OFFCURVE",
"450 700 CURVE SMOOTH",
"171 700 LINE",
"54 36 LINE SMOOTH",
"50 13 OFFCURVE",
"61 0 OFFCURVE",
"84 0 CURVE SMOOTH"
);
},
{
closed = 1;
nodes = (
"143 337 LINE",
"443 337 LINE SMOOTH",
"523 337 OFFCURVE",
"562 289 OFFCURVE",
"551 224 CURVE SMOOTH",
"541 165 LINE SMOOTH",
"527 82 OFFCURVE",
"464 33 OFFCURVE",
"371 33 CURVE SMOOTH",
"89 33 LINE"
);
},
{
closed = 1;
nodes = (
"201 667 LINE",
"450 667 LINE SMOOTH",
"532 667 OFFCURVE",
"578 623 OFFCURVE",
"566 556 CURVE SMOOTH",
"555 496 LINE SMOOTH",
"541 419 OFFCURVE",
"486 369 OFFCURVE",
"418 369 CURVE SMOOTH",
"149 369 LINE"
);
}
);
width = 648;
}
);
leftKerningGroup = E;
leftMetricsKey = H;
note = B;
unicode = 0042;
},
{
glyphname = C;
lastChange = "2018-06-07 20:36:22 +0000";
layers = (
{
anchors = (
{
name = bottom;
position = "{362, 0}";
},
{
name = top;
position = "{351, 700}";
}
);
background = {
paths = (
{
closed = 1;
nodes = (
"408 -8 LINE SMOOTH",
"562 -8 OFFCURVE",
"664 100 OFFCURVE",
"664 263 CURVE",
"528 263 LINE",
"528 174 OFFCURVE",
"479 114 OFFCURVE",
"408 114 CURVE SMOOTH",
"300 114 LINE SMOOTH",
"228 114 OFFCURVE",
"180 174 OFFCURVE",
"180 264 CURVE SMOOTH",
"180 436 LINE SMOOTH",
"180 526 OFFCURVE",
"230 586 OFFCURVE",
"304 586 CURVE SMOOTH",
"410 586 LINE SMOOTH",
"479 586 OFFCURVE",
"526 533 OFFCURVE",
"526 453 CURVE",
"662 453 LINE",
"662 606 OFFCURVE",
"561 708 OFFCURVE",
"410 708 CURVE SMOOTH",
"304 708 LINE SMOOTH",
"147 708 OFFCURVE",
"42 602 OFFCURVE",
"42 442 CURVE SMOOTH",
"42 258 LINE SMOOTH",
"42 98 OFFCURVE",
"145 -8 OFFCURVE",
"300 -8 CURVE SMOOTH"
);
}
);
};
layerId = "EA06CE92-4115-4482-8874-2441C279E756";
paths = (
{
closed = 1;
nodes = (
"408 -8 LINE SMOOTH",
"562 -8 OFFCURVE",
"664 100 OFFCURVE",
"664 263 CURVE",
"528 263 LINE",
"528 174 OFFCURVE",
"479 114 OFFCURVE",
"408 114 CURVE SMOOTH",
"300 114 LINE SMOOTH",
"228 114 OFFCURVE",
"180 174 OFFCURVE",
"180 264 CURVE SMOOTH",
"180 436 LINE SMOOTH",
"180 526 OFFCURVE",
"230 586 OFFCURVE",
"304 586 CURVE SMOOTH",
"410 586 LINE SMOOTH",
"479 586 OFFCURVE",
"526 533 OFFCURVE",
"526 453 CURVE",
"662 453 LINE",
"662 606 OFFCURVE",
"561 708 OFFCURVE",
"410 708 CURVE SMOOTH",
"304 708 LINE SMOOTH",
"147 708 OFFCURVE",
"42 602 OFFCURVE",
"42 442 CURVE SMOOTH",
"42 258 LINE SMOOTH",
"42 98 OFFCURVE",
"145 -8 OFFCURVE",
"300 -8 CURVE SMOOTH"
);
}
);
width = 688;
},
{
anchors = (
{
name = bottom;
position = "{334, 0}";
},
{
name = top;
position = "{335, 700}";
}
);
background = {
paths = (
{
closed = 1;
nodes = (
"386 -8 LINE SMOOTH",
"510 -8 OFFCURVE",
"592 80 OFFCURVE",
"592 213 CURVE",
"557 213 LINE",
"557 100 OFFCURVE",
"489 25 OFFCURVE",
"386 25 CURVE SMOOTH",
"278 25 LINE SMOOTH",
"176 25 OFFCURVE",
"108 109 OFFCURVE",
"108 235 CURVE SMOOTH",
"108 465 LINE SMOOTH",
"108 591 OFFCURVE",
"178 675 OFFCURVE",
"282 675 CURVE SMOOTH",
"388 675 LINE SMOOTH",
"488 675 OFFCURVE",
"555 606 OFFCURVE",
"555 503 CURVE",
"590 503 LINE",
"590 626 OFFCURVE",
"509 708 OFFCURVE",
"388 708 CURVE SMOOTH",
"282 708 LINE SMOOTH",
"156 708 OFFCURVE",
"72 611 OFFCURVE",
"72 465 CURVE SMOOTH",
"72 235 LINE SMOOTH",
"72 89 OFFCURVE",
"154 -8 OFFCURVE",
"278 -8 CURVE SMOOTH"
);
}
);
};
layerId = "76C6DC51-463D-4A0C-B694-3EB424048C5D";
paths = (
{
closed = 1;
nodes = (
"386 -8 LINE SMOOTH",
"510 -8 OFFCURVE",
"592 80 OFFCURVE",
"592 213 CURVE",
"557 213 LINE",
"557 100 OFFCURVE",
"489 25 OFFCURVE",
"386 25 CURVE SMOOTH",
"278 25 LINE SMOOTH",
"177 25 OFFCURVE",
"108 109 OFFCURVE",
"108 235 CURVE SMOOTH",
"108 465 LINE SMOOTH",
"108 591 OFFCURVE",
"178 675 OFFCURVE",
"282 675 CURVE SMOOTH",
"388 675 LINE SMOOTH",
"489 675 OFFCURVE",
"555 606 OFFCURVE",
"555 503 CURVE",
"590 503 LINE",
"590 626 OFFCURVE",
"510 708 OFFCURVE",
"388 708 CURVE SMOOTH",
"282 708 LINE SMOOTH",
"157 708 OFFCURVE",
"72 611 OFFCURVE",
"72 465 CURVE SMOOTH",
"72 235 LINE SMOOTH",
"72 89 OFFCURVE",
"155 -8 OFFCURVE",
"278 -8 CURVE SMOOTH"
);
}
);
width = 646;
},
{
anchors = (
{
name = bottom;
position = "{344, 0}";
},
{
name = top;
position = "{344, 700}";
}
);
layerId = "BB270C98-E610-4AC3-8B1B-9C54875E1C66";
paths = (
{
closed = 1;
nodes = (
"395 -8 LINE SMOOTH",
"529 -8 OFFCURVE",
"618 88 OFFCURVE",
"618 232 CURVE",
"546 232 LINE",
"546 128 OFFCURVE",
"486 58 OFFCURVE",
"395 58 CURVE SMOOTH",
"287 58 LINE SMOOTH",
"195 58 OFFCURVE",
"134 133 OFFCURVE",
"134 246 CURVE SMOOTH",
"134 454 LINE SMOOTH",
"134 567 OFFCURVE",
"197 642 OFFCURVE",
"291 642 CURVE SMOOTH",
"397 642 LINE SMOOTH",
"485 642 OFFCURVE",
"544 579 OFFCURVE",
"544 484 CURVE",
"616 484 LINE",
"616 618 OFFCURVE",
"528 708 OFFCURVE",
"397 708 CURVE SMOOTH",
"291 708 LINE SMOOTH",
"152 708 OFFCURVE",
"60 606 OFFCURVE",
"60 454 CURVE SMOOTH",
"60 246 LINE SMOOTH",
"60 94 OFFCURVE",
"151 -8 OFFCURVE",
"287 -8 CURVE SMOOTH"
);
}
);
width = 660;
},
{
anchors = (
{
name = bottom;
position = "{318, 0}";
},
{
name = top;
position = "{430, 700}";
}
);
background = {
paths = (
{
closed = 1;
nodes = (
"362 -8 LINE SMOOTH",
"516 -8 OFFCURVE",
"637 100 OFFCURVE",
"666 263 CURVE",
"530 263 LINE",
"514 174 OFFCURVE",
"454 114 OFFCURVE",
"384 114 CURVE SMOOTH",
"276 114 LINE SMOOTH",
"205 114 OFFCURVE",
"166 174 OFFCURVE",
"182 264 CURVE SMOOTH",
"212 436 LINE SMOOTH",
"228 526 OFFCURVE",
"289 586 OFFCURVE",
"363 586 CURVE SMOOTH",
"469 586 LINE SMOOTH",
"535 586 OFFCURVE",
"576 536 OFFCURVE",
"561 453 CURVE",
"697 453 LINE",
"724 606 OFFCURVE",
"641 708 OFFCURVE",
"490 708 CURVE SMOOTH",
"384 708 LINE SMOOTH",
"227 708 OFFCURVE",
"103 602 OFFCURVE",
"75 442 CURVE SMOOTH",
"43 258 LINE SMOOTH",
"15 98 OFFCURVE",
"100 -8 OFFCURVE",
"254 -8 CURVE SMOOTH"
);
}
);
};
layerId = "6404A7B3-B80B-4413-A1A7-686F7DCA7307";
paths = (
{
closed = 1;
nodes = (
"378 -8 LINE SMOOTH",
"529 -8 OFFCURVE",
"636 93 OFFCURVE",
"666 263 CURVE",
"530 263 LINE",
"513 169 OFFCURVE",
"459 114 OFFCURVE",
"384 114 CURVE SMOOTH",
"277 114 LINE SMOOTH",
"205 114 OFFCURVE",
"167 174 OFFCURVE",
"183 264 CURVE SMOOTH",
"213 436 LINE SMOOTH",
"229 530 OFFCURVE",
"286 586 OFFCURVE",
"364 586 CURVE SMOOTH",
"469 586 LINE SMOOTH",
"539 586 OFFCURVE",
"575 533 OFFCURVE",
"561 453 CURVE",
"697 453 LINE",
"724 606 OFFCURVE",
"635 708 OFFCURVE",
"475 708 CURVE SMOOTH",
"370 708 LINE SMOOTH",
"214 708 OFFCURVE",
"105 609 OFFCURVE",
"76 442 CURVE SMOOTH",
"44 258 LINE SMOOTH",
"16 99 OFFCURVE",
"108 -8 OFFCURVE",
"271 -8 CURVE SMOOTH"
);
}
);
width = 688;
},
{
anchors = (
{
name = bottom;
position = "{305, 0}";
},
{
name = top;
position = "{423, 700}";
}
);
background = {
paths = (
{
closed = 1;
nodes = (
"349 -8 LINE SMOOTH",
"483 -8 OFFCURVE",
"589 88 OFFCURVE",
"615 232 CURVE",
"543 232 LINE",
"524 128 OFFCURVE",
"452 58 OFFCURVE",
"361 58 CURVE SMOOTH",
"253 58 LINE SMOOTH",
"161 58 OFFCURVE",
"113 133 OFFCURVE",
"133 246 CURVE SMOOTH",
"170 454 LINE SMOOTH",
"190 567 OFFCURVE",
"267 642 OFFCURVE",
"360 642 CURVE SMOOTH",
"466 642 LINE SMOOTH",
"553 642 OFFCURVE",
"602 579 OFFCURVE",
"585 484 CURVE",
"657 484 LINE",
"681 618 OFFCURVE",
"607 708 OFFCURVE",
"477 708 CURVE SMOOTH",
"371 708 LINE SMOOTH",
"233 708 OFFCURVE",
"123 606 OFFCURVE",
"96 454 CURVE SMOOTH",
"59 246 LINE SMOOTH",
"32 94 OFFCURVE",
"106 -8 OFFCURVE",
"241 -8 CURVE SMOOTH"
);
}
);
};
layerId = "A26C2DC2-6E9D-4E0E-A939-3EF723D8B45B";
paths = (
{
closed = 1;
nodes = (
"360 -8 LINE SMOOTH",
"487 -8 OFFCURVE",
"589 88 OFFCURVE",
"615 232 CURVE",
"543 232 LINE",
"524 128 OFFCURVE",
"451 58 OFFCURVE",
"361 58 CURVE SMOOTH",
"253 58 LINE SMOOTH",
"161 58 OFFCURVE",
"113 133 OFFCURVE",
"133 246 CURVE SMOOTH",
"170 454 LINE SMOOTH",
"191 572 OFFCURVE",
"261 642 OFFCURVE",
"360 642 CURVE SMOOTH",
"466 642 LINE SMOOTH",
"554 642 OFFCURVE",
"602 579 OFFCURVE",
"585 484 CURVE",
"657 484 LINE",
"681 618 OFFCURVE",
"605 708 OFFCURVE",
"467 708 CURVE SMOOTH",
"361 708 LINE SMOOTH",
"223 708 OFFCURVE",
"124 614 OFFCURVE",
"96 454 CURVE SMOOTH",
"59 246 LINE SMOOTH",
"32 94 OFFCURVE",
"109 -8 OFFCURVE",
"252 -8 CURVE SMOOTH"
);
}
);
width = 660;
},
{
anchors = (
{
name = bottom;
position = "{294, 0}";
},
{
name = top;
position = "{414, 700}";
}
);
background = {
anchors = (
{
name = bottom;
position = "{290, 0}";
},
{
name = top;
position = "{414, 700}";
}
);
paths = (
{
closed = 1;
nodes = (
"346 -8 LINE SMOOTH",
"472 -8 OFFCURVE",
"561 74 OFFCURVE",
"585 213 CURVE",
"550 213 LINE",
"529 95 OFFCURVE",
"453 25 OFFCURVE",
"346 25 CURVE SMOOTH",
"238 25 LINE SMOOTH",
"136 25 OFFCURVE",
"82 109 OFFCURVE",
"105 235 CURVE SMOOTH",
"146 465 LINE SMOOTH",
"170 597 OFFCURVE",
"248 675 OFFCURVE",
"357 675 CURVE SMOOTH",
"463 675 LINE SMOOTH",
"563 675 OFFCURVE",
"617 606 OFFCURVE",
"599 503 CURVE",
"634 503 LINE",
"656 626 OFFCURVE",
"585 708 OFFCURVE",
"463 708 CURVE SMOOTH",
"357 708 LINE SMOOTH",
"229 708 OFFCURVE",
"137 618 OFFCURVE",
"110 465 CURVE SMOOTH",
"69 235 LINE SMOOTH",
"43 89 OFFCURVE",
"111 -8 OFFCURVE",
"238 -8 CURVE SMOOTH"
);
}
);
};
layerId = "4CEAA5B1-2F28-4CD4-84D3-78B02271F1AF";
paths = (
{
closed = 1;
nodes = (
"347 -8 LINE SMOOTH",
"473 -8 OFFCURVE",
"562 74 OFFCURVE",
"586 213 CURVE",
"551 213 LINE",
"530 95 OFFCURVE",
"454 25 OFFCURVE",
"347 25 CURVE SMOOTH",
"238 25 LINE SMOOTH",
"136 25 OFFCURVE",
"82 109 OFFCURVE",
"105 235 CURVE SMOOTH",
"146 465 LINE SMOOTH",
"170 597 OFFCURVE",
"248 675 OFFCURVE",
"357 675 CURVE SMOOTH",
"464 675 LINE SMOOTH",
"564 675 OFFCURVE",
"618 606 OFFCURVE",
"600 503 CURVE",
"635 503 LINE",
"657 626 OFFCURVE",
"586 708 OFFCURVE",
"464 708 CURVE SMOOTH",
"357 708 LINE SMOOTH",
"229 708 OFFCURVE",
"137 618 OFFCURVE",
"110 465 CURVE SMOOTH",
"69 235 LINE SMOOTH",
"43 89 OFFCURVE",
"111 -8 OFFCURVE",
"238 -8 CURVE SMOOTH"
);
}
);
width = 646;
}
);
leftKerningGroup = O;
leftMetricsKey = O;
note = C;
rightKerningGroup = C;
unicode = 0043;
},
{
glyphname = D;
lastChange = "2018-06-07 20:09:54 +0000";
layers = (
{
anchors = (
{
name = bottom;
position = "{361, 0}";
},
{
name = center;
position = "{356, 350}";
},
{
name = top;
position = "{356, 700}";
}
);
background = {
paths = (
{
closed = 1;
nodes = (
"398 0 LINE SMOOTH",
"558 0 OFFCURVE",
"664 107 OFFCURVE",
"664 268 CURVE SMOOTH",
"664 452 LINE SMOOTH",
"664 601 OFFCURVE",
"556 700 OFFCURVE",
"394 700 CURVE SMOOTH",
"62 700 LINE",
"62 94 LINE SMOOTH",
"62 38 OFFCURVE",
"101 0 OFFCURVE",
"159 0 CURVE SMOOTH"
);
},
{
closed = 1;
nodes = (
"200 578 LINE",
"392 578 LINE SMOOTH",
"472 578 OFFCURVE",
"526 528 OFFCURVE",
"526 452 CURVE SMOOTH",
"526 268 LINE SMOOTH",
"526 180 OFFCURVE",
"474 122 OFFCURVE",
"396 122 CURVE SMOOTH",
"200 122 LINE"
);
}
);
};
layerId = "EA06CE92-4115-4482-8874-2441C279E756";
paths = (
{
closed = 1;
nodes = (
"400 0 LINE SMOOTH",
"573 0 OFFCURVE",
"664 90 OFFCURVE",
"664 262 CURVE SMOOTH",
"664 458 LINE SMOOTH",
"664 603 OFFCURVE",
"557 700 OFFCURVE",
"396 700 CURVE SMOOTH",
"62 700 LINE",
"62 94 LINE SMOOTH",
"62 38 OFFCURVE",
"101 0 OFFCURVE",
"159 0 CURVE SMOOTH"
);
},
{
closed = 1;
nodes = (
"200 578 LINE",
"392 578 LINE SMOOTH",
"472 578 OFFCURVE",
"526 528 OFFCURVE",
"526 452 CURVE SMOOTH",
"526 268 LINE SMOOTH",
"526 172 OFFCURVE",
"481 122 OFFCURVE",
"396 122 CURVE SMOOTH",
"200 122 LINE"
);
}
);
width = 698;
},
{
anchors = (
{
name = bottom;
position = "{332, 0}";
},
{
name = center;
position = "{327, 350}";
},
{
name = top;
position = "{327, 700}";
}
);
background = {
paths = (
{
closed = 1;
nodes = (
"360 0 LINE SMOOTH",
"512 0 OFFCURVE",
"592 82 OFFCURVE",
"592 239 CURVE SMOOTH",
"592 481 LINE SMOOTH",
"592 612 OFFCURVE",
"498 700 OFFCURVE",
"356 700 CURVE SMOOTH",
"92 700 LINE",
"92 39 LINE SMOOTH",
"92 16 OFFCURVE",
"106 0 OFFCURVE",
"128 0 CURVE SMOOTH"
);
},
{
closed = 1;
nodes = (
"128 667 LINE",
"356 667 LINE SMOOTH",
"476 667 OFFCURVE",
"556 593 OFFCURVE",
"556 481 CURVE SMOOTH",
"556 239 LINE SMOOTH",
"556 104 OFFCURVE",
"489 33 OFFCURVE",
"360 33 CURVE SMOOTH",
"128 33 LINE"
);
}
);
};
layerId = "76C6DC51-463D-4A0C-B694-3EB424048C5D";
paths = (
{
closed = 1;
nodes = (
"360 0 LINE SMOOTH",
"512 0 OFFCURVE",
"592 82 OFFCURVE",
"592 239 CURVE SMOOTH",
"592 481 LINE SMOOTH",
"592 612 OFFCURVE",
"498 700 OFFCURVE",
"356 700 CURVE SMOOTH",
"92 700 LINE",
"92 36 LINE SMOOTH",
"92 13 OFFCURVE",
"105 0 OFFCURVE",
"128 0 CURVE SMOOTH"
);
},
{
closed = 1;
nodes = (
"128 667 LINE",
"356 667 LINE SMOOTH",
"476 667 OFFCURVE",
"556 593 OFFCURVE",
"556 481 CURVE SMOOTH",
"556 239 LINE SMOOTH",
"556 104 OFFCURVE",
"489 33 OFFCURVE",
"360 33 CURVE SMOOTH",
"128 33 LINE"
);
}
);
width = 660;
},
{
anchors = (
{
name = bottom;
position = "{347, 0}";
},
{
name = center;
position = "{342, 350}";
},
{
name = top;
position = "{342, 700}";
}
);
layerId = "BB270C98-E610-4AC3-8B1B-9C54875E1C66";
paths = (
{
closed = 1;
nodes = (
"374 0 LINE SMOOTH",
"534 0 OFFCURVE",
"618 86 OFFCURVE",
"618 250 CURVE SMOOTH",
"618 470 LINE SMOOTH",
"618 608 OFFCURVE",
"519 700 OFFCURVE",
"370 700 CURVE SMOOTH",
"80 700 LINE",
"80 65 LINE SMOOTH",
"80 24 OFFCURVE",
"104 0 OFFCURVE",
"145 0 CURVE SMOOTH"
);
},
{
closed = 1;
nodes = (
"154 634 LINE",
"368 634 LINE SMOOTH",
"473 634 OFFCURVE",
"544 568 OFFCURVE",
"544 470 CURVE SMOOTH",
"544 250 LINE SMOOTH",
"544 129 OFFCURVE",
"485 66 OFFCURVE",
"372 66 CURVE SMOOTH",
"154 66 LINE"
);
}
);
width = 674;
},
{
anchors = (
{
name = bottom;
position = "{300, 0}";
},
{
name = center;
position = "{357, 350}";
},
{
name = top;
position = "{419, 700}";
}
);
background = {
paths = (
{
closed = 1;
nodes = (
"356 0 LINE SMOOTH",
"529 0 OFFCURVE",
"637 90 OFFCURVE",
"667 262 CURVE SMOOTH",
"701 458 LINE SMOOTH",
"726 603 OFFCURVE",
"637 700 OFFCURVE",
"476 700 CURVE SMOOTH",
"142 700 LINE",
"35 94 LINE SMOOTH",
"25 38 OFFCURVE",
"58 0 OFFCURVE",
"115 0 CURVE SMOOTH"
);
},
{
closed = 1;
nodes = (
"258 578 LINE",
"450 578 LINE SMOOTH",
"530 578 OFFCURVE",
"575 528 OFFCURVE",
"562 452 CURVE SMOOTH",
"530 268 LINE SMOOTH",
"513 172 OFFCURVE",
"459 122 OFFCURVE",
"374 122 CURVE SMOOTH",
"178 122 LINE"
);
}
);
};
layerId = "6404A7B3-B80B-4413-A1A7-686F7DCA7307";
paths = (
{
closed = 1;
nodes = (
"371 0 LINE SMOOTH",
"535 0 OFFCURVE",
"637 90 OFFCURVE",
"666 262 CURVE SMOOTH",
"699 458 LINE SMOOTH",
"723 603 OFFCURVE",
"629 700 OFFCURVE",
"459 700 CURVE SMOOTH",
"142 700 LINE",
"35 94 LINE SMOOTH",
"25 38 OFFCURVE",
"58 0 OFFCURVE",
"115 0 CURVE SMOOTH"
);
},
{
closed = 1;
nodes = (
"258 578 LINE",
"449 578 LINE SMOOTH",
"529 578 OFFCURVE",
"575 528 OFFCURVE",
"561 452 CURVE SMOOTH",
"528 268 LINE SMOOTH",
"511 172 OFFCURVE",
"459 122 OFFCURVE",
"373 122 CURVE SMOOTH",
"178 122 LINE"
);
}
);
width = 698;
},
{
anchors = (
{
name = bottom;
position = "{303, 0}";
},
{
name = center;
position = "{359, 350}";
},
{
name = top;
position = "{421, 700}";
}
);
background = {
paths = (
{
closed = 1;
nodes = (
"330 0 LINE SMOOTH",
"489 0 OFFCURVE",
"589 86 OFFCURVE",
"618 250 CURVE SMOOTH",
"657 470 LINE SMOOTH",
"681 606 OFFCURVE",
"600 700 OFFCURVE",
"449 700 CURVE SMOOTH",
"159 700 LINE",
"47 65 LINE SMOOTH",
"40 24 OFFCURVE",
"60 0 OFFCURVE",
"101 0 CURVE SMOOTH"
);
},
{
closed = 1;
nodes = (
"221 634 LINE",
"435 634 LINE SMOOTH",
"540 634 OFFCURVE",
"599 568 OFFCURVE",
"582 470 CURVE SMOOTH",
"544 250 LINE SMOOTH",
"523 129 OFFCURVE",
"452 66 OFFCURVE",
"339 66 CURVE SMOOTH",
"121 66 LINE"
);
}
);
};
layerId = "A26C2DC2-6E9D-4E0E-A939-3EF723D8B45B";
paths = (
{
closed = 1;
nodes = (
"339 0 LINE SMOOTH",
"498 0 OFFCURVE",
"589 86 OFFCURVE",
"618 250 CURVE SMOOTH",
"657 470 LINE SMOOTH",
"681 608 OFFCURVE",
"598 700 OFFCURVE",
"449 700 CURVE SMOOTH",
"159 700 LINE",
"47 65 LINE SMOOTH",
"40 24 OFFCURVE",
"60 0 OFFCURVE",
"101 0 CURVE SMOOTH"
);
},
{
closed = 1;
nodes = (
"221 634 LINE",
"445 634 LINE SMOOTH",
"549 634 OFFCURVE",
"600 573 OFFCURVE",
"582 470 CURVE SMOOTH",
"544 250 LINE SMOOTH",
"523 129 OFFCURVE",
"452 66 OFFCURVE",
"339 66 CURVE SMOOTH",
"121 66 LINE"
);
}
);
width = 674;
},
{
anchors = (
{
name = bottom;
position = "{288, 0}";
},
{
name = center;
position = "{344, 350}";
},
{
name = top;
position = "{406, 700}";
}
);
background = {
anchors = (
{
name = bottom;
position = "{288, 0}";
},
{
name = center;
position = "{344, 350}";
},
{
name = top;
position = "{406, 700}";
}
);
paths = (
{
closed = 1;
nodes = (
"321 0 LINE SMOOTH",
"470 0 OFFCURVE",
"562 82 OFFCURVE",
"590 239 CURVE SMOOTH",
"633 481 LINE SMOOTH",
"656 612 OFFCURVE",
"575 700 OFFCURVE",
"430 700 CURVE SMOOTH",
"171 700 LINE",
"54 36 LINE SMOOTH",
"50 13 OFFCURVE",
"61 0 OFFCURVE",
"84 0 CURVE SMOOTH"
);
},
{
closed = 1;
nodes = (
"201 667 LINE",
"429 667 LINE SMOOTH",
"549 667 OFFCURVE",
"617 593 OFFCURVE",
"597 481 CURVE SMOOTH",
"554 239 LINE SMOOTH",
"530 104 OFFCURVE",
"450 33 OFFCURVE",
"321 33 CURVE SMOOTH",
"89 33 LINE"
);
}
);
};
layerId = "4CEAA5B1-2F28-4CD4-84D3-78B02271F1AF";
paths = (
{
closed = 1;
nodes = (
"321 0 LINE SMOOTH",
"470 0 OFFCURVE",
"562 82 OFFCURVE",
"590 239 CURVE SMOOTH",
"633 481 LINE SMOOTH",
"656 612 OFFCURVE",
"575 700 OFFCURVE",
"430 700 CURVE SMOOTH",
"171 700 LINE",
"54 36 LINE SMOOTH",
"50 13 OFFCURVE",
"61 0 OFFCURVE",
"84 0 CURVE SMOOTH"
);
},
{
closed = 1;
nodes = (
"201 667 LINE",
"429 667 LINE SMOOTH",
"549 667 OFFCURVE",
"617 593 OFFCURVE",
"597 481 CURVE SMOOTH",
"554 239 LINE SMOOTH",
"530 104 OFFCURVE",
"450 33 OFFCURVE",
"321 33 CURVE SMOOTH",
"89 33 LINE"
);
}
);
width = 660;
}
);
leftKerningGroup = E;
leftMetricsKey = H;
note = D;
rightKerningGroup = D;
unicode = 0044;
},
{
glyphname = E;
lastChange = "2018-06-07 19:53:12 +0000";
layers = (
{
anchors = (
{
name = bottom;
position = "{337, 0}";
},
{
name = ogonek;
position = "{596, 0}";
},
{
name = top;
position = "{333, 700}";
},
{
name = topleft;
position = "{39, 700}";
}
);
background = {
paths = (
{
closed = 1;
nodes = (
"596 0 LINE",
"596 120 LINE",
"200 120 LINE",
"200 298 LINE",
"566 298 LINE",
"566 418 LINE",
"200 418 LINE",
"200 580 LINE",
"596 580 LINE",
"596 700 LINE",
"62 700 LINE",
"62 94 LINE SMOOTH",
"62 38 OFFCURVE",
"101 0 OFFCURVE",
"159 0 CURVE SMOOTH"
);
}
);
};
layerId = "EA06CE92-4115-4482-8874-2441C279E756";
paths = (
{
closed = 1;
nodes = (
"596 0 LINE",
"596 120 LINE",
"200 120 LINE",
"200 298 LINE",
"566 298 LINE",
"566 418 LINE",
"200 418 LINE",
"200 580 LINE",
"596 580 LINE",
"596 700 LINE",
"62 700 LINE",
"62 94 LINE SMOOTH",
"62 38 OFFCURVE",
"101 0 OFFCURVE",
"159 0 CURVE SMOOTH"
);
}
);
width = 628;
},
{
anchors = (
{
name = bottom;
position = "{309, 0}";
},
{
name = ogonek;
position = "{524, 0}";
},
{
name = top;
position = "{309, 700}";
},
{
name = topleft;
position = "{18, 700}";
}
);
background = {
paths = (
{
closed = 1;
nodes = (
"524 0 LINE",
"524 33 LINE",
"128 33 LINE",
"128 341 LINE",
"494 341 LINE",
"494 374 LINE",
"128 374 LINE",
"128 667 LINE",
"524 667 LINE",
"524 700 LINE",
"92 700 LINE",
"92 39 LINE SMOOTH",
"92 14 OFFCURVE",
"105 0 OFFCURVE",
"128 0 CURVE SMOOTH"
);
}
);
};
layerId = "76C6DC51-463D-4A0C-B694-3EB424048C5D";
paths = (
{
closed = 1;
nodes = (
"524 0 LINE",
"524 33 LINE",
"128 33 LINE",
"128 341 LINE",
"494 341 LINE",
"494 374 LINE",
"128 374 LINE",
"128 667 LINE",
"524 667 LINE",
"524 700 LINE",
"92 700 LINE",
"92 39 LINE SMOOTH",
"92 14 OFFCURVE",
"105 0 OFFCURVE",
"128 0 CURVE SMOOTH"
);
}
);
width = 586;
},
{
anchors = (
{
name = bottom;
position = "{323, 0}";
},
{
name = ogonek;
position = "{550, 0}";
},
{
name = top;
position = "{318, 700}";
},
{
name = topleft;
position = "{25, 700}";
}
);
layerId = "BB270C98-E610-4AC3-8B1B-9C54875E1C66";
paths = (
{
closed = 1;
nodes = (
"550 0 LINE",
"550 64 LINE",
"154 64 LINE",
"154 326 LINE",
"520 326 LINE",
"520 390 LINE",
"154 390 LINE",
"154 636 LINE",
"550 636 LINE",
"550 700 LINE",
"80 700 LINE",
"80 66 LINE SMOOTH",
"80 25 OFFCURVE",
"104 0 OFFCURVE",
"145 0 CURVE SMOOTH"
);
}
);
width = 600;
},
{
anchors = (
{
name = bottom;
position = "{293, 0}";
},
{
name = ogonek;
position = "{552, 0}";
},
{
name = top;
position = "{413, 700}";
},
{
name = topleft;
position = "{119, 700}";
}
);
background = {
paths = (
{
closed = 1;
nodes = (
"552 0 LINE",
"574 120 LINE",
"178 120 LINE",
"209 298 LINE",
"575 298 LINE",
"596 418 LINE",
"230 418 LINE",
"259 580 LINE",
"655 580 LINE",
"676 700 LINE",
"142 700 LINE",
"35 94 LINE SMOOTH",
"25 38 OFFCURVE",
"58 0 OFFCURVE",
"115 0 CURVE SMOOTH"
);
}
);
};
layerId = "6404A7B3-B80B-4413-A1A7-686F7DCA7307";
paths = (
{
closed = 1;
nodes = (
"551 0 LINE",
"573 120 LINE",
"178 120 LINE",
"209 298 LINE",
"574 298 LINE",
"595 418 LINE",
"230 418 LINE",
"259 580 LINE",
"654 580 LINE",
"675 700 LINE",
"142 700 LINE",
"35 94 LINE SMOOTH",
"25 38 OFFCURVE",
"58 0 OFFCURVE",
"115 0 CURVE SMOOTH"
);
}
);
width = 628;
},
{
anchors = (
{
name = bottom;
position = "{279, 0}";
},
{
name = ogonek;
position = "{505, 0}";
},
{
name = top;
position = "{398, 700}";
},
{
name = topleft;
position = "{105, 700}";
}
);
background = {
paths = (
{
closed = 1;
nodes = (
"506 0 LINE",
"518 64 LINE",
"122 64 LINE",
"168 326 LINE",
"534 326 LINE",
"545 390 LINE",
"179 390 LINE",
"223 636 LINE",
"619 636 LINE",
"630 700 LINE",
"160 700 LINE",
"48 66 LINE SMOOTH",
"41 25 OFFCURVE",
"61 0 OFFCURVE",
"101 0 CURVE SMOOTH"
);
}
);
};
layerId = "A26C2DC2-6E9D-4E0E-A939-3EF723D8B45B";
paths = (
{
closed = 1;
nodes = (
"505 0 LINE",
"517 64 LINE",
"122 64 LINE",
"168 326 LINE",
"533 326 LINE",
"544 390 LINE",
"179 390 LINE",
"223 636 LINE",
"618 636 LINE",
"629 700 LINE",
"160 700 LINE",
"48 66 LINE SMOOTH",
"41 25 OFFCURVE",
"61 0 OFFCURVE",
"101 0 CURVE SMOOTH"
);
}
);
width = 600;
},
{
anchors = (
{
name = bottom;
position = "{265, 0}";
},
{
name = ogonek;
position = "{479, 0}";
},
{
name = top;
position = "{389, 700}";
},
{
name = topleft;
position = "{98, 700}";
}
);
background = {
anchors = (
{
name = bottom;
position = "{265, 0}";
},
{
name = ogonek;
position = "{480, 0}";
},
{
name = top;
position = "{389, 700}";
},
{
name = topleft;
position = "{98, 700}";
}
);
paths = (
{
closed = 1;
nodes = (
"479 0 LINE",
"485 33 LINE",
"90 33 LINE",
"144 341 LINE",
"509 341 LINE",
"515 374 LINE",
"150 374 LINE",
"202 667 LINE",
"597 667 LINE",
"603 700 LINE",
"172 700 LINE",
"55 39 LINE SMOOTH",
"51 14 OFFCURVE",
"61 0 OFFCURVE",
"84 0 CURVE SMOOTH"
);
}
);
};
layerId = "4CEAA5B1-2F28-4CD4-84D3-78B02271F1AF";
paths = (
{
closed = 1;
nodes = (
"479 0 LINE",
"485 33 LINE",
"90 33 LINE",
"144 341 LINE",
"509 341 LINE",
"515 374 LINE",
"150 374 LINE",
"202 667 LINE",
"597 667 LINE",
"603 700 LINE",
"172 700 LINE",
"55 39 LINE SMOOTH",
"51 14 OFFCURVE",
"61 0 OFFCURVE",
"84 0 CURVE SMOOTH"
);
}
);
width = 586;
}
);
leftKerningGroup = E;
leftMetricsKey = H;
note = E;
rightKerningGroup = E;
unicode = 0045;
},
{
glyphname = F;
lastChange = "2018-06-07 14:23:25 +0000";
layers = (
{
anchors = (
{
name = bottom;
position = "{306, 0}";
},
{
name = top;
position = "{306, 700}";
}
);
background = {
paths = (
{
closed = 1;
nodes = (
"202 0 LINE",
"202 270 LINE",
"551 270 LINE",
"551 392 LINE",
"202 392 LINE",
"202 578 LINE",
"588 578 LINE",
"588 700 LINE",
"64 700 LINE",
"64 0 LINE"
);
}
);
};
layerId = "EA06CE92-4115-4482-8874-2441C279E756";
paths = (
{
closed = 1;
nodes = (
"200 0 LINE",
"200 272 LINE",
"549 272 LINE",
"549 392 LINE",
"200 392 LINE",
"200 580 LINE",
"586 580 LINE",
"586 700 LINE",
"62 700 LINE",
"62 0 LINE"
);
}
);
width = 604;
},
{
anchors = (
{
name = bottom;
position = "{286, 0}";
},
{
name = top;
position = "{286, 700}";
}
);
background = {
paths = (
{
closed = 1;
nodes = (
"128 0 LINE",
"128 337 LINE",
"477 337 LINE",
"477 370 LINE",
"128 370 LINE",
"128 668 LINE",
"514 668 LINE",
"514 700 LINE",
"92 700 LINE",
"92 0 LINE"
);
}
);
};
layerId = "76C6DC51-463D-4A0C-B694-3EB424048C5D";
paths = (
{
closed = 1;
nodes = (
"128 0 LINE",
"128 337 LINE",
"477 337 LINE",
"477 370 LINE",
"128 370 LINE",
"128 667 LINE",
"514 667 LINE",
"514 700 LINE",
"92 700 LINE",
"92 0 LINE"
);
}
);
width = 562;
},
{
anchors = (
{
name = bottom;
position = "{293, 0}";
},
{
name = top;
position = "{293, 700}";
}
);
layerId = "BB270C98-E610-4AC3-8B1B-9C54875E1C66";
paths = (
{
closed = 1;
nodes = (
"154 0 LINE",
"154 312 LINE",
"503 312 LINE",
"503 378 LINE",
"154 378 LINE",
"154 634 LINE",
"540 634 LINE",
"540 700 LINE",
"80 700 LINE",
"80 0 LINE"
);
}
);
width = 576;
},
{
anchors = (
{
name = bottom;
position = "{262, 0}";
},
{
name = top;
position = "{385, 700}";
}
);
background = {
paths = (
{
closed = 1;
nodes = (
"156 0 LINE",
"204 272 LINE",
"553 272 LINE",
"574 392 LINE",
"225 392 LINE",
"258 580 LINE",
"644 580 LINE",
"665 700 LINE",
"141 700 LINE",
"18 0 LINE"
);
}
);
};
layerId = "6404A7B3-B80B-4413-A1A7-686F7DCA7307";
paths = (
{
closed = 1;
nodes = (
"156 0 LINE",
"204 272 LINE",
"553 272 LINE",
"574 392 LINE",
"225 392 LINE",
"258 580 LINE",
"644 580 LINE",
"665 700 LINE",
"141 700 LINE",
"18 0 LINE"
);
}
);
width = 604;
},
{
anchors = (
{
name = bottom;
position = "{249, 0}";
},
{
name = top;
position = "{372, 700}";
}
);
layerId = "A26C2DC2-6E9D-4E0E-A939-3EF723D8B45B";
paths = (
{
closed = 1;
nodes = (
"110 0 LINE",
"165 312 LINE",
"514 312 LINE",
"526 378 LINE",
"177 378 LINE",
"222 634 LINE",
"608 634 LINE",
"619 700 LINE",
"159 700 LINE",
"36 0 LINE"
);
}
);
width = 576;
},
{
anchors = (
{
name = bottom;
position = "{242, 0}";
},
{
name = top;
position = "{365, 700}";
}
);
background = {
anchors = (
{
name = bottom;
position = "{242, 0}";
},
{
name = top;
position = "{365, 700}";
}
);
paths = (
{
closed = 1;
nodes = (
"84 0 LINE",
"143 337 LINE",
"493 337 LINE",
"498 370 LINE",
"149 370 LINE",
"202 667 LINE",
"588 667 LINE",
"593 700 LINE",
"171 700 LINE",
"48 0 LINE"
);
}
);
};
layerId = "4CEAA5B1-2F28-4CD4-84D3-78B02271F1AF";
paths = (
{
closed = 1;
nodes = (
"84 0 LINE",
"143 337 LINE",
"493 337 LINE",
"498 370 LINE",
"149 370 LINE",
"202 667 LINE",
"588 667 LINE",
"593 700 LINE",
"171 700 LINE",
"48 0 LINE"
);
}
);
width = 562;
}
);
leftMetricsKey = H;
note = F;
unicode = 0046;
},
{
glyphname = G;
lastChange = "2018-06-08 19:33:48 +0000";
layers = (
{
anchors = (
{
name = bottom;
position = "{357, 0}";
},
{
name = top;
position = "{357, 700}";
}
);
background = {
paths = (
{
closed = 1;
nodes = (
"420 -8 LINE SMOOTH",
"572 -8 OFFCURVE",
"674 100 OFFCURVE",
"674 263 CURVE",
"674 321 LINE",
"538 321 LINE",
"538 263 LINE",
"538 174 OFFCURVE",
"491 114 OFFCURVE",
"420 114 CURVE SMOOTH",
"302 114 LINE SMOOTH",
"229 114 OFFCURVE",
"180 174 OFFCURVE",
"180 264 CURVE SMOOTH",
"180 436 LINE SMOOTH",
"180 526 OFFCURVE",
"230 586 OFFCURVE",
"304 586 CURVE SMOOTH",
"416 586 LINE SMOOTH",
"485 586 OFFCURVE",
"532 538 OFFCURVE",
"532 466 CURVE",
"668 466 LINE",
"668 611 OFFCURVE",
"567 708 OFFCURVE",
"416 708 CURVE SMOOTH",
"304 708 LINE SMOOTH",
"147 708 OFFCURVE",
"42 602 OFFCURVE",
"42 442 CURVE SMOOTH",
"42 258 LINE SMOOTH",
"42 98 OFFCURVE",
"146 -8 OFFCURVE",
"302 -8 CURVE SMOOTH"
);
},
{
closed = 1;
nodes = (
"674 265 LINE",
"674 385 LINE",
"344 385 LINE",
"344 265 LINE"
);
}
);
};
layerId = "EA06CE92-4115-4482-8874-2441C279E756";
paths = (
{
closed = 1;
nodes = (
"420 -8 LINE SMOOTH",
"570 -8 OFFCURVE",
"674 96 OFFCURVE",
"674 243 CURVE SMOOTH",
"674 301 LINE",
"538 301 LINE",
"538 243 LINE SMOOTH",
"538 170 OFFCURVE",
"489 114 OFFCURVE",
"420 114 CURVE SMOOTH",
"302 114 LINE SMOOTH",
"229 114 OFFCURVE",
"180 174 OFFCURVE",
"180 264 CURVE SMOOTH",
"180 436 LINE SMOOTH",
"180 526 OFFCURVE",
"230 586 OFFCURVE",
"304 586 CURVE SMOOTH",
"416 586 LINE SMOOTH",
"485 586 OFFCURVE",
"532 538 OFFCURVE",
"532 466 CURVE",
"668 466 LINE",
"668 611 OFFCURVE",
"567 708 OFFCURVE",
"416 708 CURVE SMOOTH",
"304 708 LINE SMOOTH",
"147 708 OFFCURVE",
"42 602 OFFCURVE",
"42 442 CURVE SMOOTH",
"42 258 LINE SMOOTH",
"42 98 OFFCURVE",
"146 -8 OFFCURVE",
"302 -8 CURVE SMOOTH"
);
},
{
closed = 1;
nodes = (
"674 265 LINE",
"674 385 LINE",
"344 385 LINE",
"344 265 LINE"
);
}
);
width = 712;
},
{
anchors = (
{
name = bottom;
position = "{339, 0}";
},
{
name = top;
position = "{339, 700}";
}
);
background = {
paths = (
{
closed = 1;
nodes = (
"391 -8 LINE SMOOTH",
"515 -8 OFFCURVE",
"602 80 OFFCURVE",
"602 213 CURVE SMOOTH",
"602 324 LINE",
"567 324 LINE",
"567 213 LINE SMOOTH",
"567 100 OFFCURVE",
"494 25 OFFCURVE",
"391 25 CURVE SMOOTH",
"283 25 LINE SMOOTH",
"181 25 OFFCURVE",
"108 109 OFFCURVE",
"108 235 CURVE SMOOTH",
"108 465 LINE SMOOTH",
"108 591 OFFCURVE",
"183 675 OFFCURVE",
"287 675 CURVE SMOOTH",
"393 675 LINE SMOOTH",
"493 675 OFFCURVE",
"562 606 OFFCURVE",
"562 503 CURVE",
"597 503 LINE",
"597 626 OFFCURVE",
"514 708 OFFCURVE",
"393 708 CURVE SMOOTH",
"287 708 LINE SMOOTH",
"161 708 OFFCURVE",
"72 611 OFFCURVE",
"72 465 CURVE SMOOTH",
"72 235 LINE SMOOTH",
"72 89 OFFCURVE",
"159 -8 OFFCURVE",
"283 -8 CURVE SMOOTH"
);
},
{
closed = 1;
nodes = (
"602 314 LINE",
"602 347 LINE",
"364 347 LINE",
"364 314 LINE"
);
}
);
};
layerId = "76C6DC51-463D-4A0C-B694-3EB424048C5D";
paths = (
{
closed = 1;
nodes = (
"390 -8 LINE SMOOTH",
"517 -8 OFFCURVE",
"602 80 OFFCURVE",
"602 213 CURVE SMOOTH",
"602 324 LINE",
"567 324 LINE",
"567 213 LINE SMOOTH",
"567 100 OFFCURVE",
"496 25 OFFCURVE",
"390 25 CURVE SMOOTH",
"282 25 LINE SMOOTH",
"178 25 OFFCURVE",
"108 109 OFFCURVE",
"108 235 CURVE SMOOTH",
"108 465 LINE SMOOTH",
"108 591 OFFCURVE",
"179 675 OFFCURVE",
"286 675 CURVE SMOOTH",
"392 675 LINE SMOOTH",
"494 675 OFFCURVE",
"562 606 OFFCURVE",
"562 503 CURVE",
"597 503 LINE",
"597 626 OFFCURVE",
"515 708 OFFCURVE",
"392 708 CURVE SMOOTH",
"286 708 LINE SMOOTH",
"158 708 OFFCURVE",
"72 611 OFFCURVE",
"72 465 CURVE SMOOTH",
"72 235 LINE SMOOTH",
"72 89 OFFCURVE",
"156 -8 OFFCURVE",
"282 -8 CURVE SMOOTH"
);
},
{
closed = 1;
nodes = (
"602 314 LINE",
"602 347 LINE",
"364 347 LINE",
"364 314 LINE"
);
}
);
width = 670;
},
{
anchors = (
{
name = bottom;
position = "{346, 0}";
},
{
name = top;
position = "{346, 700}";
}
);
background = {
paths = (
{
closed = 1;
nodes = (
"397 -8 LINE SMOOTH",
"536 -8 OFFCURVE",
"628 90 OFFCURVE",
"628 236 CURVE SMOOTH",
"628 304 LINE",
"556 304 LINE",
"556 236 LINE SMOOTH",
"556 129 OFFCURVE",
"492 58 OFFCURVE",
"397 58 CURVE SMOOTH",
"289 58 LINE SMOOTH",
"195 58 OFFCURVE",
"134 133 OFFCURVE",
"134 246 CURVE SMOOTH",
"134 454 LINE SMOOTH",
"134 567 OFFCURVE",
"198 642 OFFCURVE",
"294 642 CURVE SMOOTH",
"400 642 LINE SMOOTH",
"491 642 OFFCURVE",
"551 579 OFFCURVE",
"551 484 CURVE",
"623 484 LINE",
"623 618 OFFCURVE",
"534 708 OFFCURVE",
"400 708 CURVE SMOOTH",
"294 708 LINE SMOOTH",
"154 708 OFFCURVE",
"60 606 OFFCURVE",
"60 454 CURVE SMOOTH",
"60 246 LINE SMOOTH",
"60 94 OFFCURVE",
"150 -8 OFFCURVE",
"289 -8 CURVE SMOOTH"
);
},
{
closed = 1;
nodes = (
"628 296 LINE",
"628 361 LINE",
"362 361 LINE",
"362 296 LINE"
);
}
);
};
layerId = "BB270C98-E610-4AC3-8B1B-9C54875E1C66";
paths = (
{
closed = 1;
nodes = (
"397 -8 LINE SMOOTH",
"536 -8 OFFCURVE",
"628 90 OFFCURVE",
"628 236 CURVE SMOOTH",
"628 304 LINE",
"556 304 LINE",
"556 236 LINE SMOOTH",
"556 129 OFFCURVE",
"492 58 OFFCURVE",
"397 58 CURVE SMOOTH",
"289 58 LINE SMOOTH",
"195 58 OFFCURVE",
"134 133 OFFCURVE",
"134 246 CURVE SMOOTH",
"134 454 LINE SMOOTH",
"134 567 OFFCURVE",
"198 642 OFFCURVE",
"294 642 CURVE SMOOTH",
"400 642 LINE SMOOTH",
"491 642 OFFCURVE",
"551 579 OFFCURVE",
"551 484 CURVE",
"623 484 LINE",
"623 618 OFFCURVE",
"534 708 OFFCURVE",
"400 708 CURVE SMOOTH",
"294 708 LINE SMOOTH",
"154 708 OFFCURVE",
"60 606 OFFCURVE",
"60 454 CURVE SMOOTH",
"60 246 LINE SMOOTH",
"60 94 OFFCURVE",
"150 -8 OFFCURVE",
"289 -8 CURVE SMOOTH"
);
},
{
closed = 1;
nodes = (
"628 296 LINE",
"628 361 LINE",
"362 361 LINE",
"362 296 LINE"
);
}
);
width = 684;
},
{
anchors = (
{
name = bottom;
position = "{313, 0}";
},
{
name = top;
position = "{436, 700}";
}
);
background = {
paths = (
{
closed = 1;
nodes = (
"391 -8 LINE SMOOTH",
"540 -8 OFFCURVE",
"645 85 OFFCURVE",
"673 243 CURVE SMOOTH",
"698 385 LINE",
"368 385 LINE",
"347 265 LINE",
"541 265 LINE",
"537 243 LINE SMOOTH",
"522 162 OFFCURVE",
"470 114 OFFCURVE",
"397 114 CURVE SMOOTH",
"279 114 LINE SMOOTH",
"205 114 OFFCURVE",
"167 174 OFFCURVE",
"183 264 CURVE SMOOTH",
"213 436 LINE SMOOTH",
"229 530 OFFCURVE",
"286 586 OFFCURVE",
"364 586 CURVE SMOOTH",
"475 586 LINE SMOOTH",
"544 586 OFFCURVE",
"582 538 OFFCURVE",
"570 466 CURVE",
"706 466 LINE",
"730 609 OFFCURVE",
"639 708 OFFCURVE",
"481 708 CURVE SMOOTH",
"370 708 LINE SMOOTH",
"214 708 OFFCURVE",
"105 609 OFFCURVE",
"76 442 CURVE SMOOTH",
"44 258 LINE SMOOTH",
"16 98 OFFCURVE",
"108 -8 OFFCURVE",
"273 -8 CURVE SMOOTH"
);
}
);
};
layerId = "6404A7B3-B80B-4413-A1A7-686F7DCA7307";
paths = (
{
closed = 1;
nodes = (
"391 -8 LINE SMOOTH",
"540 -8 OFFCURVE",
"645 85 OFFCURVE",
"673 243 CURVE SMOOTH",
"698 385 LINE",
"368 385 LINE",
"347 265 LINE",
"541 265 LINE",
"537 243 LINE SMOOTH",
"522 162 OFFCURVE",
"470 114 OFFCURVE",
"397 114 CURVE SMOOTH",
"279 114 LINE SMOOTH",
"205 114 OFFCURVE",
"167 174 OFFCURVE",
"183 264 CURVE SMOOTH",
"213 436 LINE SMOOTH",
"229 530 OFFCURVE",
"286 586 OFFCURVE",
"364 586 CURVE SMOOTH",
"475 586 LINE SMOOTH",
"544 586 OFFCURVE",
"582 538 OFFCURVE",
"570 466 CURVE",
"706 466 LINE",
"730 609 OFFCURVE",
"639 708 OFFCURVE",
"481 708 CURVE SMOOTH",
"370 708 LINE SMOOTH",
"214 708 OFFCURVE",
"105 609 OFFCURVE",
"76 442 CURVE SMOOTH",
"44 258 LINE SMOOTH",
"16 98 OFFCURVE",
"108 -8 OFFCURVE",
"273 -8 CURVE SMOOTH"
);
}
);
width = 712;
},
{
anchors = (
{
name = bottom;
position = "{302, 0}";
},
{
name = top;
position = "{425, 700}";
}
);
background = {
paths = (
{
closed = 1;
nodes = (
"361 -8 LINE SMOOTH",
"500 -8 OFFCURVE",
"598 83 OFFCURVE",
"625 236 CURVE SMOOTH",
"637 304 LINE",
"565 304 LINE",
"553 236 LINE SMOOTH",
"533 124 OFFCURVE",
"462 58 OFFCURVE",
"363 58 CURVE SMOOTH",
"255 58 LINE SMOOTH",
"162 58 OFFCURVE",
"113 133 OFFCURVE",
"133 246 CURVE SMOOTH",
"170 454 LINE SMOOTH",
"191 572 OFFCURVE",
"263 642 OFFCURVE",
"363 642 CURVE SMOOTH",
"469 642 LINE SMOOTH",
"560 642 OFFCURVE",
"609 579 OFFCURVE",
"592 484 CURVE",
"664 484 LINE",
"688 618 OFFCURVE",
"610 708 OFFCURVE",
"470 708 CURVE SMOOTH",
"364 708 LINE SMOOTH",
"224 708 OFFCURVE",
"124 614 OFFCURVE",
"96 454 CURVE SMOOTH",
"59 246 LINE SMOOTH",
"32 96 OFFCURVE",
"112 -8 OFFCURVE",
"253 -8 CURVE SMOOTH"
);
},
{
closed = 1;
nodes = (
"636 296 LINE",
"647 361 LINE",
"381 361 LINE",
"370 296 LINE"
);
}
);
};
layerId = "A26C2DC2-6E9D-4E0E-A939-3EF723D8B45B";
paths = (
{
closed = 1;
nodes = (
"361 -8 LINE SMOOTH",
"501 -8 OFFCURVE",
"599 83 OFFCURVE",
"626 236 CURVE SMOOTH",
"648 361 LINE",
"381 361 LINE",
"370 296 LINE",
"565 296 LINE",
"554 236 LINE SMOOTH",
"533 124 OFFCURVE",
"462 58 OFFCURVE",
"363 58 CURVE SMOOTH",
"255 58 LINE SMOOTH",
"162 58 OFFCURVE",
"113 133 OFFCURVE",
"133 246 CURVE SMOOTH",
"170 454 LINE SMOOTH",
"191 572 OFFCURVE",
"263 642 OFFCURVE",
"363 642 CURVE SMOOTH",
"469 642 LINE SMOOTH",
"560 642 OFFCURVE",
"609 579 OFFCURVE",
"592 484 CURVE",
"664 484 LINE",
"688 618 OFFCURVE",
"610 708 OFFCURVE",
"470 708 CURVE SMOOTH",
"364 708 LINE SMOOTH",
"224 708 OFFCURVE",
"124 614 OFFCURVE",
"96 454 CURVE SMOOTH",
"59 246 LINE SMOOTH",
"32 96 OFFCURVE",
"112 -8 OFFCURVE",
"253 -8 CURVE SMOOTH"
);
}
);
width = 684;
},
{
anchors = (
{
name = bottom;
position = "{295, 0}";
},
{
name = top;
position = "{418, 700}";
}
);
background = {
paths = (
{
closed = 1;
nodes = (
"350 -8 LINE SMOOTH",
"479 -8 OFFCURVE",
"570 74 OFFCURVE",
"595 213 CURVE SMOOTH",
"615 324 LINE",
"580 324 LINE",
"560 213 LINE SMOOTH",
"539 95 OFFCURVE",
"461 25 OFFCURVE",
"350 25 CURVE SMOOTH",
"242 25 LINE SMOOTH",
"137 25 OFFCURVE",
"82 109 OFFCURVE",
"105 235 CURVE SMOOTH",
"146 465 LINE SMOOTH",
"169 597 OFFCURVE",
"249 675 OFFCURVE",
"361 675 CURVE SMOOTH",
"467 675 LINE SMOOTH",
"569 675 OFFCURVE",
"624 606 OFFCURVE",
"606 503 CURVE",
"641 503 LINE",
"663 626 OFFCURVE",
"591 708 OFFCURVE",
"467 708 CURVE SMOOTH",
"361 708 LINE SMOOTH",
"230 708 OFFCURVE",
"137 618 OFFCURVE",
"110 465 CURVE SMOOTH",
"69 235 LINE SMOOTH",
"43 89 OFFCURVE",
"112 -8 OFFCURVE",
"242 -8 CURVE SMOOTH"
);
},
{
closed = 1;
nodes = (
"613 314 LINE",
"619 347 LINE",
"381 347 LINE",
"375 314 LINE"
);
}
);
};
layerId = "4CEAA5B1-2F28-4CD4-84D3-78B02271F1AF";
paths = (
{
closed = 1;
nodes = (
"350 -8 LINE SMOOTH",
"479 -8 OFFCURVE",
"570 74 OFFCURVE",
"595 213 CURVE SMOOTH",
"619 347 LINE",
"381 347 LINE",
"375 314 LINE",
"578 314 LINE",
"560 213 LINE SMOOTH",
"539 95 OFFCURVE",
"461 25 OFFCURVE",
"350 25 CURVE SMOOTH",
"242 25 LINE SMOOTH",
"137 25 OFFCURVE",
"82 109 OFFCURVE",
"105 235 CURVE SMOOTH",
"146 465 LINE SMOOTH",
"169 597 OFFCURVE",
"249 675 OFFCURVE",
"361 675 CURVE SMOOTH",
"467 675 LINE SMOOTH",
"569 675 OFFCURVE",
"624 606 OFFCURVE",
"606 503 CURVE",
"641 503 LINE",
"663 626 OFFCURVE",
"591 708 OFFCURVE",
"467 708 CURVE SMOOTH",
"361 708 LINE SMOOTH",
"230 708 OFFCURVE",
"137 618 OFFCURVE",
"110 465 CURVE SMOOTH",
"69 235 LINE SMOOTH",
"43 89 OFFCURVE",
"112 -8 OFFCURVE",
"242 -8 CURVE SMOOTH"
);
}
);
width = 670;
}
);
leftKerningGroup = O;
leftMetricsKey = O;
note = G;
rightKerningGroup = G;
unicode = 0047;
},
{
glyphname = H;
lastChange = "2018-06-07 19:53:40 +0000";
layers = (
{
anchors = (
{
name = bottom;
position = "{359, 0}";
},
{
name = center;
position = "{359, 350}";
},
{
name = top;
position = "{359, 700}";
},
{
name = topleft;
position = "{39, 700}";
}
);
background = {
paths = (
{
closed = 1;
nodes = (
"200 0 LINE",
"200 290 LINE",
"526 290 LINE",
"526 0 LINE",
"664 0 LINE",
"664 700 LINE",
"526 700 LINE",
"526 412 LINE",
"200 412 LINE",
"200 700 LINE",
"62 700 LINE",
"62 0 LINE"
);
}
);
};
layerId = "EA06CE92-4115-4482-8874-2441C279E756";
paths = (
{
closed = 1;
nodes = (
"200 0 LINE",
"200 291 LINE",
"526 291 LINE",
"526 0 LINE",
"664 0 LINE",
"664 700 LINE",
"526 700 LINE",
"526 411 LINE",
"200 411 LINE",
"200 700 LINE",
"62 700 LINE",
"62 0 LINE"
);
}
);
width = 726;
},
{
anchors = (
{
name = bottom;
position = "{338, 0}";
},
{
name = center;
position = "{338, 350}";
},
{
name = top;
position = "{338, 700}";
},
{
name = topleft;
position = "{341, 590}";
}
);
background = {
paths = (
{
closed = 1;
nodes = (
"128 0 LINE",
"128 338 LINE",
"550 338 LINE",
"550 0 LINE",
"585 0 LINE",
"585 700 LINE",
"550 700 LINE",
"550 370 LINE",
"128 370 LINE",
"128 700 LINE",
"92 700 LINE",
"92 0 LINE"
);
}
);
};
layerId = "76C6DC51-463D-4A0C-B694-3EB424048C5D";
paths = (
{
closed = 1;
nodes = (
"128 0 LINE",
"128 337 LINE",
"549 337 LINE",
"549 0 LINE",
"585 0 LINE",
"585 700 LINE",
"549 700 LINE",
"549 370 LINE",
"128 370 LINE",
"128 700 LINE",
"92 700 LINE",
"92 0 LINE"
);
}
);
width = 677;
},
{
anchors = (
{
name = bottom;
position = "{347, 0}";
},
{
name = center;
position = "{345, 350}";
},
{
name = top;
position = "{345, 700}";
},
{
name = topleft;
position = "{227, 631}";
}
);
layerId = "BB270C98-E610-4AC3-8B1B-9C54875E1C66";
paths = (
{
closed = 1;
nodes = (
"154 0 LINE",
"154 320 LINE",
"540 320 LINE",
"540 0 LINE",
"614 0 LINE",
"614 700 LINE",
"540 700 LINE",
"540 386 LINE",
"154 386 LINE",
"154 700 LINE",
"80 700 LINE",
"80 0 LINE"
);
}
);
width = 694;
},
{
anchors = (
{
name = bottom;
position = "{315, 0}";
},
{
name = center;
position = "{377, 350}";
},
{
name = top;
position = "{438, 700}";
},
{
name = topleft;
position = "{118, 700}";
}
);
background = {
paths = (
{
closed = 1;
nodes = (
"156 0 LINE",
"207 291 LINE",
"533 291 LINE",
"482 0 LINE",
"620 0 LINE",
"743 700 LINE",
"605 700 LINE",
"554 411 LINE",
"228 411 LINE",
"279 700 LINE",
"141 700 LINE",
"18 0 LINE"
);
}
);
};
layerId = "6404A7B3-B80B-4413-A1A7-686F7DCA7307";
paths = (
{
closed = 1;
nodes = (
"156 0 LINE",
"207 291 LINE",
"533 291 LINE",
"482 0 LINE",
"620 0 LINE",
"743 700 LINE",
"605 700 LINE",
"554 411 LINE",
"228 411 LINE",
"279 700 LINE",
"141 700 LINE",
"18 0 LINE"
);
}
);
width = 726;
},
{
anchors = (
{
name = bottom;
position = "{303, 0}";
},
{
name = center;
position = "{363, 350}";
},
{
name = top;
position = "{424, 700}";
},
{
name = topleft;
position = "{338, 631}";
}
);
layerId = "A26C2DC2-6E9D-4E0E-A939-3EF723D8B45B";
paths = (
{
closed = 1;
nodes = (
"110 0 LINE",
"166 320 LINE",
"552 320 LINE",
"496 0 LINE",
"570 0 LINE",
"693 700 LINE",
"619 700 LINE",
"564 386 LINE",
"178 386 LINE",
"233 700 LINE",
"159 700 LINE",
"36 0 LINE"
);
}
);
width = 694;
},
{
anchors = (
{
name = bottom;
position = "{294, 0}";
},
{
name = center;
position = "{356, 350}";
},
{
name = top;
position = "{417, 700}";
},
{
name = topleft;
position = "{401, 590}";
}
);
background = {
anchors = (
{
name = bottom;
position = "{338, 0}";
},
{
name = center;
position = "{400, 350}";
},
{
name = top;
position = "{461, 700}";
},
{
name = topleft;
position = "{445, 590}";
}
);
paths = (
{
closed = 1;
nodes = (
"84 0 LINE",
"143 337 LINE",
"564 337 LINE",
"505 0 LINE",
"541 0 LINE",
"664 700 LINE",
"628 700 LINE",
"570 370 LINE",
"149 370 LINE",
"207 700 LINE",
"171 700 LINE",
"48 0 LINE"
);
}
);
};
layerId = "4CEAA5B1-2F28-4CD4-84D3-78B02271F1AF";
paths = (
{
closed = 1;
nodes = (
"84 0 LINE",
"143 337 LINE",
"564 337 LINE",
"505 0 LINE",
"541 0 LINE",
"664 700 LINE",
"628 700 LINE",
"570 370 LINE",
"149 370 LINE",
"207 700 LINE",
"171 700 LINE",
"48 0 LINE"
);
}
);
width = 677;
}
);
note = H;
rightMetricsKey = "=|";
unicode = 0048;
},
{
glyphname = I;
lastChange = "2018-06-07 14:06:04 +0000";
layers = (
{
anchors = (
{
name = bottom;
position = "{135, 0}";
},
{
name = ogonek;
position = "{204, 0}";
},
{
name = top;
position = "{135, 700}";
},
{
name = topleft;
position = "{41, 700}";
}
);
background = {
paths = (
{
closed = 1;
nodes = (
"204 0 LINE",
"204 700 LINE",
"66 700 LINE",
"66 0 LINE"
);
}
);
};
layerId = "EA06CE92-4115-4482-8874-2441C279E756";
paths = (
{
closed = 1;
nodes = (
"204 0 LINE",
"204 700 LINE",
"66 700 LINE",
"66 0 LINE"
);
}
);
width = 270;
},
{
anchors = (
{
name = bottom;
position = "{114, 0}";
},
{
name = ogonek;
position = "{132, 0}";
},
{
name = top;
position = "{114, 700}";
},
{
name = topleft;
position = "{22, 700}";
}
);
layerId = "76C6DC51-463D-4A0C-B694-3EB424048C5D";
paths = (
{
closed = 1;
nodes = (
"132 0 LINE",
"132 700 LINE",
"96 700 LINE",
"96 0 LINE"
);
}
);
width = 228;
},
{
anchors = (
{
name = bottom;
position = "{121, 0}";
},
{
name = ogonek;
position = "{158, 0}";
},
{
name = top;
position = "{121, 700}";
},
{
name = topleft;
position = "{29, 700}";
}
);
layerId = "BB270C98-E610-4AC3-8B1B-9C54875E1C66";
paths = (
{
closed = 1;
nodes = (
"158 0 LINE",
"158 700 LINE",
"84 700 LINE",
"84 0 LINE"
);
}
);
width = 242;
},
{
anchors = (
{
name = bottom;
position = "{91, 0}";
},
{
name = ogonek;
position = "{160, 0}";
},
{
name = top;
position = "{214, 700}";
},
{
name = topleft;
position = "{120, 700}";
}
);
background = {
paths = (
{
closed = 1;
nodes = (
"160 0 LINE",
"283 700 LINE",
"145 700 LINE",
"22 0 LINE"
);
}
);
};
layerId = "6404A7B3-B80B-4413-A1A7-686F7DCA7307";
paths = (
{
closed = 1;
nodes = (
"160 0 LINE",
"283 700 LINE",
"145 700 LINE",
"22 0 LINE"
);
}
);
width = 270;
},
{
anchors = (
{
name = bottom;
position = "{77, 0}";
},
{
name = ogonek;
position = "{114, 0}";
},
{
name = top;
position = "{200, 700}";
},
{
name = topleft;
position = "{108, 700}";
}
);
layerId = "A26C2DC2-6E9D-4E0E-A939-3EF723D8B45B";
paths = (
{
closed = 1;
nodes = (
"114 0 LINE",
"237 700 LINE",
"163 700 LINE",
"40 0 LINE"
);
}
);
width = 242;
},
{
anchors = (
{
name = bottom;
position = "{70, 0}";
},
{
name = ogonek;
position = "{88, 0}";
},
{
name = top;
position = "{193, 700}";
},
{
name = topleft;
position = "{101, 700}";
}
);
background = {
anchors = (
{
name = bottom;
position = "{70, 0}";
},
{
name = ogonek;
position = "{88, 0}";
},
{
name = top;
position = "{193, 700}";
},
{
name = topleft;
position = "{101, 700}";
}
);
paths = (
{
closed = 1;
nodes = (
"88 0 LINE",
"211 700 LINE",
"175 700 LINE",
"52 0 LINE"
);
}
);
};
layerId = "4CEAA5B1-2F28-4CD4-84D3-78B02271F1AF";
paths = (
{
closed = 1;
nodes = (
"88 0 LINE",
"211 700 LINE",
"175 700 LINE",
"52 0 LINE"
);
}
);
width = 228;
}
);
note = I;
rightMetricsKey = "=|";
unicode = 0049;
},
{
glyphname = J;
lastChange = "2018-06-07 14:30:59 +0000";
layers = (
{
anchors = (
{
name = bottom;
position = "{276, 0}";
},
{
name = top;
position = "{480, 700}";
}
);
background = {
paths = (
{
closed = 1;
nodes = (
"321 -6 LINE SMOOTH",
"459 -6 OFFCURVE",
"551 101 OFFCURVE",
"551 262 CURVE SMOOTH",
"551 700 LINE",
"413 700 LINE",
"413 262 LINE SMOOTH",
"413 174 OFFCURVE",
"376 116 OFFCURVE",
"321 116 CURVE SMOOTH",
"244 116 LINE SMOOTH",
"189 116 OFFCURVE",
"152 172 OFFCURVE",
"152 257 CURVE",
"16 257 LINE",
"16 99 OFFCURVE",
"107 -6 OFFCURVE",
"244 -6 CURVE SMOOTH"
);
}
);
};
layerId = "EA06CE92-4115-4482-8874-2441C279E756";
paths = (
{
closed = 1;
nodes = (
"327 -8 LINE SMOOTH",
"461 -8 OFFCURVE",
"551 93 OFFCURVE",
"551 244 CURVE SMOOTH",
"551 700 LINE",
"413 700 LINE",
"413 250 LINE SMOOTH",
"413 168 OFFCURVE",
"376 114 OFFCURVE",
"321 114 CURVE SMOOTH",
"244 114 LINE SMOOTH",
"189 114 OFFCURVE",
"152 166 OFFCURVE",
"152 245 CURVE",
"16 245 LINE",
"16 93 OFFCURVE",
"107 -8 OFFCURVE",
"244 -8 CURVE SMOOTH"
);
}
);
width = 605;
},
{
anchors = (
{
name = bottom;
position = "{256, 0}";
},
{
name = top;
position = "{461, 700}";
}
);
background = {
paths = (
{
closed = 1;
nodes = (
"310 -8 LINE SMOOTH",
"417 -8 OFFCURVE",
"480 75 OFFCURVE",
"480 215 CURVE SMOOTH",
"480 700 LINE",
"444 700 LINE",
"444 215 LINE SMOOTH",
"444 96 OFFCURVE",
"394 25 OFFCURVE",
"310 25 CURVE SMOOTH",
"217 25 LINE SMOOTH",
"137 25 OFFCURVE",
"82 94 OFFCURVE",
"82 197 CURVE",
"46 197 LINE",
"46 74 OFFCURVE",
"116 -8 OFFCURVE",
"217 -8 CURVE SMOOTH"
);
}
);
};
layerId = "76C6DC51-463D-4A0C-B694-3EB424048C5D";
paths = (
{
closed = 1;
nodes = (
"309 -8 LINE SMOOTH",
"416 -8 OFFCURVE",
"480 75 OFFCURVE",
"480 215 CURVE SMOOTH",
"480 700 LINE",
"444 700 LINE",
"444 215 LINE SMOOTH",
"444 96 OFFCURVE",
"393 25 OFFCURVE",
"309 25 CURVE SMOOTH",
"216 25 LINE SMOOTH",
"136 25 OFFCURVE",
"82 94 OFFCURVE",
"82 197 CURVE",
"46 197 LINE",
"46 74 OFFCURVE",
"115 -8 OFFCURVE",
"216 -8 CURVE SMOOTH"
);
}
);
width = 564;
},
{
anchors = (
{
name = bottom;
position = "{263, 0}";
},
{
name = top;
position = "{469, 700}";
}
);
layerId = "BB270C98-E610-4AC3-8B1B-9C54875E1C66";
paths = (
{
closed = 1;
nodes = (
"312 -8 LINE SMOOTH",
"434 -8 OFFCURVE",
"506 81 OFFCURVE",
"506 232 CURVE SMOOTH",
"506 700 LINE",
"432 700 LINE",
"432 232 LINE SMOOTH",
"432 123 OFFCURVE",
"387 58 OFFCURVE",
"312 58 CURVE SMOOTH",
"225 58 LINE SMOOTH",
"155 58 OFFCURVE",
"108 122 OFFCURVE",
"108 219 CURVE",
"34 219 LINE",
"34 83 OFFCURVE",
"110 -8 OFFCURVE",
"225 -8 CURVE SMOOTH"
);
}
);
width = 578;
},
{
anchors = (
{
name = bottom;
position = "{232, 0}";
},
{
name = top;
position = "{559, 700}";
}
);
background = {
paths = (
{
closed = 1;
nodes = (
"281 -8 LINE SMOOTH",
"414 -8 OFFCURVE",
"523 91 OFFCURVE",
"550 244 CURVE SMOOTH",
"630 700 LINE",
"492 700 LINE",
"413 250 LINE SMOOTH",
"399 168 OFFCURVE",
"351 114 OFFCURVE",
"297 114 CURVE SMOOTH",
"220 114 LINE SMOOTH",
"166 114 OFFCURVE",
"137 166 OFFCURVE",
"151 245 CURVE",
"15 245 LINE",
"-12 93 OFFCURVE",
"61 -8 OFFCURVE",
"198 -8 CURVE SMOOTH"
);
}
);
};
layerId = "6404A7B3-B80B-4413-A1A7-686F7DCA7307";
paths = (
{
closed = 1;
nodes = (
"296 -8 LINE SMOOTH",
"428 -8 OFFCURVE",
"522 86 OFFCURVE",
"550 244 CURVE SMOOTH",
"630 700 LINE",
"492 700 LINE",
"413 250 LINE SMOOTH",
"398 165 OFFCURVE",
"355 114 OFFCURVE",
"297 114 CURVE SMOOTH",
"220 114 LINE SMOOTH",
"165 114 OFFCURVE",
"137 166 OFFCURVE",
"151 245 CURVE",
"15 245 LINE",
"-12 93 OFFCURVE",
"71 -8 OFFCURVE",
"213 -8 CURVE SMOOTH"
);
}
);
width = 605;
},
{
anchors = (
{
name = bottom;
position = "{219, 0}";
},
{
name = top;
position = "{549, 700}";
}
);
layerId = "A26C2DC2-6E9D-4E0E-A939-3EF723D8B45B";
paths = (
{
closed = 1;
nodes = (
"279 -8 LINE SMOOTH",
"401 -8 OFFCURVE",
"475 81 OFFCURVE",
"502 232 CURVE SMOOTH",
"585 700 LINE",
"511 700 LINE",
"428 232 LINE SMOOTH",
"409 123 OFFCURVE",
"353 58 OFFCURVE",
"279 58 CURVE SMOOTH",
"192 58 LINE SMOOTH",
"122 58 OFFCURVE",
"86 122 OFFCURVE",
"103 219 CURVE",
"29 219 LINE",
"5 83 OFFCURVE",
"78 -8 OFFCURVE",
"192 -8 CURVE SMOOTH"
);
}
);
width = 578;
},
{
anchors = (
{
name = bottom;
position = "{212, 0}";
},
{
name = top;
position = "{541, 700}";
}
);
background = {
anchors = (
{
name = bottom;
position = "{212, 0}";
},
{
name = top;
position = "{541, 700}";
}
);
paths = (
{
closed = 1;
nodes = (
"269 -8 LINE SMOOTH",
"374 -8 OFFCURVE",
"448 73 OFFCURVE",
"473 215 CURVE SMOOTH",
"559 700 LINE",
"523 700 LINE",
"437 215 LINE SMOOTH",
"416 96 OFFCURVE",
"354 25 OFFCURVE",
"269 25 CURVE SMOOTH",
"176 25 LINE SMOOTH",
"96 25 OFFCURVE",
"55 94 OFFCURVE",
"73 197 CURVE",
"37 197 LINE",
"15 74 OFFCURVE",
"76 -8 OFFCURVE",
"176 -8 CURVE SMOOTH"
);
}
);
};
layerId = "4CEAA5B1-2F28-4CD4-84D3-78B02271F1AF";
paths = (
{
closed = 1;
nodes = (
"269 -8 LINE SMOOTH",
"374 -8 OFFCURVE",
"448 73 OFFCURVE",
"473 215 CURVE SMOOTH",
"559 700 LINE",
"523 700 LINE",
"437 215 LINE SMOOTH",
"416 96 OFFCURVE",
"354 25 OFFCURVE",
"269 25 CURVE SMOOTH",
"176 25 LINE SMOOTH",
"96 25 OFFCURVE",
"55 94 OFFCURVE",
"73 197 CURVE",
"37 197 LINE",
"15 74 OFFCURVE",
"76 -8 OFFCURVE",
"176 -8 CURVE SMOOTH"
);
}
);
width = 564;
}
);
note = J;
rightKerningGroup = J;
unicode = 004A;
},
{
glyphname = K;
lastChange = "2018-06-07 14:30:46 +0000";
layers = (
{
anchors = (
{
name = bottom;
position = "{337, 0}";
},
{
name = top;
position = "{345, 700}";
}
);
background = {
paths = (
{
closed = 1;
nodes = (
"202 0 LINE",
"202 222 LINE",
"650 700 LINE",
"475 700 LINE",
"202 402 LINE",
"202 700 LINE",
"64 700 LINE",
"64 0 LINE"
);
},
{
closed = 1;
nodes = (
"668 0 LINE",
"340 421 LINE",
"215 360 LINE",
"498 0 LINE"
);
}
);
};
layerId = "EA06CE92-4115-4482-8874-2441C279E756";
paths = (
{
closed = 1;
nodes = (
"200 0 LINE",
"200 222 LINE",
"648 700 LINE",
"478 700 LINE",
"200 398 LINE",
"200 700 LINE",
"62 700 LINE",
"62 0 LINE"
);
},
{
closed = 1;
nodes = (
"666 0 LINE",
"338 421 LINE",
"215 360 LINE",
"498 0 LINE"
);
}
);
width = 674;
},
{
anchors = (
{
name = bottom;
position = "{312, 0}";
},
{
name = top;
position = "{324, 700}";
}
);
background = {
paths = (
{
closed = 1;
nodes = (
"128 0 LINE",
"128 254 LINE",
"550 700 LINE",
"505 700 LINE",
"128 296 LINE",
"128 700 LINE",
"92 700 LINE",
"92 0 LINE"
);
},
{
closed = 1;
nodes = (
"568 0 LINE",
"261 378 LINE",
"226 362 LINE",
"522 0 LINE"
);
}
);
};
layerId = "76C6DC51-463D-4A0C-B694-3EB424048C5D";
paths = (
{
closed = 1;
nodes = (
"128 0 LINE",
"128 254 LINE",
"550 700 LINE",
"502 700 LINE",
"128 304 LINE",
"128 700 LINE",
"92 700 LINE",
"92 0 LINE"
);
},
{
closed = 1;
nodes = (
"568 0 LINE",
"253 388 LINE",
"218 372 LINE",
"522 0 LINE"
);
}
);
width = 606;
},
{
anchors = (
{
name = bottom;
position = "{323, 0}";
},
{
name = top;
position = "{331, 700}";
}
);
layerId = "BB270C98-E610-4AC3-8B1B-9C54875E1C66";
paths = (
{
closed = 1;
nodes = (
"154 0 LINE",
"154 242 LINE",
"586 700 LINE",
"494 700 LINE",
"154 334 LINE",
"154 700 LINE",
"80 700 LINE",
"80 0 LINE"
);
},
{
closed = 1;
nodes = (
"604 0 LINE",
"289 394 LINE",
"221 361 LINE",
"512 0 LINE"
);
}
);
width = 630;
},
{
anchors = (
{
name = bottom;
position = "{293, 0}";
},
{
name = top;
position = "{424, 700}";
}
);
background = {
paths = (
{
closed = 1;
nodes = (
"156 0 LINE",
"195 222 LINE",
"727 700 LINE",
"550 700 LINE",
"227 405 LINE",
"279 700 LINE",
"141 700 LINE",
"18 0 LINE"
);
},
{
closed = 1;
nodes = (
"622 0 LINE",
"368 421 LINE",
"244 360 LINE",
"464 0 LINE"
);
}
);
};
layerId = "6404A7B3-B80B-4413-A1A7-686F7DCA7307";
paths = (
{
closed = 1;
nodes = (
"156 0 LINE",
"195 222 LINE",
"727 700 LINE",
"550 700 LINE",
"227 405 LINE",
"279 700 LINE",
"141 700 LINE",
"18 0 LINE"
);
},
{
closed = 1;
nodes = (
"622 0 LINE",
"368 421 LINE",
"244 360 LINE",
"464 0 LINE"
);
}
);
width = 674;
},
{
anchors = (
{
name = bottom;
position = "{279, 0}";
},
{
name = top;
position = "{410, 700}";
}
);
background = {
paths = (
{
closed = 1;
nodes = (
"110 0 LINE",
"153 242 LINE",
"665 700 LINE",
"573 700 LINE",
"169 334 LINE",
"233 700 LINE",
"159 700 LINE",
"36 0 LINE"
);
},
{
closed = 1;
nodes = (
"560 0 LINE",
"314 394 LINE",
"241 361 LINE",
"468 0 LINE"
);
}
);
};
layerId = "A26C2DC2-6E9D-4E0E-A939-3EF723D8B45B";
paths = (
{
closed = 1;
nodes = (
"110 0 LINE",
"153 242 LINE",
"665 700 LINE",
"568 700 LINE",
"170 339 LINE",
"233 700 LINE",
"159 700 LINE",
"36 0 LINE"
);
},
{
closed = 1;
nodes = (
"560 0 LINE",
"314 394 LINE",
"246 361 LINE",
"473 0 LINE"
);
}
);
width = 630;
},
{
anchors = (
{
name = bottom;
position = "{268, 0}";
},
{
name = top;
position = "{403, 700}";
}
);
background = {
anchors = (
{
name = bottom;
position = "{268, 0}";
},
{
name = top;
position = "{403, 700}";
}
);
paths = (
{
closed = 1;
nodes = (
"84 0 LINE",
"129 254 LINE",
"629 700 LINE",
"580 700 LINE",
"139 308 LINE",
"207 700 LINE",
"171 700 LINE",
"48 0 LINE"
);
},
{
closed = 1;
nodes = (
"524 0 LINE",
"277 388 LINE",
"244 372 LINE",
"482 0 LINE"
);
}
);
};
layerId = "4CEAA5B1-2F28-4CD4-84D3-78B02271F1AF";
paths = (
{
closed = 1;
nodes = (
"84 0 LINE",
"129 254 LINE",
"629 700 LINE",
"580 700 LINE",
"139 308 LINE",
"207 700 LINE",
"171 700 LINE",
"48 0 LINE"
);
},
{
closed = 1;
nodes = (
"524 0 LINE",
"277 388 LINE",
"244 372 LINE",
"482 0 LINE"
);
}
);
width = 606;
}
);
leftMetricsKey = H;
note = K;
rightKerningGroup = K;
unicode = 004B;
},
{
glyphname = L;
lastChange = "2018-06-07 14:13:40 +0000";
layers = (
{
anchors = (
{
name = bottom;
position = "{326, 0}";
},
{
name = center;
position = "{294, 350}";
},
{
name = top;
position = "{131, 700}";
},
{
name = topright;
position = "{550, 700}";
}
);
background = {
paths = (
{
closed = 1;
nodes = (
"580 0 LINE",
"580 122 LINE",
"200 122 LINE",
"200 700 LINE",
"62 700 LINE",
"62 93 LINE SMOOTH",
"62 37 OFFCURVE",
"100 0 OFFCURVE",
"159 0 CURVE SMOOTH"
);
}
);
};
layerId = "EA06CE92-4115-4482-8874-2441C279E756";
paths = (
{
closed = 1;
nodes = (
"580 0 LINE",
"580 120 LINE",
"200 120 LINE",
"200 700 LINE",
"62 700 LINE",
"62 93 LINE SMOOTH",
"62 37 OFFCURVE",
"100 0 OFFCURVE",
"159 0 CURVE SMOOTH"
);
}
);
width = 588;
},
{
anchors = (
{
name = bottom;
position = "{307, 0}";
},
{
name = center;
position = "{273, 350}";
},
{
name = top;
position = "{110, 700}";
},
{
name = topright;
position = "{529, 700}";
}
);
background = {
paths = (
{
closed = 1;
nodes = (
"508 0 LINE",
"508 32 LINE",
"128 32 LINE",
"128 700 LINE",
"92 700 LINE",
"92 48 LINE SMOOTH",
"92 16 OFFCURVE",
"108 0 OFFCURVE",
"138 0 CURVE SMOOTH"
);
}
);
};
layerId = "76C6DC51-463D-4A0C-B694-3EB424048C5D";
paths = (
{
closed = 1;
nodes = (
"508 0 LINE",
"508 33 LINE",
"128 33 LINE",
"128 700 LINE",
"92 700 LINE",
"92 39 LINE SMOOTH",
"92 14 OFFCURVE",
"105 0 OFFCURVE",
"128 0 CURVE SMOOTH"
);
}
);
width = 546;
},
{
anchors = (
{
name = bottom;
position = "{310, 0}";
},
{
name = center;
position = "{280, 350}";
},
{
name = top;
position = "{117, 700}";
},
{
name = topright;
position = "{536, 700}";
}
);
background = {
paths = (
{
closed = 1;
nodes = (
"534 0 LINE",
"534 66 LINE",
"154 66 LINE",
"154 700 LINE",
"80 700 LINE",
"80 65 LINE SMOOTH",
"80 24 OFFCURVE",
"104 0 OFFCURVE",
"145 0 CURVE SMOOTH"
);
}
);
};
layerId = "BB270C98-E610-4AC3-8B1B-9C54875E1C66";
paths = (
{
closed = 1;
nodes = (
"534 0 LINE",
"534 66 LINE",
"154 66 LINE",
"154 700 LINE",
"80 700 LINE",
"80 65 LINE SMOOTH",
"80 24 OFFCURVE",
"104 0 OFFCURVE",
"145 0 CURVE SMOOTH"
);
}
);
width = 560;
},
{
anchors = (
{
name = bottom;
position = "{282, 0}";
},
{
name = center;
position = "{311, 350}";
},
{
name = top;
position = "{210, 700}";
},
{
name = topright;
position = "{629, 700}";
}
);
background = {
paths = (
{
closed = 1;
nodes = (
"536 0 LINE",
"557 120 LINE",
"177 120 LINE",
"279 700 LINE",
"141 700 LINE",
"34 93 LINE SMOOTH",
"24 37 OFFCURVE",
"55 0 OFFCURVE",
"115 0 CURVE SMOOTH"
);
}
);
};
layerId = "6404A7B3-B80B-4413-A1A7-686F7DCA7307";
paths = (
{
closed = 1;
nodes = (
"536 0 LINE",
"557 120 LINE",
"177 120 LINE",
"279 700 LINE",
"141 700 LINE",
"34 93 LINE SMOOTH",
"24 37 OFFCURVE",
"55 0 OFFCURVE",
"115 0 CURVE SMOOTH"
);
}
);
width = 588;
},
{
anchors = (
{
name = bottom;
position = "{266, 0}";
},
{
name = center;
position = "{297, 350}";
},
{
name = top;
position = "{196, 700}";
},
{
name = topright;
position = "{615, 700}";
}
);
background = {
paths = (
{
closed = 1;
nodes = (
"490 0 LINE",
"501 66 LINE",
"121 66 LINE",
"233 700 LINE",
"159 700 LINE",
"47 65 LINE SMOOTH",
"40 24 OFFCURVE",
"60 0 OFFCURVE",
"101 0 CURVE SMOOTH"
);
}
);
};
layerId = "A26C2DC2-6E9D-4E0E-A939-3EF723D8B45B";
paths = (
{
closed = 1;
nodes = (
"490 0 LINE",
"501 66 LINE",
"121 66 LINE",
"233 700 LINE",
"159 700 LINE",
"47 65 LINE SMOOTH",
"40 24 OFFCURVE",
"60 0 OFFCURVE",
"101 0 CURVE SMOOTH"
);
}
);
width = 560;
},
{
anchors = (
{
name = bottom;
position = "{263, 0}";
},
{
name = center;
position = "{291, 350}";
},
{
name = top;
position = "{190, 700}";
},
{
name = topright;
position = "{609, 700}";
}
);
background = {
anchors = (
{
name = bottom;
position = "{263, 0}";
},
{
name = center;
position = "{291, 350}";
},
{
name = top;
position = "{190, 700}";
},
{
name = topright;
position = "{609, 700}";
}
);
paths = (
{
closed = 1;
nodes = (
"464 0 LINE",
"470 33 LINE",
"90 33 LINE",
"208 700 LINE",
"172 700 LINE",
"55 39 LINE SMOOTH",
"51 14 OFFCURVE",
"61 0 OFFCURVE",
"84 0 CURVE SMOOTH"
);
}
);
};
layerId = "4CEAA5B1-2F28-4CD4-84D3-78B02271F1AF";
paths = (
{
closed = 1;
nodes = (
"464 0 LINE",
"470 33 LINE",
"90 33 LINE",
"208 700 LINE",
"172 700 LINE",
"55 39 LINE SMOOTH",
"51 14 OFFCURVE",
"61 0 OFFCURVE",
"84 0 CURVE SMOOTH"
);
}
);
width = 546;
}
);
leftKerningGroup = E;
leftMetricsKey = H;
note = L;
rightKerningGroup = L;
unicode = 004C;
},
{
glyphname = M;
lastChange = "2018-06-07 14:03:46 +0000";
layers = (
{
anchors = (
{
name = bottom;
position = "{413, 0}";
},
{
name = top;
position = "{414, 700}";
}
);
background = {
paths = (
{
closed = 1;
nodes = (
"197 0 LINE",
"197 443 LINE",
"375 127 LINE",
"413 127 LINE SMOOTH",
"440 127 OFFCURVE",
"459 141 OFFCURVE",
"479 177 CURVE SMOOTH",
"626 443 LINE",
"626 0 LINE",
"761 0 LINE",
"761 700 LINE",
"638 700 LINE",
"414 284 LINE",
"185 700 LINE",
"62 700 LINE",
"62 0 LINE"
);
}
);
};
layerId = "EA06CE92-4115-4482-8874-2441C279E756";
paths = (
{
closed = 1;
nodes = (
"197 0 LINE",
"197 443 LINE",
"375 127 LINE",
"413 127 LINE SMOOTH",
"440 127 OFFCURVE",
"459 141 OFFCURVE",
"479 177 CURVE SMOOTH",
"626 443 LINE",
"626 0 LINE",
"761 0 LINE",
"761 700 LINE",
"638 700 LINE",
"414 284 LINE",
"185 700 LINE",
"62 700 LINE",
"62 0 LINE"
);
}
);
width = 823;
},
{
anchors = (
{
name = bottom;
position = "{391, 0}";
},
{
name = top;
position = "{391, 700}";
}
);
background = {
paths = (
{
closed = 1;
nodes = (
"127 0 LINE",
"127 631 LINE",
"385 153 LINE",
"397 153 LINE SMOOTH",
"403 153 OFFCURVE",
"406 157 OFFCURVE",
"410 164 CURVE SMOOTH",
"654 631 LINE",
"654 0 LINE",
"689 0 LINE",
"689 700 LINE",
"651 700 LINE",
"394 204 LINE",
"130 700 LINE",
"92 700 LINE",
"92 0 LINE"
);
}
);
};
layerId = "76C6DC51-463D-4A0C-B694-3EB424048C5D";
paths = (
{
closed = 1;
nodes = (
"127 0 LINE",
"127 631 LINE",
"385 153 LINE",
"397 153 LINE SMOOTH",
"403 153 OFFCURVE",
"406 157 OFFCURVE",
"410 164 CURVE SMOOTH",
"654 631 LINE",
"654 0 LINE",
"689 0 LINE",
"689 700 LINE",
"651 700 LINE",
"394 204 LINE",
"130 700 LINE",
"92 700 LINE",
"92 0 LINE"
);
}
);
width = 781;
},
{
anchors = (
{
name = bottom;
position = "{398, 0}";
},
{
name = top;
position = "{399, 700}";
}
);
layerId = "BB270C98-E610-4AC3-8B1B-9C54875E1C66";
paths = (
{
closed = 1;
nodes = (
"153 0 LINE",
"153 562 LINE",
"381 143 LINE",
"403 143 LINE SMOOTH",
"417 143 OFFCURVE",
"426 152 OFFCURVE",
"440 178 CURVE SMOOTH",
"642 562 LINE",
"642 0 LINE",
"715 0 LINE",
"715 700 LINE",
"644 700 LINE",
"401 235 LINE",
"151 700 LINE",
"80 700 LINE",
"80 0 LINE"
);
}
);
width = 795;
},
{
anchors = (
{
name = bottom;
position = "{369, 0}";
},
{
name = top;
position = "{493, 700}";
}
);
background = {
paths = (
{
closed = 1;
nodes = (
"153 0 LINE",
"231 443 LINE",
"353 127 LINE",
"391 127 LINE SMOOTH",
"420 127 OFFCURVE",
"441 143 OFFCURVE",
"466 177 CURVE SMOOTH",
"660 443 LINE",
"582 0 LINE",
"717 0 LINE",
"840 700 LINE",
"717 700 LINE",
"420 284 LINE",
"264 700 LINE",
"141 700 LINE",
"18 0 LINE"
);
}
);
};
layerId = "6404A7B3-B80B-4413-A1A7-686F7DCA7307";
paths = (
{
closed = 1;
nodes = (
"153 0 LINE",
"231 443 LINE",
"353 127 LINE",
"391 127 LINE SMOOTH",
"420 127 OFFCURVE",
"441 143 OFFCURVE",
"466 177 CURVE SMOOTH",
"660 443 LINE",
"582 0 LINE",
"717 0 LINE",
"840 700 LINE",
"709 700 LINE",
"412 284 LINE",
"256 700 LINE",
"141 700 LINE",
"18 0 LINE"
);
}
);
width = 823;
},
{
anchors = (
{
name = bottom;
position = "{354, 0}";
},
{
name = top;
position = "{478, 700}";
}
);
background = {
paths = (
{
closed = 1;
nodes = (
"109 0 LINE",
"208 562 LINE",
"362 143 LINE",
"384 143 LINE SMOOTH",
"399 143 OFFCURVE",
"410 154 OFFCURVE",
"427 178 CURVE SMOOTH",
"697 562 LINE",
"598 0 LINE",
"671 0 LINE",
"794 700 LINE",
"723 700 LINE",
"398 235 LINE",
"230 700 LINE",
"159 700 LINE",
"36 0 LINE"
);
}
);
};
layerId = "A26C2DC2-6E9D-4E0E-A939-3EF723D8B45B";
paths = (
{
closed = 1;
nodes = (
"109 0 LINE",
"208 562 LINE",
"362 143 LINE",
"384 143 LINE SMOOTH",
"399 143 OFFCURVE",
"410 154 OFFCURVE",
"427 178 CURVE SMOOTH",
"697 562 LINE",
"598 0 LINE",
"671 0 LINE",
"794 700 LINE",
"718 700 LINE",
"393 235 LINE",
"225 700 LINE",
"159 700 LINE",
"36 0 LINE"
);
}
);
width = 795;
},
{
anchors = (
{
name = bottom;
position = "{347, 0}";
},
{
name = top;
position = "{470, 700}";
}
);
background = {
anchors = (
{
name = bottom;
position = "{347, 0}";
},
{
name = top;
position = "{470, 700}";
}
);
paths = (
{
closed = 1;
nodes = (
"83 0 LINE",
"194 631 LINE",
"368 153 LINE",
"380 153 LINE SMOOTH",
"386 153 OFFCURVE",
"390 157 OFFCURVE",
"395 164 CURVE SMOOTH",
"721 631 LINE",
"610 0 LINE",
"645 0 LINE",
"768 700 LINE",
"727 700 LINE",
"383 204 LINE",
"206 700 LINE",
"171 700 LINE",
"48 0 LINE"
);
}
);
};
layerId = "4CEAA5B1-2F28-4CD4-84D3-78B02271F1AF";
paths = (
{
closed = 1;
nodes = (
"83 0 LINE",
"194 631 LINE",
"368 153 LINE",
"380 153 LINE SMOOTH",
"386 153 OFFCURVE",
"390 157 OFFCURVE",
"395 164 CURVE SMOOTH",
"721 631 LINE",
"610 0 LINE",
"645 0 LINE",
"768 700 LINE",
"727 700 LINE",
"383 204 LINE",
"206 700 LINE",
"171 700 LINE",
"48 0 LINE"
);
}
);
width = 781;
}
);
leftMetricsKey = H;
note = M;
rightMetricsKey = "=|";
unicode = 004D;
},
{
glyphname = N;
lastChange = "2018-06-07 14:27:36 +0000";
layers = (
{
anchors = (
{
name = bottom;
position = "{359, 0}";
},
{
name = top;
position = "{359, 700}";
}
);
background = {
paths = (
{
closed = 1;
nodes = (
"202 0 LINE",
"202 470 LINE",
"538 0 LINE",
"658 0 LINE",
"658 700 LINE",
"520 700 LINE",
"520 230 LINE",
"184 700 LINE",
"64 700 LINE",
"64 0 LINE"
);
}
);
};
layerId = "EA06CE92-4115-4482-8874-2441C279E756";
paths = (
{
closed = 1;
nodes = (
"197 0 LINE",
"197 476 LINE",
"533 0 LINE",
"656 0 LINE",
"656 700 LINE",
"521 700 LINE",
"521 224 LINE",
"185 700 LINE",
"62 700 LINE",
"62 0 LINE"
);
}
);
width = 718;
},
{
anchors = (
{
name = bottom;
position = "{338, 0}";
},
{
name = top;
position = "{338, 700}";
}
);
background = {
paths = (
{
closed = 1;
nodes = (
"126 0 LINE",
"126 643 LINE",
"549 0 LINE",
"584 0 LINE",
"584 700 LINE",
"549 700 LINE",
"549 57 LINE",
"127 700 LINE",
"92 700 LINE",
"92 0 LINE"
);
}
);
};
layerId = "76C6DC51-463D-4A0C-B694-3EB424048C5D";
paths = (
{
closed = 1;
nodes = (
"126 0 LINE",
"126 643 LINE",
"547 0 LINE",
"584 0 LINE",
"584 700 LINE",
"549 700 LINE",
"549 57 LINE",
"129 700 LINE",
"92 700 LINE",
"92 0 LINE"
);
}
);
width = 676;
},
{
anchors = (
{
name = bottom;
position = "{346, 0}";
},
{
name = top;
position = "{345, 700}";
}
);
layerId = "BB270C98-E610-4AC3-8B1B-9C54875E1C66";
paths = (
{
closed = 1;
nodes = (
"152 0 LINE",
"152 579 LINE",
"540 0 LINE",
"610 0 LINE",
"610 700 LINE",
"538 700 LINE",
"538 117 LINE",
"150 700 LINE",
"80 700 LINE",
"80 0 LINE"
);
}
);
width = 690;
},
{
anchors = (
{
name = bottom;
position = "{315, 0}";
},
{
name = top;
position = "{438, 700}";
}
);
background = {
paths = (
{
closed = 1;
nodes = (
"153 0 LINE",
"237 476 LINE",
"489 0 LINE",
"612 0 LINE",
"735 700 LINE",
"600 700 LINE",
"516 224 LINE",
"264 700 LINE",
"141 700 LINE",
"18 0 LINE"
);
}
);
};
layerId = "6404A7B3-B80B-4413-A1A7-686F7DCA7307";
paths = (
{
closed = 1;
nodes = (
"153 0 LINE",
"237 476 LINE",
"495 0 LINE",
"612 0 LINE",
"735 700 LINE",
"600 700 LINE",
"516 224 LINE",
"258 700 LINE",
"141 700 LINE",
"18 0 LINE"
);
}
);
width = 718;
},
{
anchors = (
{
name = bottom;
position = "{302, 0}";
},
{
name = top;
position = "{424, 700}";
}
);
background = {
paths = (
{
closed = 1;
nodes = (
"108 0 LINE",
"210 579 LINE",
"496 0 LINE",
"566 0 LINE",
"689 700 LINE",
"617 700 LINE",
"515 117 LINE",
"229 700 LINE",
"159 700 LINE",
"36 0 LINE"
);
}
);
};
layerId = "A26C2DC2-6E9D-4E0E-A939-3EF723D8B45B";
paths = (
{
closed = 1;
nodes = (
"108 0 LINE",
"210 580 LINE",
"500 0 LINE",
"566 0 LINE",
"689 700 LINE",
"617 700 LINE",
"515 116 LINE",
"225 700 LINE",
"159 700 LINE",
"36 0 LINE"
);
}
);
width = 690;
},
{
anchors = (
{
name = bottom;
position = "{294, 0}";
},
{
name = top;
position = "{417, 700}";
}
);
background = {
anchors = (
{
name = bottom;
position = "{294, 0}";
},
{
name = top;
position = "{417, 700}";
}
);
paths = (
{
closed = 1;
nodes = (
"82 0 LINE",
"195 643 LINE",
"506 0 LINE",
"540 0 LINE",
"663 700 LINE",
"628 700 LINE",
"515 57 LINE",
"205 700 LINE",
"171 700 LINE",
"48 0 LINE"
);
}
);
};
layerId = "4CEAA5B1-2F28-4CD4-84D3-78B02271F1AF";
paths = (
{
closed = 1;
nodes = (
"82 0 LINE",
"195 643 LINE",
"506 0 LINE",
"540 0 LINE",
"663 700 LINE",
"628 700 LINE",
"515 57 LINE",
"205 700 LINE",
"171 700 LINE",
"48 0 LINE"
);
}
);
width = 676;
}
);
leftMetricsKey = H;
note = N;
rightMetricsKey = "=|";
unicode = 004E;
},
{
glyphname = O;
lastChange = "2018-06-07 20:37:44 +0000";
layers = (
{
anchors = (
{
name = bottom;
position = "{362, 0}";
},
{
name = center;
position = "{362, 350}";
},
{
name = ogonek;
position = "{640, 10}";
},
{
name = top;
position = "{362, 700}";
},
{
name = topleft;
position = "{28, 700}";
},
{
name = topright;
position = "{667, 411}";
}
);
background = {
paths = (
{
closed = 1;
nodes = (
"415 -6 LINE SMOOTH",
"575 -6 OFFCURVE",
"682 101 OFFCURVE",
"682 262 CURVE SMOOTH",
"682 438 LINE SMOOTH",
"682 599 OFFCURVE",
"575 706 OFFCURVE",
"415 706 CURVE SMOOTH",
"309 706 LINE SMOOTH",
"149 706 OFFCURVE",
"42 599 OFFCURVE",
"42 438 CURVE SMOOTH",
"42 262 LINE SMOOTH",
"42 101 OFFCURVE",
"149 -6 OFFCURVE",
"309 -6 CURVE SMOOTH"
);
},
{
closed = 1;
nodes = (
"232 116 OFFCURVE",
"180 177 OFFCURVE",
"180 268 CURVE SMOOTH",
"180 432 LINE SMOOTH",
"180 523 OFFCURVE",
"232 584 OFFCURVE",
"309 584 CURVE SMOOTH",
"415 584 LINE SMOOTH",
"492 584 OFFCURVE",
"544 523 OFFCURVE",
"544 432 CURVE SMOOTH",
"544 268 LINE SMOOTH",
"544 177 OFFCURVE",
"492 116 OFFCURVE",
"415 116 CURVE SMOOTH",
"309 116 LINE SMOOTH"
);
}
);
};
layerId = "EA06CE92-4115-4482-8874-2441C279E756";
paths = (
{
closed = 1;
nodes = (
"415 -8 LINE SMOOTH",
"575 -8 OFFCURVE",
"682 99 OFFCURVE",
"682 260 CURVE SMOOTH",
"682 440 LINE SMOOTH",
"682 601 OFFCURVE",
"575 708 OFFCURVE",
"415 708 CURVE SMOOTH",
"309 708 LINE SMOOTH",
"149 708 OFFCURVE",
"42 601 OFFCURVE",
"42 440 CURVE SMOOTH",
"42 260 LINE SMOOTH",
"42 99 OFFCURVE",
"149 -8 OFFCURVE",
"309 -8 CURVE SMOOTH"
);
},
{
closed = 1;
nodes = (
"232 114 OFFCURVE",
"180 175 OFFCURVE",
"180 266 CURVE SMOOTH",
"180 434 LINE SMOOTH",
"180 525 OFFCURVE",
"232 586 OFFCURVE",
"309 586 CURVE SMOOTH",
"415 586 LINE SMOOTH",
"492 586 OFFCURVE",
"544 525 OFFCURVE",
"544 434 CURVE SMOOTH",
"544 266 LINE SMOOTH",
"544 175 OFFCURVE",
"492 114 OFFCURVE",
"415 114 CURVE SMOOTH",
"309 114 LINE SMOOTH"
);
}
);
width = 724;
},
{
anchors = (
{
name = bottom;
position = "{341, 0}";
},
{
name = center;
position = "{338, 350}";
},
{
name = ogonek;
position = "{619, 10}";
},
{
name = top;
position = "{341, 700}";
},
{
name = topleft;
position = "{7, 700}";
},
{
name = topright;
position = "{601, 390}";
}
);
background = {
paths = (
{
closed = 1;
nodes = (
"393 -9 LINE SMOOTH",
"523 -9 OFFCURVE",
"610 86 OFFCURVE",
"610 228 CURVE SMOOTH",
"610 472 LINE SMOOTH",
"610 614 OFFCURVE",
"523 709 OFFCURVE",
"393 709 CURVE SMOOTH",
"289 709 LINE SMOOTH",
"159 709 OFFCURVE",
"72 614 OFFCURVE",
"72 472 CURVE SMOOTH",
"72 228 LINE SMOOTH",
"72 86 OFFCURVE",
"159 -9 OFFCURVE",
"289 -9 CURVE SMOOTH"
);
},
{
closed = 1;
nodes = (
"181 24 OFFCURVE",
"108 106 OFFCURVE",
"108 228 CURVE SMOOTH",
"108 472 LINE SMOOTH",
"108 594 OFFCURVE",
"181 676 OFFCURVE",
"291 676 CURVE SMOOTH",
"391 676 LINE SMOOTH",
"501 676 OFFCURVE",
"574 594 OFFCURVE",
"574 472 CURVE SMOOTH",
"574 228 LINE SMOOTH",
"574 106 OFFCURVE",
"501 24 OFFCURVE",
"391 24 CURVE SMOOTH",
"291 24 LINE SMOOTH"
);
}
);
};
layerId = "76C6DC51-463D-4A0C-B694-3EB424048C5D";
paths = (
{
closed = 1;
nodes = (
"391 -8 LINE SMOOTH",
"522 -8 OFFCURVE",
"610 87 OFFCURVE",
"610 229 CURVE SMOOTH",
"610 471 LINE SMOOTH",
"610 613 OFFCURVE",
"523 708 OFFCURVE",
"392 708 CURVE SMOOTH",
"290 708 LINE SMOOTH",
"159 708 OFFCURVE",
"72 613 OFFCURVE",
"72 471 CURVE SMOOTH",
"72 229 LINE SMOOTH",
"72 87 OFFCURVE",
"158 -8 OFFCURVE",
"289 -8 CURVE SMOOTH"
);
},
{
closed = 1;
nodes = (
"180 25 OFFCURVE",
"108 107 OFFCURVE",
"108 229 CURVE SMOOTH",
"108 471 LINE SMOOTH",
"108 593 OFFCURVE",
"181 675 OFFCURVE",
"290 675 CURVE SMOOTH",
"392 675 LINE SMOOTH",
"501 675 OFFCURVE",
"574 593 OFFCURVE",
"574 471 CURVE SMOOTH",
"574 229 LINE SMOOTH",
"574 107 OFFCURVE",
"500 25 OFFCURVE",
"391 25 CURVE SMOOTH",
"289 25 LINE SMOOTH"
);
}
);
width = 682;
},
{
anchors = (
{
name = bottom;
position = "{348, 0}";
},
{
name = center;
position = "{345, 350}";
},
{
name = ogonek;
position = "{626, 10}";
},
{
name = top;
position = "{348, 700}";
},
{
name = topleft;
position = "{14, 700}";
},
{
name = topright;
position = "{649, 411}";
}
);
layerId = "BB270C98-E610-4AC3-8B1B-9C54875E1C66";
paths = (
{
closed = 1;
nodes = (
"401 -8 LINE SMOOTH",
"541 -8 OFFCURVE",
"636 92 OFFCURVE",
"636 243 CURVE SMOOTH",
"636 457 LINE SMOOTH",
"636 608 OFFCURVE",
"542 708 OFFCURVE",
"401 708 CURVE SMOOTH",
"295 708 LINE SMOOTH",
"154 708 OFFCURVE",
"60 608 OFFCURVE",
"60 457 CURVE SMOOTH",
"60 243 LINE SMOOTH",
"60 92 OFFCURVE",
"154 -8 OFFCURVE",
"294 -8 CURVE SMOOTH"
);
},
{
closed = 1;
nodes = (
"199 58 OFFCURVE",
"134 132 OFFCURVE",
"134 243 CURVE SMOOTH",
"134 457 LINE SMOOTH",
"134 568 OFFCURVE",
"199 642 OFFCURVE",
"297 642 CURVE SMOOTH",
"399 642 LINE SMOOTH",
"497 642 OFFCURVE",
"562 568 OFFCURVE",
"562 457 CURVE SMOOTH",
"562 243 LINE SMOOTH",
"562 132 OFFCURVE",
"496 58 OFFCURVE",
"399 58 CURVE SMOOTH",
"296 58 LINE SMOOTH"
);
}
);
width = 696;
},
{
anchors = (
{
name = bottom;
position = "{331, 0}";
},
{
name = center;
position = "{380, 350}";
},
{
name = ogonek;
position = "{598, 10}";
},
{
name = top;
position = "{442, 700}";
},
{
name = topleft;
position = "{108, 700}";
},
{
name = topright;
position = "{696, 411}";
}
);
background = {
paths = (
{
closed = 1;
nodes = (
"370 -8 LINE SMOOTH",
"531 -8 OFFCURVE",
"655 99 OFFCURVE",
"684 260 CURVE SMOOTH",
"716 440 LINE SMOOTH",
"745 601 OFFCURVE",
"655 708 OFFCURVE",
"496 708 CURVE SMOOTH",
"390 708 LINE SMOOTH",
"230 708 OFFCURVE",
"105 601 OFFCURVE",
"76 440 CURVE SMOOTH",
"44 260 LINE SMOOTH",
"15 99 OFFCURVE",
"105 -8 OFFCURVE",
"264 -8 CURVE SMOOTH"
);
},
{
closed = 1;
nodes = (
"208 114 OFFCURVE",
"167 175 OFFCURVE",
"183 266 CURVE SMOOTH",
"213 434 LINE SMOOTH",
"229 525 OFFCURVE",
"292 586 OFFCURVE",
"368 586 CURVE SMOOTH",
"474 586 LINE SMOOTH",
"551 586 OFFCURVE",
"593 525 OFFCURVE",
"577 434 CURVE SMOOTH",
"547 266 LINE SMOOTH",
"531 175 OFFCURVE",
"467 114 OFFCURVE",
"391 114 CURVE SMOOTH",
"285 114 LINE SMOOTH"
);
}
);
};
layerId = "6404A7B3-B80B-4413-A1A7-686F7DCA7307";
paths = (
{
closed = 1;
nodes = (
"383 -8 LINE SMOOTH",
"547 -8 OFFCURVE",
"655 92 OFFCURVE",
"684 260 CURVE SMOOTH",
"716 440 LINE SMOOTH",
"745 601 OFFCURVE",
"651 708 OFFCURVE",
"480 708 CURVE SMOOTH",
"374 708 LINE SMOOTH",
"212 708 OFFCURVE",
"106 608 OFFCURVE",
"76 440 CURVE SMOOTH",
"44 260 LINE SMOOTH",
"16 101 OFFCURVE",
"111 -8 OFFCURVE",
"277 -8 CURVE SMOOTH"
);
},
{
closed = 1;
nodes = (
"208 114 OFFCURVE",
"167 175 OFFCURVE",
"183 266 CURVE SMOOTH",
"213 434 LINE SMOOTH",
"230 530 OFFCURVE",
"288 586 OFFCURVE",
"368 586 CURVE SMOOTH",
"474 586 LINE SMOOTH",
"552 586 OFFCURVE",
"593 525 OFFCURVE",
"577 434 CURVE SMOOTH",
"547 266 LINE SMOOTH",
"530 170 OFFCURVE",
"472 114 OFFCURVE",
"391 114 CURVE SMOOTH",
"285 114 LINE SMOOTH"
);
}
);
width = 724;
},
{
anchors = (
{
name = bottom;
position = "{315, 0}";
},
{
name = center;
position = "{363, 350}";
},
{
name = ogonek;
position = "{584, 10}";
},
{
name = top;
position = "{428, 700}";
},
{
name = topleft;
position = "{94, 700}";
},
{
name = topright;
position = "{678, 411}";
}
);
background = {
paths = (
{
closed = 1;
nodes = (
"367 -8 LINE SMOOTH",
"509 -8 OFFCURVE",
"607 83 OFFCURVE",
"635 243 CURVE SMOOTH",
"673 457 LINE SMOOTH",
"700 608 OFFCURVE",
"619 708 OFFCURVE",
"470 708 CURVE SMOOTH",
"364 708 LINE SMOOTH",
"223 708 OFFCURVE",
"124 615 OFFCURVE",
"97 457 CURVE SMOOTH",
"59 243 LINE SMOOTH",
"33 94 OFFCURVE",
"114 -8 OFFCURVE",
"260 -8 CURVE SMOOTH"
);
},
{
closed = 1;
nodes = (
"165 58 OFFCURVE",
"113 132 OFFCURVE",
"133 243 CURVE SMOOTH",
"171 457 LINE SMOOTH",
"192 573 OFFCURVE",
"264 642 OFFCURVE",
"366 642 CURVE SMOOTH",
"468 642 LINE SMOOTH",
"567 642 OFFCURVE",
"619 568 OFFCURVE",
"599 457 CURVE SMOOTH",
"561 243 LINE SMOOTH",
"540 127 OFFCURVE",
"467 58 OFFCURVE",
"365 58 CURVE SMOOTH",
"262 58 LINE SMOOTH"
);
}
);
};
layerId = "A26C2DC2-6E9D-4E0E-A939-3EF723D8B45B";
paths = (
{
closed = 1;
nodes = (
"367 -8 LINE SMOOTH",
"509 -8 OFFCURVE",
"607 83 OFFCURVE",
"635 243 CURVE SMOOTH",
"673 457 LINE SMOOTH",
"700 608 OFFCURVE",
"619 708 OFFCURVE",
"470 708 CURVE SMOOTH",
"364 708 LINE SMOOTH",
"223 708 OFFCURVE",
"124 615 OFFCURVE",
"97 457 CURVE SMOOTH",
"59 243 LINE SMOOTH",
"33 94 OFFCURVE",
"114 -8 OFFCURVE",
"260 -8 CURVE SMOOTH"
);
},
{
closed = 1;
nodes = (
"165 58 OFFCURVE",
"113 132 OFFCURVE",
"133 243 CURVE SMOOTH",
"171 457 LINE SMOOTH",
"192 573 OFFCURVE",
"264 642 OFFCURVE",
"366 642 CURVE SMOOTH",
"468 642 LINE SMOOTH",
"567 642 OFFCURVE",
"619 568 OFFCURVE",
"599 457 CURVE SMOOTH",
"561 243 LINE SMOOTH",
"540 127 OFFCURVE",
"467 58 OFFCURVE",
"365 58 CURVE SMOOTH",
"262 58 LINE SMOOTH"
);
}
);
width = 696;
},
{
anchors = (
{
name = bottom;
position = "{300, 0}";
},
{
name = center;
position = "{355, 350}";
},
{
name = ogonek;
position = "{576, 10}";
},
{
name = top;
position = "{420, 700}";
},
{
name = topleft;
position = "{86, 700}";
},
{
name = topright;
position = "{625, 390}";
}
);
background = {
anchors = (
{
name = bottom;
position = "{297, 0}";
},
{
name = center;
position = "{355, 350}";
},
{
name = ogonek;
position = "{576, 10}";
},
{
name = top;
position = "{420, 700}";
},
{
name = topleft;
position = "{86, 700}";
},
{
name = topright;
position = "{625, 390}";
}
);
paths = (
{
closed = 1;
nodes = (
"351 -8 LINE SMOOTH",
"485 -8 OFFCURVE",
"580 80 OFFCURVE",
"606 229 CURVE SMOOTH",
"649 471 LINE SMOOTH",
"674 613 OFFCURVE",
"601 708 OFFCURVE",
"467 708 CURVE SMOOTH",
"365 708 LINE SMOOTH",
"232 708 OFFCURVE",
"137 620 OFFCURVE",
"111 471 CURVE SMOOTH",
"68 229 LINE SMOOTH",
"43 87 OFFCURVE",
"115 -8 OFFCURVE",
"249 -8 CURVE SMOOTH"
);
},
{
closed = 1;
nodes = (
"140 25 OFFCURVE",
"82 107 OFFCURVE",
"104 229 CURVE SMOOTH",
"147 471 LINE SMOOTH",
"170 599 OFFCURVE",
"251 675 OFFCURVE",
"365 675 CURVE SMOOTH",
"467 675 LINE SMOOTH",
"577 675 OFFCURVE",
"635 593 OFFCURVE",
"613 471 CURVE SMOOTH",
"570 229 LINE SMOOTH",
"547 101 OFFCURVE",
"466 25 OFFCURVE",
"351 25 CURVE SMOOTH",
"249 25 LINE SMOOTH"
);
}
);
};
layerId = "4CEAA5B1-2F28-4CD4-84D3-78B02271F1AF";
paths = (
{
closed = 1;
nodes = (
"351 -8 LINE SMOOTH",
"485 -8 OFFCURVE",
"580 80 OFFCURVE",
"606 229 CURVE SMOOTH",
"649 471 LINE SMOOTH",
"674 613 OFFCURVE",
"601 708 OFFCURVE",
"467 708 CURVE SMOOTH",
"365 708 LINE SMOOTH",
"232 708 OFFCURVE",
"137 620 OFFCURVE",
"111 471 CURVE SMOOTH",
"68 229 LINE SMOOTH",
"43 87 OFFCURVE",
"115 -8 OFFCURVE",
"249 -8 CURVE SMOOTH"
);
},
{
closed = 1;
nodes = (
"140 25 OFFCURVE",
"82 107 OFFCURVE",
"104 229 CURVE SMOOTH",
"147 471 LINE SMOOTH",
"170 599 OFFCURVE",
"251 675 OFFCURVE",
"365 675 CURVE SMOOTH",
"467 675 LINE SMOOTH",
"577 675 OFFCURVE",
"635 593 OFFCURVE",
"613 471 CURVE SMOOTH",
"570 229 LINE SMOOTH",
"547 101 OFFCURVE",
"466 25 OFFCURVE",
"351 25 CURVE SMOOTH",
"249 25 LINE SMOOTH"
);
}
);
width = 682;
}
);
leftKerningGroup = O;
note = O;
rightKerningGroup = O;
rightMetricsKey = "=|";
unicode = 004F;
},
{
glyphname = P;
lastChange = "2018-06-07 14:16:25 +0000";
layers = (
{
anchors = (
{
name = bottom;
position = "{335, 0}";
},
{
name = top;
position = "{335, 700}";
}
);
background = {
paths = (
{
closed = 1;
nodes = (
"200 0 LINE",
"200 221 LINE",
"423 221 LINE SMOOTH",
"553 221 OFFCURVE",
"638 300 OFFCURVE",
"638 421 CURVE SMOOTH",
"638 502 LINE SMOOTH",
"638 620 OFFCURVE",
"556 700 OFFCURVE",
"433 700 CURVE SMOOTH",
"62 700 LINE",
"62 0 LINE"
);
},
{
closed = 1;
nodes = (
"200 580 LINE",
"431 580 LINE SMOOTH",
"472 580 OFFCURVE",
"500 549 OFFCURVE",
"500 506 CURVE SMOOTH",
"500 423 LINE SMOOTH",
"500 374 OFFCURVE",
"470 341 OFFCURVE",
"421 341 CURVE SMOOTH",
"200 341 LINE"
);
}
);
};
layerId = "EA06CE92-4115-4482-8874-2441C279E756";
paths = (
{
closed = 1;
nodes = (
"200 0 LINE",
"200 221 LINE",
"423 221 LINE SMOOTH",
"552 221 OFFCURVE",
"638 299 OFFCURVE",
"638 417 CURVE SMOOTH",
"638 510 LINE SMOOTH",
"638 624 OFFCURVE",
"555 700 OFFCURVE",
"431 700 CURVE SMOOTH",
"62 700 LINE",
"62 0 LINE"
);
},
{
closed = 1;
nodes = (
"200 580 LINE",
"429 580 LINE SMOOTH",
"472 580 OFFCURVE",
"500 550 OFFCURVE",
"500 504 CURVE SMOOTH",
"500 423 LINE SMOOTH",
"500 374 OFFCURVE",
"468 341 OFFCURVE",
"421 341 CURVE SMOOTH",
"200 341 LINE"
);
}
);
width = 652;
},
{
anchors = (
{
name = bottom;
position = "{314, 0}";
},
{
name = top;
position = "{314, 700}";
}
);
background = {
paths = (
{
closed = 1;
nodes = (
"128 0 LINE",
"128 293 LINE",
"400 293 LINE SMOOTH",
"500 293 OFFCURVE",
"566 355 OFFCURVE",
"566 448 CURVE SMOOTH",
"566 563 LINE SMOOTH",
"566 645 OFFCURVE",
"504 700 OFFCURVE",
"412 700 CURVE SMOOTH",
"92 700 LINE",
"92 0 LINE"
);
},
{
closed = 1;
nodes = (
"128 667 LINE",
"410 667 LINE SMOOTH",
"482 667 OFFCURVE",
"530 625 OFFCURVE",
"530 563 CURVE SMOOTH",
"530 448 LINE SMOOTH",
"530 375 OFFCURVE",
"477 326 OFFCURVE",
"398 326 CURVE SMOOTH",
"128 326 LINE"
);
}
);
};
layerId = "76C6DC51-463D-4A0C-B694-3EB424048C5D";
paths = (
{
closed = 1;
nodes = (
"128 0 LINE",
"128 293 LINE",
"401 293 LINE SMOOTH",
"500 293 OFFCURVE",
"566 353 OFFCURVE",
"566 444 CURVE SMOOTH",
"566 563 LINE SMOOTH",
"566 645 OFFCURVE",
"504 700 OFFCURVE",
"411 700 CURVE SMOOTH",
"92 700 LINE",
"92 0 LINE"
);
},
{
closed = 1;
nodes = (
"128 667 LINE",
"411 667 LINE SMOOTH",
"482 667 OFFCURVE",
"530 625 OFFCURVE",
"530 563 CURVE SMOOTH",
"530 444 LINE SMOOTH",
"530 373 OFFCURVE",
"478 326 OFFCURVE",
"401 326 CURVE SMOOTH",
"128 326 LINE"
);
}
);
width = 610;
},
{
anchors = (
{
name = bottom;
position = "{321, 0}";
},
{
name = top;
position = "{321, 700}";
}
);
layerId = "BB270C98-E610-4AC3-8B1B-9C54875E1C66";
paths = (
{
closed = 1;
nodes = (
"154 0 LINE",
"154 265 LINE",
"407 265 LINE SMOOTH",
"518 265 OFFCURVE",
"592 334 OFFCURVE",
"592 437 CURVE SMOOTH",
"592 540 LINE SMOOTH",
"592 636 OFFCURVE",
"523 700 OFFCURVE",
"419 700 CURVE SMOOTH",
"80 700 LINE",
"80 0 LINE"
);
},
{
closed = 1;
nodes = (
"154 634 LINE",
"417 634 LINE SMOOTH",
"478 634 OFFCURVE",
"518 597 OFFCURVE",
"518 542 CURVE SMOOTH",
"518 439 LINE SMOOTH",
"518 374 OFFCURVE",
"473 331 OFFCURVE",
"405 331 CURVE SMOOTH",
"154 331 LINE"
);
}
);
width = 624;
},
{
anchors = (
{
name = bottom;
position = "{291, 0}";
},
{
name = top;
position = "{414, 700}";
}
);
background = {
paths = (
{
closed = 1;
nodes = (
"156 0 LINE",
"195 221 LINE",
"418 221 LINE SMOOTH",
"546 221 OFFCURVE",
"648 299 OFFCURVE",
"668 417 CURVE SMOOTH",
"684 510 LINE SMOOTH",
"704 624 OFFCURVE",
"633 700 OFFCURVE",
"510 700 CURVE SMOOTH",
"141 700 LINE",
"18 0 LINE"
);
},
{
closed = 1;
nodes = (
"258 580 LINE",
"487 580 LINE SMOOTH",
"530 580 OFFCURVE",
"553 550 OFFCURVE",
"545 504 CURVE SMOOTH",
"531 423 LINE SMOOTH",
"522 371 OFFCURVE",
"481 341 OFFCURVE",
"437 341 CURVE SMOOTH",
"216 341 LINE"
);
}
);
};
layerId = "6404A7B3-B80B-4413-A1A7-686F7DCA7307";
paths = (
{
closed = 1;
nodes = (
"156 0 LINE",
"195 221 LINE",
"434 221 LINE SMOOTH",
"564 221 OFFCURVE",
"647 294 OFFCURVE",
"668 417 CURVE SMOOTH",
"684 510 LINE SMOOTH",
"704 624 OFFCURVE",
"628 700 OFFCURVE",
"494 700 CURVE SMOOTH",
"141 700 LINE",
"18 0 LINE"
);
},
{
closed = 1;
nodes = (
"258 580 LINE",
"487 580 LINE SMOOTH",
"531 580 OFFCURVE",
"555 550 OFFCURVE",
"546 504 CURVE SMOOTH",
"530 423 LINE SMOOTH",
"521 371 OFFCURVE",
"486 341 OFFCURVE",
"437 341 CURVE SMOOTH",
"216 341 LINE"
);
}
);
width = 652;
},
{
anchors = (
{
name = bottom;
position = "{277, 0}";
},
{
name = top;
position = "{400, 700}";
}
);
background = {
paths = (
{
closed = 1;
nodes = (
"110 0 LINE",
"157 265 LINE",
"410 265 LINE SMOOTH",
"520 265 OFFCURVE",
"607 334 OFFCURVE",
"625 437 CURVE SMOOTH",
"643 540 LINE SMOOTH",
"660 636 OFFCURVE",
"602 700 OFFCURVE",
"498 700 CURVE SMOOTH",
"159 700 LINE",
"36 0 LINE"
);
},
{
closed = 1;
nodes = (
"222 634 LINE",
"485 634 LINE SMOOTH",
"545 634 OFFCURVE",
"580 597 OFFCURVE",
"570 542 CURVE SMOOTH",
"551 439 LINE SMOOTH",
"539 374 OFFCURVE",
"487 331 OFFCURVE",
"419 331 CURVE SMOOTH",
"168 331 LINE"
);
}
);
};
layerId = "A26C2DC2-6E9D-4E0E-A939-3EF723D8B45B";
paths = (
{
closed = 1;
nodes = (
"110 0 LINE",
"157 265 LINE",
"418 265 LINE SMOOTH",
"528 265 OFFCURVE",
"604 329 OFFCURVE",
"624 437 CURVE SMOOTH",
"643 540 LINE SMOOTH",
"661 636 OFFCURVE",
"599 700 OFFCURVE",
"487 700 CURVE SMOOTH",
"159 700 LINE",
"36 0 LINE"
);
},
{
closed = 1;
nodes = (
"222 634 LINE",
"484 634 LINE SMOOTH",
"545 634 OFFCURVE",
"579 597 OFFCURVE",
"569 542 CURVE SMOOTH",
"550 439 LINE SMOOTH",
"537 371 OFFCURVE",
"488 331 OFFCURVE",
"418 331 CURVE SMOOTH",
"168 331 LINE"
);
}
);
width = 624;
},
{
anchors = (
{
name = bottom;
position = "{270, 0}";
},
{
name = top;
position = "{393, 700}";
}
);
background = {
anchors = (
{
name = bottom;
position = "{270, 0}";
},
{
name = top;
position = "{393, 700}";
}
);
paths = (
{
closed = 1;
nodes = (
"84 0 LINE",
"136 293 LINE",
"414 293 LINE SMOOTH",
"514 293 OFFCURVE",
"583 349 OFFCURVE",
"600 444 CURVE SMOOTH",
"621 563 LINE SMOOTH",
"635 645 OFFCURVE",
"581 700 OFFCURVE",
"485 700 CURVE SMOOTH",
"171 700 LINE",
"48 0 LINE"
);
},
{
closed = 1;
nodes = (
"202 667 LINE",
"485 667 LINE SMOOTH",
"556 667 OFFCURVE",
"596 625 OFFCURVE",
"585 563 CURVE SMOOTH",
"564 444 LINE SMOOTH",
"551 370 OFFCURVE",
"496 326 OFFCURVE",
"414 326 CURVE SMOOTH",
"141 326 LINE"
);
}
);
};
layerId = "4CEAA5B1-2F28-4CD4-84D3-78B02271F1AF";
paths = (
{
closed = 1;
nodes = (
"84 0 LINE",
"136 293 LINE",
"414 293 LINE SMOOTH",
"514 293 OFFCURVE",
"583 349 OFFCURVE",
"600 444 CURVE SMOOTH",
"621 563 LINE SMOOTH",
"635 645 OFFCURVE",
"581 700 OFFCURVE",
"485 700 CURVE SMOOTH",
"171 700 LINE",
"48 0 LINE"
);
},
{
closed = 1;
nodes = (
"202 667 LINE",
"485 667 LINE SMOOTH",
"556 667 OFFCURVE",
"596 625 OFFCURVE",
"585 563 CURVE SMOOTH",
"564 444 LINE SMOOTH",
"551 370 OFFCURVE",
"496 326 OFFCURVE",
"414 326 CURVE SMOOTH",
"141 326 LINE"
);
}
);
width = 610;
}
);
leftMetricsKey = H;
note = P;
unicode = 0050;
},
{
glyphname = Q;
lastChange = "2018-06-07 14:36:48 +0000";
layers = (
{
anchors = (
{
name = bottom;
position = "{366, 0}";
},
{
name = top;
position = "{366, 700}";
}
);
background = {
paths = (
{
closed = 1;
nodes = (
"415 -6 LINE SMOOTH",
"555 -6 OFFCURVE",
"682 124 OFFCURVE",
"682 268 CURVE SMOOTH",
"682 432 LINE SMOOTH",
"682 596 OFFCURVE",
"575 706 OFFCURVE",
"415 706 CURVE SMOOTH",
"309 706 LINE SMOOTH",
"149 706 OFFCURVE",
"42 596 OFFCURVE",
"42 432 CURVE SMOOTH",
"42 268 LINE SMOOTH",
"42 104 OFFCURVE",
"149 -6 OFFCURVE",
"309 -6 CURVE SMOOTH"
);
},
{
closed = 1;
nodes = (
"714 43 LINE",
"449 304 LINE",
"362 212 LINE",
"627 -49 LINE"
);
},
{
closed = 1;
nodes = (
"232 116 OFFCURVE",
"180 177 OFFCURVE",
"180 268 CURVE SMOOTH",
"180 432 LINE SMOOTH",
"180 523 OFFCURVE",
"232 584 OFFCURVE",
"309 584 CURVE SMOOTH",
"415 584 LINE SMOOTH",
"492 584 OFFCURVE",
"544 523 OFFCURVE",
"544 432 CURVE SMOOTH",
"544 268 LINE SMOOTH",
"544 187 OFFCURVE",
"482 116 OFFCURVE",
"415 116 CURVE SMOOTH",
"309 116 LINE SMOOTH"
);
}
);
};
layerId = "EA06CE92-4115-4482-8874-2441C279E756";
paths = (
{
closed = 1;
nodes = (
"415 -8 LINE SMOOTH",
"555 -8 OFFCURVE",
"682 124 OFFCURVE",
"682 268 CURVE SMOOTH",
"682 440 LINE SMOOTH",
"682 601 OFFCURVE",
"575 708 OFFCURVE",
"415 708 CURVE SMOOTH",
"309 708 LINE SMOOTH",
"149 708 OFFCURVE",
"42 601 OFFCURVE",
"42 440 CURVE SMOOTH",
"42 260 LINE SMOOTH",
"42 99 OFFCURVE",
"149 -8 OFFCURVE",
"309 -8 CURVE SMOOTH"
);
},
{
closed = 1;
nodes = (
"714 43 LINE",
"449 304 LINE",
"362 212 LINE",
"627 -49 LINE"
);
},
{
closed = 1;
nodes = (
"232 114 OFFCURVE",
"180 175 OFFCURVE",
"180 266 CURVE SMOOTH",
"180 434 LINE SMOOTH",
"180 525 OFFCURVE",
"232 586 OFFCURVE",
"309 586 CURVE SMOOTH",
"415 586 LINE SMOOTH",
"492 586 OFFCURVE",
"544 525 OFFCURVE",
"544 434 CURVE SMOOTH",
"544 268 LINE SMOOTH",
"544 187 OFFCURVE",
"482 114 OFFCURVE",
"415 114 CURVE SMOOTH",
"309 114 LINE SMOOTH"
);
}
);
width = 728;
},
{
anchors = (
{
name = bottom;
position = "{332, 0}";
},
{
name = top;
position = "{332, 700}";
}
);
background = {
paths = (
{
closed = 1;
nodes = (
"393 -9 LINE SMOOTH",
"521 -9 OFFCURVE",
"610 88 OFFCURVE",
"610 228 CURVE SMOOTH",
"610 472 LINE SMOOTH",
"610 614 OFFCURVE",
"523 709 OFFCURVE",
"393 709 CURVE SMOOTH",
"289 709 LINE SMOOTH",
"159 709 OFFCURVE",
"72 614 OFFCURVE",
"72 472 CURVE SMOOTH",
"72 228 LINE SMOOTH",
"72 86 OFFCURVE",
"159 -9 OFFCURVE",
"289 -9 CURVE SMOOTH"
);
},
{
closed = 1;
nodes = (
"632 -8 LINE",
"426 195 LINE",
"403 172 LINE",
"609 -32 LINE"
);
},
{
closed = 1;
nodes = (
"181 24 OFFCURVE",
"108 106 OFFCURVE",
"108 228 CURVE SMOOTH",
"108 472 LINE SMOOTH",
"108 594 OFFCURVE",
"181 676 OFFCURVE",
"291 676 CURVE SMOOTH",
"391 676 LINE SMOOTH",
"501 676 OFFCURVE",
"574 594 OFFCURVE",
"574 472 CURVE SMOOTH",
"574 228 LINE SMOOTH",
"574 106 OFFCURVE",
"501 24 OFFCURVE",
"391 24 CURVE SMOOTH",
"291 24 LINE SMOOTH"
);
}
);
};
layerId = "76C6DC51-463D-4A0C-B694-3EB424048C5D";
paths = (
{
closed = 1;
nodes = (
"393 -7 LINE SMOOTH",
"521 -7 OFFCURVE",
"610 88 OFFCURVE",
"610 228 CURVE SMOOTH",
"610 472 LINE SMOOTH",
"610 614 OFFCURVE",
"523 709 OFFCURVE",
"392 709 CURVE SMOOTH",
"290 709 LINE SMOOTH",
"159 709 OFFCURVE",
"72 614 OFFCURVE",
"72 472 CURVE SMOOTH",
"72 228 LINE SMOOTH",
"72 87 OFFCURVE",
"159 -7 OFFCURVE",
"289 -7 CURVE SMOOTH"
);
},
{
closed = 1;
nodes = (
"632 -8 LINE",
"426 195 LINE",
"403 172 LINE",
"609 -32 LINE"
);
},
{
closed = 1;
nodes = (
"180 26 OFFCURVE",
"108 107 OFFCURVE",
"108 228 CURVE SMOOTH",
"108 472 LINE SMOOTH",
"108 594 OFFCURVE",
"181 676 OFFCURVE",
"290 676 CURVE SMOOTH",
"392 676 LINE SMOOTH",
"501 676 OFFCURVE",
"574 594 OFFCURVE",
"574 472 CURVE SMOOTH",
"574 228 LINE SMOOTH",
"574 106 OFFCURVE",
"501 26 OFFCURVE",
"391 26 CURVE SMOOTH",
"289 26 LINE SMOOTH"
);
}
);
width = 684;
},
{
anchors = (
{
name = bottom;
position = "{344, 0}";
},
{
name = top;
position = "{344, 700}";
}
);
layerId = "BB270C98-E610-4AC3-8B1B-9C54875E1C66";
paths = (
{
closed = 1;
nodes = (
"395 -8 LINE SMOOTH",
"532 -8 OFFCURVE",
"636 99 OFFCURVE",
"636 245 CURVE SMOOTH",
"636 457 LINE SMOOTH",
"636 608 OFFCURVE",
"542 708 OFFCURVE",
"402 708 CURVE SMOOTH",
"296 708 LINE SMOOTH",
"156 708 OFFCURVE",
"60 608 OFFCURVE",
"60 457 CURVE SMOOTH",
"60 243 LINE SMOOTH",
"60 92 OFFCURVE",
"151 -8 OFFCURVE",
"291 -8 CURVE SMOOTH"
);
},
{
closed = 1;
nodes = (
"668 16 LINE",
"440 241 LINE",
"394 193 LINE",
"622 -32 LINE"
);
},
{
closed = 1;
nodes = (
"196 58 OFFCURVE",
"134 132 OFFCURVE",
"134 243 CURVE SMOOTH",
"134 457 LINE SMOOTH",
"134 568 OFFCURVE",
"201 642 OFFCURVE",
"298 642 CURVE SMOOTH",
"400 642 LINE SMOOTH",
"497 642 OFFCURVE",
"562 568 OFFCURVE",
"562 457 CURVE SMOOTH",
"562 245 LINE SMOOTH",
"562 134 OFFCURVE",
"491 58 OFFCURVE",
"393 58 CURVE SMOOTH",
"293 58 LINE SMOOTH"
);
}
);
width = 700;
},
{
anchors = (
{
name = bottom;
position = "{322, 0}";
},
{
name = top;
position = "{446, 700}";
}
);
background = {
paths = (
{
closed = 1;
nodes = (
"370 -8 LINE SMOOTH",
"509 -8 OFFCURVE",
"659 124 OFFCURVE",
"685 268 CURVE SMOOTH",
"716 440 LINE SMOOTH",
"745 601 OFFCURVE",
"656 708 OFFCURVE",
"496 708 CURVE SMOOTH",
"390 708 LINE SMOOTH",
"230 708 OFFCURVE",
"105 601 OFFCURVE",
"76 440 CURVE SMOOTH",
"44 260 LINE SMOOTH",
"15 99 OFFCURVE",
"105 -8 OFFCURVE",
"264 -8 CURVE SMOOTH"
);
},
{
closed = 1;
nodes = (
"678 43 LINE",
"459 304 LINE",
"356 212 LINE",
"575 -49 LINE"
);
},
{
closed = 1;
nodes = (
"208 114 OFFCURVE",
"167 175 OFFCURVE",
"183 266 CURVE SMOOTH",
"213 434 LINE SMOOTH",
"229 525 OFFCURVE",
"292 586 OFFCURVE",
"368 586 CURVE SMOOTH",
"474 586 LINE SMOOTH",
"552 586 OFFCURVE",
"593 525 OFFCURVE",
"577 434 CURVE SMOOTH",
"547 268 LINE SMOOTH",
"532 187 OFFCURVE",
"458 114 OFFCURVE",
"391 114 CURVE SMOOTH",
"285 114 LINE SMOOTH"
);
}
);
};
layerId = "6404A7B3-B80B-4413-A1A7-686F7DCA7307";
paths = (
{
closed = 1;
nodes = (
"370 -8 LINE SMOOTH",
"517 -8 OFFCURVE",
"659 122 OFFCURVE",
"685 268 CURVE SMOOTH",
"716 440 LINE SMOOTH",
"745 601 OFFCURVE",
"651 708 OFFCURVE",
"480 708 CURVE SMOOTH",
"374 708 LINE SMOOTH",
"212 708 OFFCURVE",
"106 608 OFFCURVE",
"76 440 CURVE SMOOTH",
"44 260 LINE SMOOTH",
"16 101 OFFCURVE",
"111 -8 OFFCURVE",
"277 -8 CURVE SMOOTH"
);
},
{
closed = 1;
nodes = (
"678 43 LINE",
"457 304 LINE",
"356 214 LINE",
"577 -47 LINE"
);
},
{
closed = 1;
nodes = (
"208 114 OFFCURVE",
"167 175 OFFCURVE",
"183 266 CURVE SMOOTH",
"213 434 LINE SMOOTH",
"230 530 OFFCURVE",
"288 586 OFFCURVE",
"368 586 CURVE SMOOTH",
"474 586 LINE SMOOTH",
"552 586 OFFCURVE",
"593 525 OFFCURVE",
"577 434 CURVE SMOOTH",
"547 268 LINE SMOOTH",
"532 187 OFFCURVE",
"458 114 OFFCURVE",
"391 114 CURVE SMOOTH",
"285 114 LINE SMOOTH"
);
}
);
width = 728;
},
{
anchors = (
{
name = bottom;
position = "{300, 0}";
},
{
name = top;
position = "{424, 700}";
}
);
background = {
paths = (
{
closed = 1;
nodes = (
"350 -8 LINE SMOOTH",
"486 -8 OFFCURVE",
"609 99 OFFCURVE",
"635 245 CURVE SMOOTH",
"673 457 LINE SMOOTH",
"700 608 OFFCURVE",
"622 708 OFFCURVE",
"483 708 CURVE SMOOTH",
"377 708 LINE SMOOTH",
"237 708 OFFCURVE",
"124 608 OFFCURVE",
"97 457 CURVE SMOOTH",
"59 243 LINE SMOOTH",
"32 92 OFFCURVE",
"107 -8 OFFCURVE",
"246 -8 CURVE SMOOTH"
);
},
{
closed = 1;
nodes = (
"627 16 LINE",
"439 241 LINE",
"384 193 LINE",
"573 -32 LINE"
);
},
{
closed = 1;
nodes = (
"163 58 OFFCURVE",
"113 132 OFFCURVE",
"133 243 CURVE SMOOTH",
"171 457 LINE SMOOTH",
"191 568 OFFCURVE",
"271 642 OFFCURVE",
"367 642 CURVE SMOOTH",
"469 642 LINE SMOOTH",
"566 642 OFFCURVE",
"619 568 OFFCURVE",
"599 457 CURVE SMOOTH",
"561 245 LINE SMOOTH",
"541 134 OFFCURVE",
"457 58 OFFCURVE",
"359 58 CURVE SMOOTH",
"259 58 LINE SMOOTH"
);
}
);
};
layerId = "A26C2DC2-6E9D-4E0E-A939-3EF723D8B45B";
paths = (
{
closed = 1;
nodes = (
"361 -8 LINE SMOOTH",
"497 -8 OFFCURVE",
"609 99 OFFCURVE",
"635 245 CURVE SMOOTH",
"673 457 LINE SMOOTH",
"700 608 OFFCURVE",
"619 708 OFFCURVE",
"470 708 CURVE SMOOTH",
"364 708 LINE SMOOTH",
"223 708 OFFCURVE",
"125 615 OFFCURVE",
"97 457 CURVE SMOOTH",
"59 243 LINE SMOOTH",
"33 94 OFFCURVE",
"114 -8 OFFCURVE",
"260 -8 CURVE SMOOTH"
);
},
{
closed = 1;
nodes = (
"627 16 LINE",
"439 241 LINE",
"384 193 LINE",
"573 -32 LINE"
);
},
{
closed = 1;
nodes = (
"165 58 OFFCURVE",
"113 132 OFFCURVE",
"133 243 CURVE SMOOTH",
"171 457 LINE SMOOTH",
"192 573 OFFCURVE",
"264 642 OFFCURVE",
"366 642 CURVE SMOOTH",
"468 642 LINE SMOOTH",
"567 642 OFFCURVE",
"619 568 OFFCURVE",
"599 457 CURVE SMOOTH",
"561 245 LINE SMOOTH",
"541 134 OFFCURVE",
"457 58 OFFCURVE",
"359 58 CURVE SMOOTH",
"262 58 LINE SMOOTH"
);
}
);
width = 700;
},
{
anchors = (
{
name = bottom;
position = "{288, 0}";
},
{
name = top;
position = "{411, 700}";
}
);
background = {
paths = (
{
closed = 1;
nodes = (
"347 -9 LINE SMOOTH",
"475 -9 OFFCURVE",
"581 88 OFFCURVE",
"606 228 CURVE SMOOTH",
"649 472 LINE SMOOTH",
"674 614 OFFCURVE",
"603 709 OFFCURVE",
"473 709 CURVE SMOOTH",
"371 709 LINE SMOOTH",
"240 709 OFFCURVE",
"136 614 OFFCURVE",
"111 472 CURVE SMOOTH",
"68 228 LINE SMOOTH",
"43 86 OFFCURVE",
"113 -9 OFFCURVE",
"243 -9 CURVE SMOOTH"
);
},
{
closed = 1;
nodes = (
"586 -8 LINE",
"416 195 LINE",
"389 172 LINE",
"559 -32 LINE"
);
},
{
closed = 1;
nodes = (
"137 24 OFFCURVE",
"83 110 OFFCURVE",
"104 228 CURVE SMOOTH",
"147 472 LINE SMOOTH",
"169 597 OFFCURVE",
"259 676 OFFCURVE",
"365 676 CURVE SMOOTH",
"467 676 LINE SMOOTH",
"579 676 OFFCURVE",
"634 590 OFFCURVE",
"613 472 CURVE SMOOTH",
"570 228 LINE SMOOTH",
"548 103 OFFCURVE",
"458 24 OFFCURVE",
"351 24 CURVE SMOOTH",
"249 24 LINE SMOOTH"
);
}
);
};
layerId = "4CEAA5B1-2F28-4CD4-84D3-78B02271F1AF";
paths = (
{
closed = 1;
nodes = (
"347 -8 LINE SMOOTH",
"475 -8 OFFCURVE",
"581 88 OFFCURVE",
"606 228 CURVE SMOOTH",
"649 471 LINE SMOOTH",
"674 613 OFFCURVE",
"601 708 OFFCURVE",
"467 708 CURVE SMOOTH",
"365 708 LINE SMOOTH",
"232 708 OFFCURVE",
"137 620 OFFCURVE",
"111 471 CURVE SMOOTH",
"68 229 LINE SMOOTH",
"43 87 OFFCURVE",
"115 -8 OFFCURVE",
"249 -8 CURVE SMOOTH"
);
},
{
closed = 1;
nodes = (
"586 -9 LINE",
"416 194 LINE",
"390 172 LINE",
"560 -32 LINE"
);
},
{
closed = 1;
nodes = (
"140 24 OFFCURVE",
"82 107 OFFCURVE",
"104 229 CURVE SMOOTH",
"147 471 LINE SMOOTH",
"170 599 OFFCURVE",
"251 675 OFFCURVE",
"365 675 CURVE SMOOTH",
"467 675 LINE SMOOTH",
"577 675 OFFCURVE",
"635 593 OFFCURVE",
"613 471 CURVE SMOOTH",
"570 228 LINE SMOOTH",
"548 103 OFFCURVE",
"458 24 OFFCURVE",
"351 24 CURVE SMOOTH",
"249 24 LINE SMOOTH"
);
}
);
width = 684;
}
);
leftKerningGroup = O;
leftMetricsKey = O;
note = Q;
unicode = 0051;
},
{
glyphname = R;
lastChange = "2018-06-07 14:11:08 +0000";
layers = (
{
anchors = (
{
name = bottom;
position = "{349, 0}";
},
{
name = top;
position = "{334, 700}";
}
);
background = {
paths = (
{
closed = 1;
nodes = (
"200 0 LINE",
"200 250 LINE",
"369 250 LINE SMOOTH",
"414 250 OFFCURVE",
"443 223 OFFCURVE",
"462 165 CURVE SMOOTH",
"515 0 LINE",
"658 0 LINE",
"602 177 LINE SMOOTH",
"583 236 OFFCURVE",
"567 270 OFFCURVE",
"521 300 CURVE",
"521 302 LINE",
"595 329 OFFCURVE",
"636 382 OFFCURVE",
"636 451 CURVE SMOOTH",
"636 522 LINE SMOOTH",
"636 629 OFFCURVE",
"555 700 OFFCURVE",
"434 700 CURVE SMOOTH",
"62 700 LINE",
"62 0 LINE"
);
},
{
closed = 1;
nodes = (
"200 580 LINE",
"432 580 LINE SMOOTH",
"472 580 OFFCURVE",
"498 554 OFFCURVE",
"498 516 CURVE SMOOTH",
"498 451 LINE SMOOTH",
"498 403 OFFCURVE",
"464 370 OFFCURVE",
"408 370 CURVE SMOOTH",
"200 370 LINE"
);
}
);
};
layerId = "EA06CE92-4115-4482-8874-2441C279E756";
paths = (
{
closed = 1;
nodes = (
"200 0 LINE",
"200 251 LINE",
"369 251 LINE SMOOTH",
"414 251 OFFCURVE",
"444 224 OFFCURVE",
"462 166 CURVE SMOOTH",
"515 0 LINE",
"658 0 LINE",
"602 178 LINE SMOOTH",
"583 237 OFFCURVE",
"567 271 OFFCURVE",
"521 301 CURVE",
"521 303 LINE",
"595 330 OFFCURVE",
"636 383 OFFCURVE",
"636 452 CURVE SMOOTH",
"636 522 LINE SMOOTH",
"636 629 OFFCURVE",
"555 700 OFFCURVE",
"434 700 CURVE SMOOTH",
"62 700 LINE",
"62 0 LINE"
);
},
{
closed = 1;
nodes = (
"200 580 LINE",
"432 580 LINE SMOOTH",
"472 580 OFFCURVE",
"498 554 OFFCURVE",
"498 516 CURVE SMOOTH",
"498 451 LINE SMOOTH",
"498 403 OFFCURVE",
"464 370 OFFCURVE",
"408 370 CURVE SMOOTH",
"200 370 LINE"
);
}
);
width = 678;
},
{
anchors = (
{
name = bottom;
position = "{331, 0}";
},
{
name = top;
position = "{313, 700}";
}
);
background = {
paths = (
{
closed = 1;
nodes = (
"128 0 LINE",
"128 323 LINE",
"359 323 LINE SMOOTH",
"421 323 OFFCURVE",
"470 278 OFFCURVE",
"492 202 CURVE SMOOTH",
"550 0 LINE",
"586 0 LINE",
"529 202 LINE SMOOTH",
"511 266 OFFCURVE",
"478 312 OFFCURVE",
"439 331 CURVE",
"439 332 LINE",
"515 349 OFFCURVE",
"564 407 OFFCURVE",
"564 479 CURVE SMOOTH",
"564 561 LINE SMOOTH",
"564 644 OFFCURVE",
"503 700 OFFCURVE",
"412 700 CURVE SMOOTH",
"92 700 LINE",
"92 0 LINE"
);
},
{
closed = 1;
nodes = (
"128 667 LINE",
"412 667 LINE SMOOTH",
"482 667 OFFCURVE",
"528 625 OFFCURVE",
"528 561 CURVE SMOOTH",
"528 479 LINE SMOOTH",
"528 405 OFFCURVE",
"472 356 OFFCURVE",
"387 356 CURVE SMOOTH",
"128 356 LINE"
);
}
);
};
layerId = "76C6DC51-463D-4A0C-B694-3EB424048C5D";
paths = (
{
closed = 1;
nodes = (
"128 0 LINE",
"128 323 LINE",
"359 323 LINE SMOOTH",
"421 323 OFFCURVE",
"470 278 OFFCURVE",
"492 202 CURVE SMOOTH",
"550 0 LINE",
"586 0 LINE",
"529 202 LINE SMOOTH",
"511 266 OFFCURVE",
"478 312 OFFCURVE",
"439 331 CURVE",
"439 332 LINE",
"515 349 OFFCURVE",
"564 407 OFFCURVE",
"564 479 CURVE SMOOTH",
"564 561 LINE SMOOTH",
"564 644 OFFCURVE",
"503 700 OFFCURVE",
"412 700 CURVE SMOOTH",
"92 700 LINE",
"92 0 LINE"
);
},
{
closed = 1;
nodes = (
"128 667 LINE",
"412 667 LINE SMOOTH",
"482 667 OFFCURVE",
"528 625 OFFCURVE",
"528 561 CURVE SMOOTH",
"528 479 LINE SMOOTH",
"528 405 OFFCURVE",
"472 356 OFFCURVE",
"387 356 CURVE SMOOTH",
"128 356 LINE"
);
}
);
width = 636;
},
{
anchors = (
{
name = bottom;
position = "{337, 0}";
},
{
name = top;
position = "{322, 700}";
}
);
background = {
anchors = (
{
name = bottom;
position = "{335, 0}";
},
{
name = top;
position = "{320, 700}";
}
);
paths = (
{
closed = 1;
nodes = (
"154 0 LINE",
"154 296 LINE",
"357 296 LINE SMOOTH",
"412 296 OFFCURVE",
"462 252 OFFCURVE",
"481 187 CURVE SMOOTH",
"536 0 LINE",
"612 0 LINE",
"557 187 LINE SMOOTH",
"540 245 OFFCURVE",
"506 295 OFFCURVE",
"465 317 CURVE",
"465 318 LINE",
"540 340 OFFCURVE",
"590 398 OFFCURVE",
"590 469 CURVE SMOOTH",
"590 542 LINE SMOOTH",
"590 637 OFFCURVE",
"522 700 OFFCURVE",
"420 700 CURVE SMOOTH",
"80 700 LINE",
"80 0 LINE"
);
},
{
closed = 1;
nodes = (
"154 634 LINE",
"418 634 LINE SMOOTH",
"477 634 OFFCURVE",
"516 599 OFFCURVE",
"516 546 CURVE SMOOTH",
"516 469 LINE SMOOTH",
"516 405 OFFCURVE",
"467 362 OFFCURVE",
"394 362 CURVE SMOOTH",
"154 362 LINE"
);
}
);
};
layerId = "BB270C98-E610-4AC3-8B1B-9C54875E1C66";
paths = (
{
closed = 1;
nodes = (
"154 0 LINE",
"154 296 LINE",
"357 296 LINE SMOOTH",
"412 296 OFFCURVE",
"462 252 OFFCURVE",
"481 187 CURVE SMOOTH",
"536 0 LINE",
"612 0 LINE",
"557 187 LINE SMOOTH",
"540 245 OFFCURVE",
"506 295 OFFCURVE",
"465 317 CURVE",
"465 318 LINE",
"540 340 OFFCURVE",
"590 398 OFFCURVE",
"590 469 CURVE SMOOTH",
"590 542 LINE SMOOTH",
"590 637 OFFCURVE",
"522 700 OFFCURVE",
"420 700 CURVE SMOOTH",
"80 700 LINE",
"80 0 LINE"
);
},
{
closed = 1;
nodes = (
"154 634 LINE",
"418 634 LINE SMOOTH",
"477 634 OFFCURVE",
"516 599 OFFCURVE",
"516 546 CURVE SMOOTH",
"516 469 LINE SMOOTH",
"516 405 OFFCURVE",
"467 362 OFFCURVE",
"394 362 CURVE SMOOTH",
"154 362 LINE"
);
}
);
width = 650;
},
{
anchors = (
{
name = bottom;
position = "{305, 0}";
},
{
name = top;
position = "{413, 700}";
}
);
background = {
paths = (
{
closed = 1;
nodes = (
"156 0 LINE",
"200 251 LINE",
"369 251 LINE SMOOTH",
"414 251 OFFCURVE",
"439 224 OFFCURVE",
"447 166 CURVE SMOOTH",
"471 0 LINE",
"614 0 LINE",
"589 178 LINE SMOOTH",
"581 236 OFFCURVE",
"571 271 OFFCURVE",
"530 301 CURVE",
"530 303 LINE",
"609 330 OFFCURVE",
"660 383 OFFCURVE",
"672 452 CURVE SMOOTH",
"684 522 LINE SMOOTH",
"702 629 OFFCURVE",
"635 700 OFFCURVE",
"513 700 CURVE SMOOTH",
"141 700 LINE",
"18 0 LINE"
);
},
{
closed = 1;
nodes = (
"258 580 LINE",
"490 580 LINE SMOOTH",
"530 580 OFFCURVE",
"551 554 OFFCURVE",
"545 516 CURVE SMOOTH",
"534 451 LINE SMOOTH",
"526 403 OFFCURVE",
"485 370 OFFCURVE",
"429 370 CURVE SMOOTH",
"221 370 LINE"
);
}
);
};
layerId = "6404A7B3-B80B-4413-A1A7-686F7DCA7307";
paths = (
{
closed = 1;
nodes = (
"156 0 LINE",
"200 251 LINE",
"369 251 LINE SMOOTH",
"414 251 OFFCURVE",
"439 224 OFFCURVE",
"447 166 CURVE SMOOTH",
"471 0 LINE",
"614 0 LINE",
"589 178 LINE SMOOTH",
"581 236 OFFCURVE",
"571 271 OFFCURVE",
"530 301 CURVE",
"530 303 LINE",
"609 330 OFFCURVE",
"660 383 OFFCURVE",
"672 452 CURVE SMOOTH",
"684 522 LINE SMOOTH",
"702 629 OFFCURVE",
"627 700 OFFCURVE",
"497 700 CURVE SMOOTH",
"141 700 LINE",
"18 0 LINE"
);
},
{
closed = 1;
nodes = (
"258 580 LINE",
"490 580 LINE SMOOTH",
"529 580 OFFCURVE",
"551 554 OFFCURVE",
"545 516 CURVE SMOOTH",
"534 451 LINE SMOOTH",
"526 403 OFFCURVE",
"485 370 OFFCURVE",
"429 370 CURVE SMOOTH",
"221 370 LINE"
);
}
);
width = 678;
},
{
anchors = (
{
name = bottom;
position = "{293, 0}";
},
{
name = top;
position = "{401, 700}";
}
);
background = {
paths = (
{
closed = 1;
nodes = (
"110 0 LINE",
"162 296 LINE",
"365 296 LINE SMOOTH",
"420 296 OFFCURVE",
"462 252 OFFCURVE",
"470 187 CURVE SMOOTH",
"492 0 LINE",
"568 0 LINE",
"546 187 LINE SMOOTH",
"539 245 OFFCURVE",
"515 295 OFFCURVE",
"477 317 CURVE",
"477 318 LINE",
"554 339 OFFCURVE",
"616 398 OFFCURVE",
"629 469 CURVE SMOOTH",
"642 542 LINE SMOOTH",
"659 637 OFFCURVE",
"601 700 OFFCURVE",
"499 700 CURVE SMOOTH",
"159 700 LINE",
"36 0 LINE"
);
},
{
closed = 1;
nodes = (
"222 634 LINE",
"486 634 LINE SMOOTH",
"544 634 OFFCURVE",
"577 599 OFFCURVE",
"568 546 CURVE SMOOTH",
"555 469 LINE SMOOTH",
"544 405 OFFCURVE",
"487 362 OFFCURVE",
"414 362 CURVE SMOOTH",
"174 362 LINE"
);
}
);
};
layerId = "A26C2DC2-6E9D-4E0E-A939-3EF723D8B45B";
paths = (
{
closed = 1;
nodes = (
"110 0 LINE",
"162 296 LINE",
"365 296 LINE SMOOTH",
"420 296 OFFCURVE",
"462 252 OFFCURVE",
"470 187 CURVE SMOOTH",
"492 0 LINE",
"568 0 LINE",
"546 187 LINE SMOOTH",
"539 245 OFFCURVE",
"515 295 OFFCURVE",
"477 317 CURVE",
"477 318 LINE",
"569 340 OFFCURVE",
"616 397 OFFCURVE",
"629 469 CURVE SMOOTH",
"642 542 LINE SMOOTH",
"659 637 OFFCURVE",
"598 700 OFFCURVE",
"490 700 CURVE SMOOTH",
"159 700 LINE",
"36 0 LINE"
);
},
{
closed = 1;
nodes = (
"222 634 LINE",
"486 634 LINE SMOOTH",
"544 634 OFFCURVE",
"577 599 OFFCURVE",
"568 546 CURVE SMOOTH",
"555 469 LINE SMOOTH",
"544 405 OFFCURVE",
"487 362 OFFCURVE",
"414 362 CURVE SMOOTH",
"174 362 LINE"
);
}
);
width = 650;
},
{
anchors = (
{
name = bottom;
position = "{287, 0}";
},
{
name = top;
position = "{392, 700}";
}
);
background = {
anchors = (
{
name = bottom;
position = "{287, 0}";
},
{
name = top;
position = "{392, 700}";
}
);
paths = (
{
closed = 1;
nodes = (
"84 0 LINE",
"141 323 LINE",
"372 323 LINE SMOOTH",
"436 323 OFFCURVE",
"476 278 OFFCURVE",
"484 202 CURVE SMOOTH",
"506 0 LINE",
"542 0 LINE",
"521 202 LINE SMOOTH",
"514 266 OFFCURVE",
"489 311 OFFCURVE",
"453 331 CURVE",
"454 332 LINE",
"535 350 OFFCURVE",
"591 409 OFFCURVE",
"604 479 CURVE SMOOTH",
"619 561 LINE SMOOTH",
"634 644 OFFCURVE",
"581 700 OFFCURVE",
"486 700 CURVE SMOOTH",
"171 700 LINE",
"48 0 LINE"
);
},
{
closed = 1;
nodes = (
"202 667 LINE",
"486 667 LINE SMOOTH",
"556 667 OFFCURVE",
"595 625 OFFCURVE",
"583 561 CURVE SMOOTH",
"568 479 LINE SMOOTH",
"555 406 OFFCURVE",
"491 356 OFFCURVE",
"406 356 CURVE SMOOTH",
"147 356 LINE"
);
}
);
};
layerId = "4CEAA5B1-2F28-4CD4-84D3-78B02271F1AF";
paths = (
{
closed = 1;
nodes = (
"84 0 LINE",
"141 323 LINE",
"372 323 LINE SMOOTH",
"436 323 OFFCURVE",
"476 278 OFFCURVE",
"484 202 CURVE SMOOTH",
"506 0 LINE",
"542 0 LINE",
"521 202 LINE SMOOTH",
"514 266 OFFCURVE",
"489 311 OFFCURVE",
"453 331 CURVE",
"454 332 LINE",
"535 350 OFFCURVE",
"591 409 OFFCURVE",
"604 479 CURVE SMOOTH",
"619 561 LINE SMOOTH",
"634 644 OFFCURVE",
"581 700 OFFCURVE",
"486 700 CURVE SMOOTH",
"171 700 LINE",
"48 0 LINE"
);
},
{
closed = 1;
nodes = (
"202 667 LINE",
"486 667 LINE SMOOTH",
"556 667 OFFCURVE",
"595 625 OFFCURVE",
"583 561 CURVE SMOOTH",
"568 479 LINE SMOOTH",
"555 406 OFFCURVE",
"491 356 OFFCURVE",
"406 356 CURVE SMOOTH",
"147 356 LINE"
);
}
);
width = 636;
}
);
leftMetricsKey = H;
note = R;
rightKerningGroup = R;
unicode = 0052;
},
{
glyphname = S;
lastChange = "2018-06-07 20:34:50 +0000";
layers = (
{
anchors = (
{
name = bottom;
position = "{341, 0}";
},
{
name = top;
position = "{328, 700}";
}
);
background = {
anchors = (
{
name = bottom;
position = "{341, 0}";
}
);
};
layerId = "EA06CE92-4115-4482-8874-2441C279E756";
paths = (
{
closed = 1;
nodes = (
"387 -8 LINE SMOOTH",
"528 -8 OFFCURVE",
"622 64 OFFCURVE",
"622 172 CURVE SMOOTH",
"622 238 LINE SMOOTH",
"622 324 OFFCURVE",
"555 378 OFFCURVE",
"435 399 CURVE SMOOTH",
"252 431 LINE SMOOTH",
"207 439 OFFCURVE",
"183 459 OFFCURVE",
"183 493 CURVE SMOOTH",
"183 520 LINE SMOOTH",
"183 560 OFFCURVE",
"220 586 OFFCURVE",
"276 586 CURVE SMOOTH",
"389 586 LINE SMOOTH",
"439 586 OFFCURVE",
"473 549 OFFCURVE",
"473 493 CURVE",
"609 493 LINE",
"609 622 OFFCURVE",
"521 708 OFFCURVE",
"389 708 CURVE SMOOTH",
"276 708 LINE SMOOTH",
"137 708 OFFCURVE",
"45 637 OFFCURVE",
"45 530 CURVE SMOOTH",
"45 474 LINE SMOOTH",
"45 386 OFFCURVE",
"108 328 OFFCURVE",
"228 308 CURVE SMOOTH",
"412 277 LINE SMOOTH",
"459 269 OFFCURVE",
"484 248 OFFCURVE",
"484 216 CURVE SMOOTH",
"484 182 LINE SMOOTH",
"484 141 OFFCURVE",
"444 114 OFFCURVE",
"385 114 CURVE SMOOTH",
"274 114 LINE SMOOTH",
"211 114 OFFCURVE",
"174 155 OFFCURVE",
"174 225 CURVE",
"38 225 LINE",
"38 79 OFFCURVE",
"125 -8 OFFCURVE",
"272 -8 CURVE SMOOTH"
);
}
);
width = 656;
},
{
anchors = (
{
name = bottom;
position = "{318, 0}";
},
{
name = top;
position = "{312, 700}";
}
);
background = {
paths = (
{
closed = 1;
nodes = (
"367 -8 LINE SMOOTH",
"478 -8 OFFCURVE",
"551 53 OFFCURVE",
"551 143 CURVE SMOOTH",
"551 206 LINE SMOOTH",
"551 284 OFFCURVE",
"495 340 OFFCURVE",
"401 356 CURVE SMOOTH",
"224 386 LINE SMOOTH",
"158 397 OFFCURVE",
"112 438 OFFCURVE",
"112 495 CURVE SMOOTH",
"112 565 LINE SMOOTH",
"112 633 OFFCURVE",
"170 676 OFFCURVE",
"256 676 CURVE SMOOTH",
"369 676 LINE SMOOTH",
"451 676 OFFCURVE",
"506 621 OFFCURVE",
"506 538 CURVE",
"540 538 LINE",
"540 639 OFFCURVE",
"471 708 OFFCURVE",
"369 708 CURVE SMOOTH",
"256 708 LINE SMOOTH",
"150 708 OFFCURVE",
"77 650 OFFCURVE",
"77 559 CURVE SMOOTH",
"77 506 LINE SMOOTH",
"77 429 OFFCURVE",
"133 370 OFFCURVE",
"223 355 CURVE SMOOTH",
"400 325 LINE SMOOTH",
"471 313 OFFCURVE",
"516 272 OFFCURVE",
"516 219 CURVE SMOOTH",
"516 137 LINE SMOOTH",
"516 69 OFFCURVE",
"456 24 OFFCURVE",
"365 24 CURVE SMOOTH",
"254 24 LINE SMOOTH",
"164 24 OFFCURVE",
"102 90 OFFCURVE",
"102 180 CURVE",
"68 180 LINE",
"68 71 OFFCURVE",
"146 -8 OFFCURVE",
"252 -8 CURVE SMOOTH"
);
}
);
};
layerId = "76C6DC51-463D-4A0C-B694-3EB424048C5D";
paths = (
{
closed = 1;
nodes = (
"366 -8 LINE SMOOTH",
"477 -8 OFFCURVE",
"551 51 OFFCURVE",
"551 140 CURVE SMOOTH",
"551 211 LINE SMOOTH",
"551 286 OFFCURVE",
"495 340 OFFCURVE",
"401 356 CURVE SMOOTH",
"224 386 LINE SMOOTH",
"154 398 OFFCURVE",
"113 438 OFFCURVE",
"113 499 CURVE SMOOTH",
"113 562 LINE SMOOTH",
"113 630 OFFCURVE",
"170 675 OFFCURVE",
"256 675 CURVE SMOOTH",
"369 675 LINE SMOOTH",
"451 675 OFFCURVE",
"505 620 OFFCURVE",
"505 538 CURVE",
"540 538 LINE",
"540 640 OFFCURVE",
"472 708 OFFCURVE",
"369 708 CURVE SMOOTH",
"256 708 LINE SMOOTH",
"149 708 OFFCURVE",
"77 650 OFFCURVE",
"77 562 CURVE SMOOTH",
"77 499 LINE SMOOTH",
"77 422 OFFCURVE",
"132 368 OFFCURVE",
"224 352 CURVE SMOOTH",
"401 322 LINE SMOOTH",
"473 310 OFFCURVE",
"515 268 OFFCURVE",
"515 211 CURVE SMOOTH",
"515 140 LINE SMOOTH",
"515 71 OFFCURVE",
"455 25 OFFCURVE",
"366 25 CURVE SMOOTH",
"253 25 LINE SMOOTH",
"159 25 OFFCURVE",
"103 83 OFFCURVE",
"103 180 CURVE",
"68 180 LINE",
"68 62 OFFCURVE",
"137 -8 OFFCURVE",
"253 -8 CURVE SMOOTH"
);
}
);
width = 613;
},
{
anchors = (
{
name = bottom;
position = "{328, 0}";
},
{
name = top;
position = "{318, 700}";
}
);
layerId = "BB270C98-E610-4AC3-8B1B-9C54875E1C66";
paths = (
{
closed = 1;
nodes = (
"374 -8 LINE SMOOTH",
"496 -8 OFFCURVE",
"577 57 OFFCURVE",
"577 154 CURVE SMOOTH",
"577 218 LINE SMOOTH",
"577 299 OFFCURVE",
"517 354 OFFCURVE",
"413 372 CURVE SMOOTH",
"234 403 LINE SMOOTH",
"174 413 OFFCURVE",
"138 447 OFFCURVE",
"138 494 CURVE SMOOTH",
"138 548 LINE SMOOTH",
"138 606 OFFCURVE",
"188 642 OFFCURVE",
"263 642 CURVE SMOOTH",
"376 642 LINE SMOOTH",
"446 642 OFFCURVE",
"493 594 OFFCURVE",
"493 521 CURVE",
"565 521 LINE",
"565 633 OFFCURVE",
"489 708 OFFCURVE",
"376 708 CURVE SMOOTH",
"263 708 LINE SMOOTH",
"144 708 OFFCURVE",
"64 645 OFFCURVE",
"64 548 CURVE SMOOTH",
"64 494 LINE SMOOTH",
"64 412 OFFCURVE",
"123 354 OFFCURVE",
"224 337 CURVE SMOOTH",
"404 307 LINE SMOOTH",
"466 297 OFFCURVE",
"503 263 OFFCURVE",
"503 218 CURVE SMOOTH",
"503 154 LINE SMOOTH",
"503 96 OFFCURVE",
"451 58 OFFCURVE",
"372 58 CURVE SMOOTH",
"261 58 LINE SMOOTH",
"181 58 OFFCURVE",
"128 114 OFFCURVE",
"128 197 CURVE",
"56 197 LINE",
"56 74 OFFCURVE",
"137 -8 OFFCURVE",
"259 -8 CURVE SMOOTH"
);
}
);
width = 627;
},
{
anchors = (
{
name = bottom;
position = "{303, 0}";
},
{
name = top;
position = "{392, 700}";
}
);
background = {
paths = (
{
closed = 1;
nodes = (
"356 -8 LINE SMOOTH",
"496 -8 OFFCURVE",
"589 59 OFFCURVE",
"608 172 CURVE SMOOTH",
"619 238 LINE SMOOTH",
"633 324 OFFCURVE",
"577 378 OFFCURVE",
"461 399 CURVE SMOOTH",
"284 431 LINE SMOOTH",
"241 439 OFFCURVE",
"220 459 OFFCURVE",
"226 493 CURVE SMOOTH",
"231 520 LINE SMOOTH",
"238 560 OFFCURVE",
"280 586 OFFCURVE",
"336 586 CURVE SMOOTH",
"448 586 LINE SMOOTH",
"498 586 OFFCURVE",
"525 549 OFFCURVE",
"515 493 CURVE",
"651 493 LINE",
"674 622 OFFCURVE",
"595 708 OFFCURVE",
"454 708 CURVE SMOOTH",
"342 708 LINE SMOOTH",
"207 708 OFFCURVE",
"115 642 OFFCURVE",
"95 530 CURVE SMOOTH",
"85 474 LINE SMOOTH",
"69 385 OFFCURVE",
"122 328 OFFCURVE",
"239 308 CURVE SMOOTH",
"416 277 LINE SMOOTH",
"462 269 OFFCURVE",
"482 247 OFFCURVE",
"477 216 CURVE SMOOTH",
"471 182 LINE SMOOTH",
"464 141 OFFCURVE",
"418 114 OFFCURVE",
"360 114 CURVE SMOOTH",
"250 114 LINE SMOOTH",
"191 114 OFFCURVE",
"159 158 OFFCURVE",
"170 225 CURVE",
"34 225 LINE",
"9 85 OFFCURVE",
"92 -8 OFFCURVE",
"242 -8 CURVE SMOOTH"
);
}
);
};
layerId = "6404A7B3-B80B-4413-A1A7-686F7DCA7307";
paths = (
{
closed = 1;
nodes = (
"356 -8 LINE SMOOTH",
"496 -8 OFFCURVE",
"589 59 OFFCURVE",
"608 172 CURVE SMOOTH",
"619 238 LINE SMOOTH",
"633 324 OFFCURVE",
"577 377 OFFCURVE",
"461 398 CURVE SMOOTH",
"284 430 LINE SMOOTH",
"241 438 OFFCURVE",
"220 458 OFFCURVE",
"226 492 CURVE SMOOTH",
"231 520 LINE SMOOTH",
"238 560 OFFCURVE",
"280 586 OFFCURVE",
"336 586 CURVE SMOOTH",
"448 586 LINE SMOOTH",
"498 586 OFFCURVE",
"525 549 OFFCURVE",
"515 493 CURVE",
"651 493 LINE",
"674 622 OFFCURVE",
"595 708 OFFCURVE",
"454 708 CURVE SMOOTH",
"342 708 LINE SMOOTH",
"207 708 OFFCURVE",
"115 642 OFFCURVE",
"95 530 CURVE SMOOTH",
"85 474 LINE SMOOTH",
"69 385 OFFCURVE",
"122 329 OFFCURVE",
"239 309 CURVE SMOOTH",
"416 278 LINE SMOOTH",
"462 270 OFFCURVE",
"482 248 OFFCURVE",
"477 217 CURVE SMOOTH",
"471 182 LINE SMOOTH",
"464 141 OFFCURVE",
"418 114 OFFCURVE",
"360 114 CURVE SMOOTH",
"250 114 LINE SMOOTH",
"191 114 OFFCURVE",
"159 158 OFFCURVE",
"170 225 CURVE",
"34 225 LINE",
"9 85 OFFCURVE",
"92 -8 OFFCURVE",
"242 -8 CURVE SMOOTH"
);
}
);
width = 656;
},
{
anchors = (
{
name = bottom;
position = "{292, 0}";
},
{
name = top;
position = "{385, 700}";
}
);
background = {
paths = (
{
closed = 1;
nodes = (
"342 -8 LINE SMOOTH",
"464 -8 OFFCURVE",
"540 48 OFFCURVE",
"560 154 CURVE SMOOTH",
"572 218 LINE SMOOTH",
"586 293 OFFCURVE",
"531 355 OFFCURVE",
"435 372 CURVE SMOOTH",
"261 403 LINE SMOOTH",
"205 413 OFFCURVE",
"173 449 OFFCURVE",
"181 494 CURVE SMOOTH",
"191 548 LINE SMOOTH",
"203 607 OFFCURVE",
"255 642 OFFCURVE",
"332 642 CURVE SMOOTH",
"445 642 LINE SMOOTH",
"516 642 OFFCURVE",
"554 594 OFFCURVE",
"541 521 CURVE",
"613 521 LINE",
"633 633 OFFCURVE",
"566 708 OFFCURVE",
"445 708 CURVE SMOOTH",
"332 708 LINE SMOOTH",
"216 708 OFFCURVE",
"136 649 OFFCURVE",
"117 548 CURVE SMOOTH",
"107 494 LINE SMOOTH",
"93 416 OFFCURVE",
"146 353 OFFCURVE",
"240 337 CURVE SMOOTH",
"415 307 LINE SMOOTH",
"473 297 OFFCURVE",
"506 262 OFFCURVE",
"498 218 CURVE SMOOTH",
"486 154 LINE SMOOTH",
"475 94 OFFCURVE",
"420 58 OFFCURVE",
"338 58 CURVE SMOOTH",
"227 58 LINE SMOOTH",
"147 58 OFFCURVE",
"104 114 OFFCURVE",
"119 197 CURVE",
"47 197 LINE",
"25 74 OFFCURVE",
"97 -8 OFFCURVE",
"227 -8 CURVE SMOOTH"
);
}
);
};
layerId = "A26C2DC2-6E9D-4E0E-A939-3EF723D8B45B";
paths = (
{
closed = 1;
nodes = (
"342 -8 LINE SMOOTH",
"464 -8 OFFCURVE",
"539 48 OFFCURVE",
"559 154 CURVE SMOOTH",
"571 218 LINE SMOOTH",
"585 293 OFFCURVE",
"531 355 OFFCURVE",
"435 372 CURVE SMOOTH",
"261 403 LINE SMOOTH",
"205 413 OFFCURVE",
"173 449 OFFCURVE",
"181 494 CURVE SMOOTH",
"191 548 LINE SMOOTH",
"203 607 OFFCURVE",
"255 642 OFFCURVE",
"332 642 CURVE SMOOTH",
"445 642 LINE SMOOTH",
"516 642 OFFCURVE",
"554 594 OFFCURVE",
"541 521 CURVE",
"613 521 LINE",
"633 633 OFFCURVE",
"566 708 OFFCURVE",
"445 708 CURVE SMOOTH",
"332 708 LINE SMOOTH",
"216 708 OFFCURVE",
"136 649 OFFCURVE",
"117 548 CURVE SMOOTH",
"107 494 LINE SMOOTH",
"93 416 OFFCURVE",
"146 353 OFFCURVE",
"240 337 CURVE SMOOTH",
"415 307 LINE SMOOTH",
"472 297 OFFCURVE",
"505 262 OFFCURVE",
"497 218 CURVE SMOOTH",
"485 154 LINE SMOOTH",
"474 94 OFFCURVE",
"420 58 OFFCURVE",
"338 58 CURVE SMOOTH",
"227 58 LINE SMOOTH",
"147 58 OFFCURVE",
"104 114 OFFCURVE",
"119 197 CURVE",
"47 197 LINE",
"25 74 OFFCURVE",
"97 -8 OFFCURVE",
"227 -8 CURVE SMOOTH"
);
}
);
width = 627;
},
{
anchors = (
{
name = bottom;
position = "{274, 0}";
},
{
name = top;
position = "{386, 700}";
}
);
background = {
anchors = (
{
name = bottom;
position = "{274, 0}";
},
{
name = top;
position = "{392, 700}";
}
);
paths = (
{
closed = 1;
nodes = (
"327 -8 LINE SMOOTH",
"440 -8 OFFCURVE",
"516 47 OFFCURVE",
"532 140 CURVE SMOOTH",
"544 211 LINE SMOOTH",
"557 286 OFFCURVE",
"510 340 OFFCURVE",
"420 356 CURVE SMOOTH",
"248 386 LINE SMOOTH",
"180 398 OFFCURVE",
"146 438 OFFCURVE",
"157 499 CURVE SMOOTH",
"168 562 LINE SMOOTH",
"181 633 OFFCURVE",
"241 675 OFFCURVE",
"331 675 CURVE SMOOTH",
"444 675 LINE SMOOTH",
"526 675 OFFCURVE",
"571 620 OFFCURVE",
"556 538 CURVE",
"591 538 LINE",
"609 640 OFFCURVE",
"551 708 OFFCURVE",
"445 708 CURVE SMOOTH",
"332 708 LINE SMOOTH",
"222 708 OFFCURVE",
"148 654 OFFCURVE",
"132 562 CURVE SMOOTH",
"121 499 LINE SMOOTH",
"108 422 OFFCURVE",
"153 368 OFFCURVE",
"242 352 CURVE SMOOTH",
"414 322 LINE SMOOTH",
"484 310 OFFCURVE",
"517 267 OFFCURVE",
"508 211 CURVE SMOOTH",
"496 140 LINE SMOOTH",
"483 68 OFFCURVE",
"421 25 OFFCURVE",
"327 25 CURVE SMOOTH",
"214 25 LINE SMOOTH",
"119 25 OFFCURVE",
"74 83 OFFCURVE",
"91 180 CURVE",
"56 180 LINE",
"35 62 OFFCURVE",
"99 -8 OFFCURVE",
"214 -8 CURVE SMOOTH"
);
}
);
};
layerId = "4CEAA5B1-2F28-4CD4-84D3-78B02271F1AF";
paths = (
{
closed = 1;
nodes = (
"327 -8 LINE SMOOTH",
"440 -8 OFFCURVE",
"516 47 OFFCURVE",
"532 140 CURVE SMOOTH",
"544 211 LINE SMOOTH",
"557 286 OFFCURVE",
"510 340 OFFCURVE",
"420 356 CURVE SMOOTH",
"248 386 LINE SMOOTH",
"180 398 OFFCURVE",
"146 438 OFFCURVE",
"157 499 CURVE SMOOTH",
"168 562 LINE SMOOTH",
"181 633 OFFCURVE",
"241 675 OFFCURVE",
"331 675 CURVE SMOOTH",
"444 675 LINE SMOOTH",
"526 675 OFFCURVE",
"571 620 OFFCURVE",
"556 538 CURVE",
"591 538 LINE",
"609 640 OFFCURVE",
"551 708 OFFCURVE",
"445 708 CURVE SMOOTH",
"332 708 LINE SMOOTH",
"222 708 OFFCURVE",
"148 654 OFFCURVE",
"132 562 CURVE SMOOTH",
"121 499 LINE SMOOTH",
"108 422 OFFCURVE",
"153 368 OFFCURVE",
"242 352 CURVE SMOOTH",
"414 322 LINE SMOOTH",
"484 310 OFFCURVE",
"517 267 OFFCURVE",
"508 211 CURVE SMOOTH",
"496 140 LINE SMOOTH",
"483 68 OFFCURVE",
"421 25 OFFCURVE",
"327 25 CURVE SMOOTH",
"214 25 LINE SMOOTH",
"119 25 OFFCURVE",
"74 83 OFFCURVE",
"91 180 CURVE",
"56 180 LINE",
"35 62 OFFCURVE",
"99 -8 OFFCURVE",
"214 -8 CURVE SMOOTH"
);
}
);
width = 613;
}
);
leftKerningGroup = S;
note = S;
rightKerningGroup = S;
unicode = 0053;
},
{
glyphname = T;
lastChange = "2018-06-07 19:55:53 +0000";
layers = (
{
anchors = (
{
name = bottom;
position = "{299, 0}";
},
{
name = center;
position = "{300, 350}";
},
{
name = top;
position = "{299, 700}";
}
);
background = {
paths = (
{
closed = 1;
nodes = (
"372 0 LINE",
"372 578 LINE",
"594 578 LINE",
"594 700 LINE",
"12 700 LINE",
"12 578 LINE",
"234 578 LINE",
"234 0 LINE"
);
}
);
};
layerId = "EA06CE92-4115-4482-8874-2441C279E756";
paths = (
{
closed = 1;
nodes = (
"372 0 LINE",
"372 580 LINE",
"594 580 LINE",
"594 700 LINE",
"12 700 LINE",
"12 580 LINE",
"234 580 LINE",
"234 0 LINE"
);
}
);
width = 606;
},
{
anchors = (
{
name = bottom;
position = "{284, 0}";
},
{
name = center;
position = "{285, 350}";
},
{
name = top;
position = "{284, 700}";
}
);
background = {
paths = (
{
closed = 1;
nodes = (
"300 0 LINE",
"300 667 LINE",
"522 667 LINE",
"522 700 LINE",
"42 700 LINE",
"42 667 LINE",
"264 667 LINE",
"264 0 LINE"
);
}
);
};
layerId = "76C6DC51-463D-4A0C-B694-3EB424048C5D";
paths = (
{
closed = 1;
nodes = (
"300 0 LINE",
"300 667 LINE",
"522 667 LINE",
"522 700 LINE",
"42 700 LINE",
"42 667 LINE",
"264 667 LINE",
"264 0 LINE"
);
}
);
width = 564;
},
{
anchors = (
{
name = bottom;
position = "{289, 0}";
},
{
name = center;
position = "{290, 350}";
},
{
name = top;
position = "{289, 700}";
}
);
layerId = "BB270C98-E610-4AC3-8B1B-9C54875E1C66";
paths = (
{
closed = 1;
nodes = (
"326 0 LINE",
"326 636 LINE",
"548 636 LINE",
"548 700 LINE",
"30 700 LINE",
"30 636 LINE",
"252 636 LINE",
"252 0 LINE"
);
}
);
width = 578;
},
{
anchors = (
{
name = bottom;
position = "{255, 0}";
},
{
name = center;
position = "{317, 350}";
},
{
name = top;
position = "{378, 700}";
}
);
background = {
paths = (
{
closed = 1;
nodes = (
"328 0 LINE",
"430 580 LINE",
"652 580 LINE",
"673 700 LINE",
"91 700 LINE",
"70 580 LINE",
"292 580 LINE",
"190 0 LINE"
);
}
);
};
layerId = "6404A7B3-B80B-4413-A1A7-686F7DCA7307";
paths = (
{
closed = 1;
nodes = (
"328 0 LINE",
"430 580 LINE",
"652 580 LINE",
"673 700 LINE",
"91 700 LINE",
"70 580 LINE",
"292 580 LINE",
"190 0 LINE"
);
}
);
width = 606;
},
{
anchors = (
{
name = bottom;
position = "{245, 0}";
},
{
name = center;
position = "{308, 350}";
},
{
name = top;
position = "{368, 700}";
}
);
layerId = "A26C2DC2-6E9D-4E0E-A939-3EF723D8B45B";
paths = (
{
closed = 1;
nodes = (
"282 0 LINE",
"394 636 LINE",
"616 636 LINE",
"627 700 LINE",
"109 700 LINE",
"98 636 LINE",
"320 636 LINE",
"208 0 LINE"
);
}
);
width = 578;
},
{
anchors = (
{
name = bottom;
position = "{238, 0}";
},
{
name = center;
position = "{303, 350}";
},
{
name = top;
position = "{364, 700}";
}
);
background = {
anchors = (
{
name = bottom;
position = "{240, 0}";
},
{
name = center;
position = "{303, 350}";
},
{
name = top;
position = "{364, 700}";
}
);
paths = (
{
closed = 1;
nodes = (
"256 0 LINE",
"374 667 LINE",
"595 667 LINE",
"601 700 LINE",
"122 700 LINE",
"116 667 LINE",
"338 667 LINE",
"220 0 LINE"
);
}
);
};
layerId = "4CEAA5B1-2F28-4CD4-84D3-78B02271F1AF";
paths = (
{
closed = 1;
nodes = (
"256 0 LINE",
"374 667 LINE",
"595 667 LINE",
"601 700 LINE",
"122 700 LINE",
"116 667 LINE",
"338 667 LINE",
"220 0 LINE"
);
}
);
width = 564;
}
);
leftKerningGroup = T;
note = T;
rightKerningGroup = T;
rightMetricsKey = "=|";
unicode = 0054;
},
{
glyphname = U;
lastChange = "2018-06-07 20:38:18 +0000";
layers = (
{
anchors = (
{
name = bottom;
position = "{360, 0}";
},
{
name = ogonek;
position = "{475, 0}";
},
{
name = top;
position = "{360, 700}";
},
{
name = topright;
position = "{677, 411}";
}
);
background = {
paths = (
{
closed = 1;
nodes = (
"412 -8 LINE SMOOTH",
"562 -8 OFFCURVE",
"662 95 OFFCURVE",
"662 250 CURVE SMOOTH",
"662 700 LINE",
"524 700 LINE",
"524 248 LINE SMOOTH",
"524 168 OFFCURVE",
"479 114 OFFCURVE",
"412 114 CURVE SMOOTH",
"306 114 LINE SMOOTH",
"240 114 OFFCURVE",
"196 168 OFFCURVE",
"196 248 CURVE SMOOTH",
"196 700 LINE",
"58 700 LINE",
"58 250 LINE SMOOTH",
"58 95 OFFCURVE",
"157 -8 OFFCURVE",
"306 -8 CURVE SMOOTH"
);
}
);
};
layerId = "EA06CE92-4115-4482-8874-2441C279E756";
paths = (
{
closed = 1;
nodes = (
"412 -8 LINE SMOOTH",
"562 -8 OFFCURVE",
"662 93 OFFCURVE",
"662 244 CURVE SMOOTH",
"662 700 LINE",
"524 700 LINE",
"524 248 LINE SMOOTH",
"524 168 OFFCURVE",
"479 114 OFFCURVE",
"412 114 CURVE SMOOTH",
"306 114 LINE SMOOTH",
"240 114 OFFCURVE",
"196 168 OFFCURVE",
"196 248 CURVE SMOOTH",
"196 700 LINE",
"58 700 LINE",
"58 244 LINE SMOOTH",
"58 93 OFFCURVE",
"157 -8 OFFCURVE",
"306 -8 CURVE SMOOTH"
);
}
);
width = 720;
},
{
anchors = (
{
name = bottom;
position = "{339, 0}";
},
{
name = ogonek;
position = "{453, 0}";
},
{
name = top;
position = "{339, 700}";
},
{
name = topright;
position = "{604, 390}";
}
);
background = {
paths = (
{
closed = 1;
nodes = (
"393 -8 LINE SMOOTH",
"511 -8 OFFCURVE",
"590 77 OFFCURVE",
"590 205 CURVE SMOOTH",
"590 700 LINE",
"554 700 LINE",
"554 203 LINE SMOOTH",
"554 96 OFFCURVE",
"490 25 OFFCURVE",
"393 25 CURVE SMOOTH",
"284 25 LINE SMOOTH",
"188 25 OFFCURVE",
"124 96 OFFCURVE",
"124 203 CURVE SMOOTH",
"124 700 LINE",
"88 700 LINE",
"88 205 LINE SMOOTH",
"88 77 OFFCURVE",
"166 -8 OFFCURVE",
"284 -8 CURVE SMOOTH"
);
}
);
};
layerId = "76C6DC51-463D-4A0C-B694-3EB424048C5D";
paths = (
{
closed = 1;
nodes = (
"394 -8 LINE SMOOTH",
"512 -8 OFFCURVE",
"590 77 OFFCURVE",
"590 204 CURVE SMOOTH",
"590 700 LINE",
"554 700 LINE",
"554 204 LINE SMOOTH",
"554 97 OFFCURVE",
"490 25 OFFCURVE",
"394 25 CURVE SMOOTH",
"284 25 LINE SMOOTH",
"188 25 OFFCURVE",
"124 97 OFFCURVE",
"124 204 CURVE SMOOTH",
"124 700 LINE",
"88 700 LINE",
"88 204 LINE SMOOTH",
"88 77 OFFCURVE",
"166 -8 OFFCURVE",
"284 -8 CURVE SMOOTH"
);
}
);
width = 678;
},
{
anchors = (
{
name = bottom;
position = "{346, 0}";
},
{
name = ogonek;
position = "{461, 0}";
},
{
name = top;
position = "{346, 700}";
},
{
name = topright;
position = "{663, 411}";
}
);
layerId = "BB270C98-E610-4AC3-8B1B-9C54875E1C66";
paths = (
{
closed = 1;
nodes = (
"400 -8 LINE SMOOTH",
"530 -8 OFFCURVE",
"616 84 OFFCURVE",
"616 222 CURVE SMOOTH",
"616 700 LINE",
"542 700 LINE",
"542 220 LINE SMOOTH",
"542 123 OFFCURVE",
"485 58 OFFCURVE",
"400 58 CURVE SMOOTH",
"292 58 LINE SMOOTH",
"207 58 OFFCURVE",
"150 123 OFFCURVE",
"150 220 CURVE SMOOTH",
"150 700 LINE",
"76 700 LINE",
"76 222 LINE SMOOTH",
"76 84 OFFCURVE",
"162 -8 OFFCURVE",
"292 -8 CURVE SMOOTH"
);
}
);
width = 692;
},
{
anchors = (
{
name = bottom;
position = "{326, 0}";
},
{
name = ogonek;
position = "{431, 0}";
},
{
name = top;
position = "{439, 700}";
},
{
name = topright;
position = "{705, 411}";
}
);
background = {
anchors = (
{
name = bottom;
position = "{316, 0}";
},
{
name = ogonek;
position = "{431, 0}";
},
{
name = top;
position = "{439, 700}";
},
{
name = topright;
position = "{705, 411}";
}
);
paths = (
{
closed = 1;
nodes = (
"367 -8 LINE SMOOTH",
"516 -8 OFFCURVE",
"634 92 OFFCURVE",
"661 244 CURVE SMOOTH",
"741 700 LINE",
"603 700 LINE",
"524 248 LINE SMOOTH",
"510 168 OFFCURVE",
"455 114 OFFCURVE",
"388 114 CURVE SMOOTH",
"282 114 LINE SMOOTH",
"217 114 OFFCURVE",
"182 168 OFFCURVE",
"196 248 CURVE SMOOTH",
"275 700 LINE",
"137 700 LINE",
"57 244 LINE SMOOTH",
"31 97 OFFCURVE",
"108 -8 OFFCURVE",
"261 -8 CURVE SMOOTH"
);
}
);
};
layerId = "6404A7B3-B80B-4413-A1A7-686F7DCA7307";
paths = (
{
closed = 1;
nodes = (
"382 -8 LINE SMOOTH",
"532 -8 OFFCURVE",
"633 86 OFFCURVE",
"661 244 CURVE SMOOTH",
"741 700 LINE",
"603 700 LINE",
"524 248 LINE SMOOTH",
"509 164 OFFCURVE",
"459 114 OFFCURVE",
"388 114 CURVE SMOOTH",
"282 114 LINE SMOOTH",
"216 114 OFFCURVE",
"182 168 OFFCURVE",
"196 248 CURVE SMOOTH",
"275 700 LINE",
"137 700 LINE",
"57 244 LINE SMOOTH",
"31 97 OFFCURVE",
"117 -8 OFFCURVE",
"276 -8 CURVE SMOOTH"
);
}
);
width = 720;
},
{
anchors = (
{
name = bottom;
position = "{309, 0}";
},
{
name = ogonek;
position = "{417, 0}";
},
{
name = top;
position = "{425, 700}";
},
{
name = topright;
position = "{691, 411}";
}
);
background = {
paths = (
{
closed = 1;
nodes = (
"366 -8 LINE SMOOTH",
"497 -8 OFFCURVE",
"585 75 OFFCURVE",
"611 222 CURVE SMOOTH",
"695 700 LINE",
"621 700 LINE",
"537 220 LINE SMOOTH",
"519 118 OFFCURVE",
"456 58 OFFCURVE",
"366 58 CURVE SMOOTH",
"258 58 LINE SMOOTH",
"173 58 OFFCURVE",
"128 123 OFFCURVE",
"145 220 CURVE SMOOTH",
"229 700 LINE",
"155 700 LINE",
"71 222 LINE SMOOTH",
"47 84 OFFCURVE",
"122 -8 OFFCURVE",
"258 -8 CURVE SMOOTH"
);
}
);
};
layerId = "A26C2DC2-6E9D-4E0E-A939-3EF723D8B45B";
paths = (
{
closed = 1;
nodes = (
"366 -8 LINE SMOOTH",
"497 -8 OFFCURVE",
"585 75 OFFCURVE",
"611 222 CURVE SMOOTH",
"695 700 LINE",
"621 700 LINE",
"537 220 LINE SMOOTH",
"519 118 OFFCURVE",
"456 58 OFFCURVE",
"366 58 CURVE SMOOTH",
"258 58 LINE SMOOTH",
"173 58 OFFCURVE",
"128 123 OFFCURVE",
"145 220 CURVE SMOOTH",
"229 700 LINE",
"155 700 LINE",
"71 222 LINE SMOOTH",
"47 84 OFFCURVE",
"122 -8 OFFCURVE",
"258 -8 CURVE SMOOTH"
);
}
);
width = 692;
},
{
anchors = (
{
name = bottom;
position = "{303, 0}";
},
{
name = ogonek;
position = "{409, 0}";
},
{
name = top;
position = "{418, 700}";
},
{
name = topright;
position = "{629, 390}";
}
);
background = {
anchors = (
{
name = bottom;
position = "{295, 0}";
},
{
name = ogonek;
position = "{409, 0}";
},
{
name = top;
position = "{418, 700}";
},
{
name = topright;
position = "{629, 390}";
}
);
paths = (
{
closed = 1;
nodes = (
"354 -8 LINE SMOOTH",
"474 -8 OFFCURVE",
"559 71 OFFCURVE",
"582 204 CURVE SMOOTH",
"669 700 LINE",
"633 700 LINE",
"546 204 LINE SMOOTH",
"526 91 OFFCURVE",
"455 25 OFFCURVE",
"354 25 CURVE SMOOTH",
"244 25 LINE SMOOTH",
"148 25 OFFCURVE",
"97 97 OFFCURVE",
"116 204 CURVE SMOOTH",
"203 700 LINE",
"167 700 LINE",
"80 204 LINE SMOOTH",
"58 78 OFFCURVE",
"125 -8 OFFCURVE",
"244 -8 CURVE SMOOTH"
);
}
);
};
layerId = "4CEAA5B1-2F28-4CD4-84D3-78B02271F1AF";
paths = (
{
closed = 1;
nodes = (
"354 -8 LINE SMOOTH",
"474 -8 OFFCURVE",
"559 71 OFFCURVE",
"582 204 CURVE SMOOTH",
"669 700 LINE",
"633 700 LINE",
"546 204 LINE SMOOTH",
"526 91 OFFCURVE",
"455 25 OFFCURVE",
"354 25 CURVE SMOOTH",
"244 25 LINE SMOOTH",
"148 25 OFFCURVE",
"97 97 OFFCURVE",
"116 204 CURVE SMOOTH",
"203 700 LINE",
"167 700 LINE",
"80 204 LINE SMOOTH",
"58 78 OFFCURVE",
"125 -8 OFFCURVE",
"244 -8 CURVE SMOOTH"
);
}
);
width = 678;
}
);
leftKerningGroup = U;
note = U;
rightKerningGroup = U;
rightMetricsKey = "=|";
unicode = 0055;
},
{
glyphname = V;
lastChange = "2018-06-08 17:04:52 +0000";
layers = (
{
anchors = (
{
name = bottom;
position = "{333, 0}";
},
{
name = top;
position = "{333, 700}";
}
);
background = {
paths = (
{
closed = 1;
nodes = (
"395 0 LINE",
"664 700 LINE",
"521 700 LINE",
"336 185 LINE",
"334 185 LINE",
"150 700 LINE",
"6 700 LINE",
"247 64 LINE SMOOTH",
"263 23 OFFCURVE",
"290 0 OFFCURVE",
"330 0 CURVE SMOOTH"
);
}
);
};
layerId = "EA06CE92-4115-4482-8874-2441C279E756";
paths = (
{
closed = 1;
nodes = (
"393 0 LINE",
"662 700 LINE",
"519 700 LINE",
"334 175 LINE",
"332 175 LINE",
"148 700 LINE",
"4 700 LINE",
"245 64 LINE SMOOTH",
"261 23 OFFCURVE",
"288 0 OFFCURVE",
"328 0 CURVE SMOOTH"
);
}
);
width = 666;
},
{
anchors = (
{
name = bottom;
position = "{309, 0}";
},
{
name = top;
position = "{309, 700}";
}
);
background = {
paths = (
{
closed = 1;
nodes = (
"284 8 OFFCURVE",
"294 0 OFFCURVE",
"310 0 CURVE SMOOTH",
"326 0 LINE",
"583 700 LINE",
"545 700 LINE",
"308 43 LINE",
"307 43 LINE",
"72 700 LINE",
"34 700 LINE",
"278 25 LINE SMOOTH"
);
}
);
};
layerId = "76C6DC51-463D-4A0C-B694-3EB424048C5D";
paths = (
{
closed = 1;
nodes = (
"327 0 LINE",
"583 700 LINE",
"545 700 LINE",
"309 47 LINE",
"308 47 LINE",
"72 700 LINE",
"34 700 LINE",
"279 25 LINE SMOOTH",
"285 8 OFFCURVE",
"296 0 OFFCURVE",
"312 0 CURVE SMOOTH"
);
}
);
width = 617;
},
{
anchors = (
{
name = bottom;
position = "{317, 0}";
},
{
name = top;
position = "{317, 700}";
}
);
layerId = "BB270C98-E610-4AC3-8B1B-9C54875E1C66";
paths = (
{
closed = 1;
nodes = (
"352 0 LINE",
"612 700 LINE",
"536 700 LINE",
"317 89 LINE",
"316 89 LINE",
"98 700 LINE",
"22 700 LINE",
"261 46 LINE SMOOTH",
"273 14 OFFCURVE",
"289 0 OFFCURVE",
"314 0 CURVE SMOOTH"
);
}
);
width = 634;
},
{
anchors = (
{
name = bottom;
position = "{289, 0}";
},
{
name = top;
position = "{412, 700}";
}
);
background = {
paths = (
{
closed = 1;
nodes = (
"349 0 LINE",
"741 700 LINE",
"598 700 LINE",
"320 175 LINE",
"318 175 LINE",
"227 700 LINE",
"83 700 LINE",
"212 64 LINE SMOOTH",
"220 23 OFFCURVE",
"244 0 OFFCURVE",
"284 0 CURVE SMOOTH"
);
}
);
};
layerId = "6404A7B3-B80B-4413-A1A7-686F7DCA7307";
paths = (
{
closed = 1;
nodes = (
"349 0 LINE",
"741 700 LINE",
"592 700 LINE",
"314 175 LINE",
"312 175 LINE",
"221 700 LINE",
"83 700 LINE",
"212 64 LINE SMOOTH",
"220 23 OFFCURVE",
"244 0 OFFCURVE",
"284 0 CURVE SMOOTH"
);
}
);
width = 666;
},
{
anchors = (
{
name = bottom;
position = "{273, 0}";
},
{
name = top;
position = "{396, 700}";
}
);
background = {
paths = (
{
closed = 1;
nodes = (
"308 0 LINE",
"691 700 LINE",
"615 700 LINE",
"288 89 LINE",
"287 89 LINE",
"177 700 LINE",
"101 700 LINE",
"225 46 LINE SMOOTH",
"231 14 OFFCURVE",
"245 0 OFFCURVE",
"270 0 CURVE SMOOTH"
);
}
);
};
layerId = "A26C2DC2-6E9D-4E0E-A939-3EF723D8B45B";
paths = (
{
closed = 1;
nodes = (
"308 0 LINE",
"691 700 LINE",
"610 700 LINE",
"283 89 LINE",
"282 89 LINE",
"172 700 LINE",
"101 700 LINE",
"225 46 LINE SMOOTH",
"231 14 OFFCURVE",
"245 0 OFFCURVE",
"270 0 CURVE SMOOTH"
);
}
);
width = 634;
},
{
anchors = (
{
name = bottom;
position = "{265, 0}";
},
{
name = top;
position = "{388, 700}";
}
);
background = {
anchors = (
{
name = bottom;
position = "{265, 0}";
},
{
name = top;
position = "{388, 700}";
}
);
paths = (
{
closed = 1;
nodes = (
"283 0 LINE",
"662 700 LINE",
"622 700 LINE",
"271 47 LINE",
"270 47 LINE",
"149 700 LINE",
"113 700 LINE",
"239 25 LINE SMOOTH",
"242 8 OFFCURVE",
"252 0 OFFCURVE",
"268 0 CURVE SMOOTH"
);
}
);
};
layerId = "4CEAA5B1-2F28-4CD4-84D3-78B02271F1AF";
paths = (
{
closed = 1;
nodes = (
"283 0 LINE",
"662 700 LINE",
"622 700 LINE",
"271 47 LINE",
"270 47 LINE",
"149 700 LINE",
"113 700 LINE",
"239 25 LINE SMOOTH",
"242 8 OFFCURVE",
"252 0 OFFCURVE",
"268 0 CURVE SMOOTH"
);
}
);
width = 617;
}
);
note = V;
rightMetricsKey = "=|";
unicode = 0056;
},
{
glyphname = W;
lastChange = "2018-06-07 19:37:58 +0000";
layers = (
{
anchors = (
{
name = bottom;
position = "{443, 0}";
},
{
name = top;
position = "{440, 700}";
}
);
background = {
paths = (
{
closed = 1;
nodes = (
"289 0 LINE",
"457 527 LINE",
"426 527 LINE",
"592 0 LINE",
"650 0 LINE SMOOTH",
"700 0 OFFCURVE",
"728 25 OFFCURVE",
"738 78 CURVE SMOOTH",
"851 700 LINE",
"711 700 LINE",
"630 159 LINE",
"650 159 LINE",
"513 603 LINE SMOOTH",
"500 644 OFFCURVE",
"478 663 OFFCURVE",
"441 663 CURVE SMOOTH",
"391 663 LINE",
"231 159 LINE",
"251 159 LINE",
"170 700 LINE",
"30 700 LINE",
"142 78 LINE SMOOTH",
"152 25 OFFCURVE",
"180 0 OFFCURVE",
"231 0 CURVE SMOOTH"
);
}
);
};
layerId = "EA06CE92-4115-4482-8874-2441C279E756";
paths = (
{
closed = 1;
nodes = (
"287 0 LINE",
"439 480 LINE",
"441 480 LINE",
"590 0 LINE",
"648 0 LINE SMOOTH",
"698 0 OFFCURVE",
"725 25 OFFCURVE",
"736 78 CURVE SMOOTH",
"861 700 LINE",
"721 700 LINE",
"635 204 LINE",
"633 204 LINE",
"511 603 LINE SMOOTH",
"496 652 OFFCURVE",
"468 663 OFFCURVE",
"439 663 CURVE SMOOTH",
"389 663 LINE",
"244 203 LINE",
"242 203 LINE",
"156 700 LINE",
"16 700 LINE",
"140 78 LINE SMOOTH",
"153 15 OFFCURVE",
"189 0 OFFCURVE",
"229 0 CURVE SMOOTH"
);
}
);
width = 877;
},
{
anchors = (
{
name = bottom;
position = "{414, 0}";
},
{
name = top;
position = "{414, 700}";
}
);
background = {
paths = (
{
closed = 1;
nodes = (
"223 0 LINE",
"418 612 LINE",
"419 612 LINE",
"604 0 LINE",
"622 0 LINE SMOOTH",
"645 0 OFFCURVE",
"657 12 OFFCURVE",
"661 37 CURVE SMOOTH",
"769 700 LINE",
"732 700 LINE",
"627 39 LINE",
"626 39 LINE",
"445 639 LINE SMOOTH",
"440 655 OFFCURVE",
"429 663 OFFCURVE",
"414 663 CURVE SMOOTH",
"400 663 LINE",
"201 39 LINE",
"200 39 LINE",
"95 700 LINE",
"58 700 LINE",
"166 37 LINE SMOOTH",
"170 12 OFFCURVE",
"183 0 OFFCURVE",
"205 0 CURVE SMOOTH"
);
}
);
};
layerId = "76C6DC51-463D-4A0C-B694-3EB424048C5D";
paths = (
{
closed = 1;
nodes = (
"223 0 LINE",
"418 612 LINE",
"419 612 LINE",
"604 0 LINE",
"622 0 LINE SMOOTH",
"645 0 OFFCURVE",
"656 12 OFFCURVE",
"661 37 CURVE SMOOTH",
"781 700 LINE",
"744 700 LINE",
"627 39 LINE",
"626 39 LINE",
"445 639 LINE SMOOTH",
"440 655 OFFCURVE",
"429 663 OFFCURVE",
"414 663 CURVE SMOOTH",
"400 663 LINE",
"201 39 LINE",
"200 39 LINE",
"83 700 LINE",
"46 700 LINE",
"166 37 LINE SMOOTH",
"171 12 OFFCURVE",
"183 0 OFFCURVE",
"205 0 CURVE SMOOTH"
);
}
);
width = 827;
},
{
anchors = (
{
name = bottom;
position = "{422, 0}";
},
{
name = top;
position = "{422, 700}";
}
);
background = {
paths = (
{
closed = 1;
nodes = (
"249 0 LINE",
"424 564 LINE",
"425 564 LINE",
"595 0 LINE",
"625 0 LINE SMOOTH",
"662 0 OFFCURVE",
"683 20 OFFCURVE",
"691 65 CURVE SMOOTH",
"798 700 LINE",
"725 700 LINE",
"628 96 LINE",
"627 96 LINE",
"471 620 LINE SMOOTH",
"462 649 OFFCURVE",
"448 663 OFFCURVE",
"424 663 CURVE SMOOTH",
"393 663 LINE",
"217 96 LINE",
"216 96 LINE",
"119 700 LINE",
"46 700 LINE",
"153 65 LINE SMOOTH",
"161 20 OFFCURVE",
"182 0 OFFCURVE",
"219 0 CURVE SMOOTH"
);
}
);
};
layerId = "BB270C98-E610-4AC3-8B1B-9C54875E1C66";
paths = (
{
closed = 1;
nodes = (
"249 0 LINE",
"424 564 LINE",
"425 564 LINE",
"595 0 LINE",
"625 0 LINE SMOOTH",
"662 0 OFFCURVE",
"683 20 OFFCURVE",
"691 65 CURVE SMOOTH",
"810 700 LINE",
"737 700 LINE",
"628 96 LINE",
"627 96 LINE",
"471 620 LINE SMOOTH",
"462 649 OFFCURVE",
"448 663 OFFCURVE",
"424 663 CURVE SMOOTH",
"393 663 LINE",
"217 96 LINE",
"216 96 LINE",
"107 700 LINE",
"34 700 LINE",
"153 65 LINE SMOOTH",
"161 20 OFFCURVE",
"182 0 OFFCURVE",
"219 0 CURVE SMOOTH"
);
}
);
width = 844;
},
{
anchors = (
{
name = bottom;
position = "{399, 0}";
},
{
name = top;
position = "{519, 700}";
}
);
background = {
paths = (
{
closed = 1;
nodes = (
"243 0 LINE",
"479 480 LINE",
"481 480 LINE",
"546 0 LINE",
"604 0 LINE SMOOTH",
"653 0 OFFCURVE",
"685 24 OFFCURVE",
"705 78 CURVE SMOOTH",
"940 700 LINE",
"800 700 LINE",
"627 204 LINE",
"625 204 LINE",
"573 603 LINE SMOOTH",
"567 652 OFFCURVE",
"539 663 OFFCURVE",
"511 663 CURVE SMOOTH",
"461 663 LINE",
"235 203 LINE",
"233 203 LINE",
"235 700 LINE",
"95 700 LINE",
"110 78 LINE SMOOTH",
"112 7 OFFCURVE",
"153 0 OFFCURVE",
"185 0 CURVE SMOOTH"
);
}
);
};
layerId = "6404A7B3-B80B-4413-A1A7-686F7DCA7307";
paths = (
{
closed = 1;
nodes = (
"243 0 LINE",
"479 480 LINE",
"481 480 LINE",
"546 0 LINE",
"604 0 LINE SMOOTH",
"653 0 OFFCURVE",
"685 24 OFFCURVE",
"705 78 CURVE SMOOTH",
"940 700 LINE",
"799 700 LINE",
"624 204 LINE",
"622 204 LINE",
"569 603 LINE SMOOTH",
"562 652 OFFCURVE",
"535 663 OFFCURVE",
"507 663 CURVE SMOOTH",
"457 663 LINE",
"231 203 LINE",
"229 203 LINE",
"232 700 LINE",
"95 700 LINE",
"110 78 LINE SMOOTH",
"112 7 OFFCURVE",
"153 0 OFFCURVE",
"185 0 CURVE SMOOTH"
);
}
);
width = 877;
},
{
anchors = (
{
name = bottom;
position = "{378, 0}";
},
{
name = top;
position = "{501, 700}";
}
);
background = {
paths = (
{
closed = 1;
nodes = (
"205 0 LINE",
"479 564 LINE",
"480 564 LINE",
"551 0 LINE",
"581 0 LINE SMOOTH",
"624 0 OFFCURVE",
"644 27 OFFCURVE",
"658 65 CURVE SMOOTH",
"889 700 LINE",
"814 700 LINE",
"598 96 LINE",
"597 96 LINE",
"534 620 LINE SMOOTH",
"530 655 OFFCURVE",
"513 663 OFFCURVE",
"494 663 CURVE SMOOTH",
"463 663 LINE",
"187 96 LINE",
"186 96 LINE",
"184 700 LINE",
"113 700 LINE",
"120 65 LINE SMOOTH",
"121 19 OFFCURVE",
"138 0 OFFCURVE",
"175 0 CURVE SMOOTH"
);
}
);
};
layerId = "A26C2DC2-6E9D-4E0E-A939-3EF723D8B45B";
paths = (
{
closed = 1;
nodes = (
"205 0 LINE",
"479 564 LINE",
"480 564 LINE",
"551 0 LINE",
"581 0 LINE SMOOTH",
"624 0 OFFCURVE",
"644 27 OFFCURVE",
"658 65 CURVE SMOOTH",
"889 700 LINE",
"814 700 LINE",
"598 96 LINE",
"597 96 LINE",
"534 620 LINE SMOOTH",
"530 655 OFFCURVE",
"513 663 OFFCURVE",
"494 663 CURVE SMOOTH",
"463 663 LINE",
"187 96 LINE",
"186 96 LINE",
"184 700 LINE",
"113 700 LINE",
"120 65 LINE SMOOTH",
"121 19 OFFCURVE",
"138 0 OFFCURVE",
"175 0 CURVE SMOOTH"
);
}
);
width = 844;
},
{
anchors = (
{
name = bottom;
position = "{370, 0}";
},
{
name = top;
position = "{493, 700}";
}
);
background = {
anchors = (
{
name = bottom;
position = "{370, 0}";
},
{
name = top;
position = "{493, 700}";
}
);
paths = (
{
closed = 1;
nodes = (
"179 0 LINE",
"481 612 LINE",
"482 612 LINE",
"560 0 LINE",
"578 0 LINE SMOOTH",
"600 0 OFFCURVE",
"614 12 OFFCURVE",
"623 37 CURVE SMOOTH",
"860 700 LINE",
"821 700 LINE",
"587 39 LINE",
"586 39 LINE",
"511 639 LINE SMOOTH",
"509 655 OFFCURVE",
"499 663 OFFCURVE",
"484 663 CURVE SMOOTH",
"470 663 LINE",
"162 39 LINE",
"161 39 LINE",
"160 700 LINE",
"125 700 LINE",
"128 37 LINE SMOOTH",
"128 12 OFFCURVE",
"139 0 OFFCURVE",
"161 0 CURVE SMOOTH"
);
}
);
};
layerId = "4CEAA5B1-2F28-4CD4-84D3-78B02271F1AF";
paths = (
{
closed = 1;
nodes = (
"179 0 LINE",
"481 612 LINE",
"482 612 LINE",
"560 0 LINE",
"578 0 LINE SMOOTH",
"600 0 OFFCURVE",
"614 12 OFFCURVE",
"623 37 CURVE SMOOTH",
"860 700 LINE",
"821 700 LINE",
"587 39 LINE",
"586 39 LINE",
"511 639 LINE SMOOTH",
"509 655 OFFCURVE",
"499 663 OFFCURVE",
"484 663 CURVE SMOOTH",
"470 663 LINE",
"162 39 LINE",
"161 39 LINE",
"160 700 LINE",
"125 700 LINE",
"128 37 LINE SMOOTH",
"128 12 OFFCURVE",
"139 0 OFFCURVE",
"161 0 CURVE SMOOTH"
);
}
);
width = 827;
}
);
leftKerningGroup = W;
note = W;
rightKerningGroup = W;
rightMetricsKey = "=|";
unicode = 0057;
},
{
glyphname = X;
lastChange = "2018-06-08 16:44:04 +0000";
layers = (
{
anchors = (
{
name = bottom;
position = "{320, 0}";
},
{
name = top;
position = "{320, 700}";
}
);
background = {
paths = (
{
closed = 1;
nodes = (
"643 0 LINE",
"165 700 LINE",
"8 700 LINE",
"486 0 LINE"
);
},
{
closed = 1;
nodes = (
"155 0 LINE",
"633 700 LINE",
"477 700 LINE",
"-2 0 LINE"
);
}
);
};
layerId = "EA06CE92-4115-4482-8874-2441C279E756";
paths = (
{
closed = 1;
nodes = (
"155 0 LINE",
"321 244 LINE",
"486 0 LINE",
"643 0 LINE",
"399 357 LINE",
"633 700 LINE",
"477 700 LINE",
"321 470 LINE",
"165 700 LINE",
"8 700 LINE",
"242 357 LINE",
"-2 0 LINE"
);
}
);
width = 641;
},
{
anchors = (
{
name = bottom;
position = "{295, 0}";
},
{
name = top;
position = "{295, 700}";
}
);
background = {
paths = (
{
closed = 1;
nodes = (
"565 0 LINE",
"78 700 LINE",
"36 700 LINE",
"523 0 LINE"
);
},
{
closed = 1;
nodes = (
"68 0 LINE",
"555 700 LINE",
"513 700 LINE",
"26 0 LINE"
);
}
);
};
layerId = "76C6DC51-463D-4A0C-B694-3EB424048C5D";
paths = (
{
closed = 1;
nodes = (
"68 0 LINE",
"296 327 LINE",
"523 0 LINE",
"565 0 LINE",
"317 357 LINE",
"555 700 LINE",
"513 700 LINE",
"296 387 LINE",
"78 700 LINE",
"36 700 LINE",
"275 357 LINE",
"26 0 LINE"
);
}
);
width = 591;
},
{
anchors = (
{
name = bottom;
position = "{305, 0}";
},
{
name = top;
position = "{305, 700}";
}
);
background = {
paths = (
{
closed = 1;
nodes = (
"595 0 LINE",
"109 700 LINE",
"26 700 LINE",
"512 0 LINE"
);
},
{
closed = 1;
nodes = (
"99 0 LINE",
"585 700 LINE",
"503 700 LINE",
"16 0 LINE"
);
}
);
};
layerId = "BB270C98-E610-4AC3-8B1B-9C54875E1C66";
paths = (
{
closed = 1;
nodes = (
"99 0 LINE",
"306 297 LINE",
"512 0 LINE",
"595 0 LINE",
"347 357 LINE",
"585 700 LINE",
"503 700 LINE",
"306 418 LINE",
"109 700 LINE",
"26 700 LINE",
"264 357 LINE",
"16 0 LINE"
);
}
);
width = 611;
},
{
anchors = (
{
name = bottom;
position = "{276, 0}";
},
{
name = top;
position = "{399, 700}";
}
);
background = {
paths = (
{
closed = 1;
nodes = (
"117 0 LINE",
"323 244 LINE",
"448 0 LINE",
"599 0 LINE",
"417 353 LINE",
"712 700 LINE",
"550 700 LINE",
"356 470 LINE",
"238 700 LINE",
"87 700 LINE",
"262 361 LINE",
"-46 0 LINE"
);
}
);
};
layerId = "6404A7B3-B80B-4413-A1A7-686F7DCA7307";
paths = (
{
closed = 1;
nodes = (
"116 0 LINE",
"324 245 LINE",
"449 0 LINE",
"599 0 LINE",
"417 353 LINE",
"712 700 LINE",
"551 700 LINE",
"355 469 LINE",
"237 700 LINE",
"87 700 LINE",
"262 361 LINE",
"-46 0 LINE"
);
}
);
width = 641;
},
{
anchors = (
{
name = bottom;
position = "{261, 0}";
},
{
name = top;
position = "{384, 700}";
}
);
background = {
paths = (
{
closed = 1;
nodes = (
"551 0 LINE",
"188 700 LINE",
"105 700 LINE",
"468 0 LINE"
);
},
{
closed = 1;
nodes = (
"55 0 LINE",
"664 700 LINE",
"582 700 LINE",
"-28 0 LINE"
);
}
);
};
layerId = "A26C2DC2-6E9D-4E0E-A939-3EF723D8B45B";
paths = (
{
closed = 1;
nodes = (
"60 0 LINE",
"317 297 LINE",
"473 0 LINE",
"551 0 LINE",
"365 354 LINE",
"664 700 LINE",
"577 700 LINE",
"332 417 LINE",
"183 700 LINE",
"105 700 LINE",
"284 360 LINE",
"-28 0 LINE"
);
}
);
width = 611;
},
{
anchors = (
{
name = bottom;
position = "{251, 0}";
},
{
name = top;
position = "{374, 700}";
}
);
background = {
paths = (
{
closed = 1;
nodes = (
"521 0 LINE",
"157 700 LINE",
"115 700 LINE",
"479 0 LINE"
);
},
{
closed = 1;
nodes = (
"24 0 LINE",
"634 700 LINE",
"592 700 LINE",
"-18 0 LINE"
);
}
);
};
layerId = "4CEAA5B1-2F28-4CD4-84D3-78B02271F1AF";
paths = (
{
closed = 1;
nodes = (
"27 0 LINE",
"311 327 LINE",
"482 0 LINE",
"521 0 LINE",
"335 355 LINE",
"634 700 LINE",
"589 700 LINE",
"318 387 LINE",
"154 700 LINE",
"115 700 LINE",
"294 359 LINE",
"-18 0 LINE"
);
}
);
width = 591;
}
);
note = X;
rightMetricsKey = "=|";
unicode = 0058;
},
{
glyphname = Y;
lastChange = "2018-06-07 19:38:03 +0000";
layers = (
{
anchors = (
{
name = bottom;
position = "{326, 0}";
},
{
name = top;
position = "{326, 700}";
},
{
name = topleft;
position = "{11, 700}";
}
);
background = {
paths = (
{
closed = 1;
nodes = (
"395 0 LINE",
"395 272 LINE",
"654 700 LINE",
"504 700 LINE",
"326 399 LINE",
"148 700 LINE",
"-2 700 LINE",
"257 272 LINE",
"257 0 LINE"
);
}
);
};
layerId = "EA06CE92-4115-4482-8874-2441C279E756";
paths = (
{
closed = 1;
nodes = (
"395 0 LINE",
"395 272 LINE",
"654 700 LINE",
"504 700 LINE",
"326 399 LINE",
"148 700 LINE",
"-2 700 LINE",
"257 272 LINE",
"257 0 LINE"
);
}
);
width = 652;
},
{
anchors = (
{
name = bottom;
position = "{303, 0}";
},
{
name = top;
position = "{303, 700}";
},
{
name = topleft;
position = "{-12, 700}";
}
);
background = {
paths = (
{
closed = 1;
nodes = (
"321 0 LINE",
"321 267 LINE",
"578 700 LINE",
"540 700 LINE",
"303 298 LINE",
"66 700 LINE",
"28 700 LINE",
"285 267 LINE",
"285 0 LINE"
);
}
);
};
layerId = "76C6DC51-463D-4A0C-B694-3EB424048C5D";
paths = (
{
closed = 1;
nodes = (
"321 0 LINE",
"321 267 LINE",
"578 700 LINE",
"539 700 LINE",
"303 300 LINE",
"67 700 LINE",
"28 700 LINE",
"285 267 LINE",
"285 0 LINE"
);
}
);
width = 606;
},
{
anchors = (
{
name = bottom;
position = "{311, 0}";
},
{
name = top;
position = "{311, 700}";
},
{
name = topleft;
position = "{-4, 700}";
}
);
layerId = "BB270C98-E610-4AC3-8B1B-9C54875E1C66";
paths = (
{
closed = 1;
nodes = (
"348 0 LINE",
"348 269 LINE",
"606 700 LINE",
"526 700 LINE",
"311 336 LINE",
"96 700 LINE",
"16 700 LINE",
"274 269 LINE",
"274 0 LINE"
);
}
);
width = 622;
},
{
anchors = (
{
name = bottom;
position = "{282, 0}";
},
{
name = top;
position = "{405, 700}";
},
{
name = topleft;
position = "{90, 700}";
}
);
background = {
paths = (
{
closed = 1;
nodes = (
"351 0 LINE",
"399 272 LINE",
"733 700 LINE",
"583 700 LINE",
"352 399 LINE",
"227 700 LINE",
"77 700 LINE",
"261 272 LINE",
"213 0 LINE"
);
}
);
};
layerId = "6404A7B3-B80B-4413-A1A7-686F7DCA7307";
paths = (
{
closed = 1;
nodes = (
"351 0 LINE",
"399 272 LINE",
"733 700 LINE",
"575 700 LINE",
"344 399 LINE",
"219 700 LINE",
"77 700 LINE",
"261 272 LINE",
"213 0 LINE"
);
}
);
width = 652;
},
{
anchors = (
{
name = bottom;
position = "{267, 0}";
},
{
name = top;
position = "{390, 700}";
},
{
name = topleft;
position = "{75, 700}";
}
);
background = {
paths = (
{
closed = 1;
nodes = (
"304 0 LINE",
"351 269 LINE",
"685 700 LINE",
"600 700 LINE",
"321 336 LINE",
"170 700 LINE",
"95 700 LINE",
"277 269 LINE",
"230 0 LINE"
);
}
);
};
layerId = "A26C2DC2-6E9D-4E0E-A939-3EF723D8B45B";
paths = (
{
closed = 1;
nodes = (
"304 0 LINE",
"351 269 LINE",
"685 700 LINE",
"600 700 LINE",
"321 336 LINE",
"170 700 LINE",
"95 700 LINE",
"277 269 LINE",
"230 0 LINE"
);
}
);
width = 622;
},
{
anchors = (
{
name = bottom;
position = "{259, 0}";
},
{
name = top;
position = "{382, 700}";
},
{
name = topleft;
position = "{67, 700}";
}
);
background = {
anchors = (
{
name = bottom;
position = "{259, 0}";
},
{
name = top;
position = "{382, 700}";
},
{
name = topleft;
position = "{67, 700}";
}
);
paths = (
{
closed = 1;
nodes = (
"277 0 LINE",
"324 267 LINE",
"657 700 LINE",
"616 700 LINE",
"309 300 LINE",
"144 700 LINE",
"107 700 LINE",
"288 267 LINE",
"241 0 LINE"
);
}
);
};
layerId = "4CEAA5B1-2F28-4CD4-84D3-78B02271F1AF";
paths = (
{
closed = 1;
nodes = (
"277 0 LINE",
"324 267 LINE",
"657 700 LINE",
"616 700 LINE",
"309 300 LINE",
"144 700 LINE",
"107 700 LINE",
"288 267 LINE",
"241 0 LINE"
);
}
);
width = 606;
}
);
leftKerningGroup = Y;
note = Y;
rightKerningGroup = Y;
rightMetricsKey = "=|";
unicode = 0059;
},
{
glyphname = Z;
lastChange = "2018-06-07 14:34:00 +0000";
layers = (
{
anchors = (
{
name = bottom;
position = "{303, 0}";
},
{
name = top;
position = "{303, 700}";
}
);
background = {
paths = (
{
closed = 1;
nodes = (
"576 0 LINE",
"576 119 LINE",
"214 119 LINE",
"586 632 LINE",
"586 700 LINE",
"42 700 LINE",
"42 581 LINE",
"396 581 LINE",
"24 68 LINE",
"24 0 LINE"
);
}
);
};
layerId = "EA06CE92-4115-4482-8874-2441C279E756";
paths = (
{
closed = 1;
nodes = (
"574 0 LINE",
"574 118 LINE",
"211 118 LINE",
"584 632 LINE",
"584 700 LINE",
"40 700 LINE",
"40 582 LINE",
"393 582 LINE",
"22 68 LINE",
"22 0 LINE"
);
}
);
width = 606;
},
{
anchors = (
{
name = bottom;
position = "{286, 0}";
},
{
name = top;
position = "{286, 700}";
}
);
background = {
paths = (
{
closed = 1;
nodes = (
"506 0 LINE",
"506 32 LINE",
"107 32 LINE",
"516 682 LINE",
"516 700 LINE",
"74 700 LINE",
"74 668 LINE",
"465 668 LINE",
"56 18 LINE",
"56 0 LINE"
);
}
);
};
layerId = "76C6DC51-463D-4A0C-B694-3EB424048C5D";
paths = (
{
closed = 1;
nodes = (
"506 0 LINE",
"506 32 LINE",
"106 32 LINE",
"516 682 LINE",
"516 700 LINE",
"74 700 LINE",
"74 668 LINE",
"466 668 LINE",
"56 18 LINE",
"56 0 LINE"
);
}
);
width = 572;
},
{
anchors = (
{
name = bottom;
position = "{289, 0}";
},
{
name = top;
position = "{289, 700}";
}
);
layerId = "BB270C98-E610-4AC3-8B1B-9C54875E1C66";
paths = (
{
closed = 1;
nodes = (
"528 0 LINE",
"528 63 LINE",
"142 63 LINE",
"538 667 LINE",
"538 700 LINE",
"58 700 LINE",
"58 637 LINE",
"436 637 LINE",
"40 33 LINE",
"40 0 LINE"
);
}
);
width = 578;
},
{
anchors = (
{
name = bottom;
position = "{259, 0}";
},
{
name = top;
position = "{382, 700}";
}
);
background = {
paths = (
{
closed = 1;
nodes = (
"530 0 LINE",
"551 118 LINE",
"188 118 LINE",
"651 632 LINE",
"663 700 LINE",
"119 700 LINE",
"99 582 LINE",
"452 582 LINE",
"-10 68 LINE",
"-22 0 LINE"
);
}
);
};
layerId = "6404A7B3-B80B-4413-A1A7-686F7DCA7307";
paths = (
{
closed = 1;
nodes = (
"530 0 LINE",
"551 118 LINE",
"191 118 LINE",
"651 632 LINE",
"663 700 LINE",
"119 700 LINE",
"99 582 LINE",
"449 582 LINE",
"-10 68 LINE",
"-22 0 LINE"
);
}
);
width = 606;
},
{
anchors = (
{
name = bottom;
position = "{245, 0}";
},
{
name = top;
position = "{368, 700}";
}
);
layerId = "A26C2DC2-6E9D-4E0E-A939-3EF723D8B45B";
paths = (
{
closed = 1;
nodes = (
"484 0 LINE",
"495 63 LINE",
"110 63 LINE",
"612 667 LINE",
"617 700 LINE",
"137 700 LINE",
"126 637 LINE",
"503 637 LINE",
"2 33 LINE",
"-4 0 LINE"
);
}
);
width = 578;
},
{
anchors = (
{
name = bottom;
position = "{242, 0}";
},
{
name = top;
position = "{365, 700}";
}
);
background = {
paths = (
{
closed = 1;
nodes = (
"462 0 LINE",
"468 32 LINE",
"68 32 LINE",
"592 682 LINE",
"595 700 LINE",
"153 700 LINE",
"148 668 LINE",
"540 668 LINE",
"15 18 LINE",
"12 0 LINE"
);
}
);
};
layerId = "4CEAA5B1-2F28-4CD4-84D3-78B02271F1AF";
paths = (
{
closed = 1;
nodes = (
"462 0 LINE",
"468 32 LINE",
"69 32 LINE",
"592 682 LINE",
"595 700 LINE",
"153 700 LINE",
"148 668 LINE",
"539 668 LINE",
"15 18 LINE",
"12 0 LINE"
);
}
);
width = 572;
}
);
leftKerningGroup = Z;
note = Z;
rightKerningGroup = Z;
rightMetricsKey = "=|";
unicode = 005A;
},
{
glyphname = a;
lastChange = "2018-06-08 17:05:23 +0000";
layers = (
{
anchors = (
{
name = bottom;
position = "{304, 0}";
},
{
name = ogonek;
position = "{532, 0}";
},
{
name = top;
position = "{298, 499}";
}
);
background = {
paths = (
{
closed = 1;
nodes = (
"278 -8 LINE SMOOTH",
"323 -8 OFFCURVE",
"374 19 OFFCURVE",
"406 60 CURVE",
"406 0 LINE",
"532 0 LINE",
"532 337 LINE SMOOTH",
"532 439 OFFCURVE",
"454 507 OFFCURVE",
"336 507 CURVE SMOOTH",
"250 507 LINE SMOOTH",
"134 507 OFFCURVE",
"56 442 OFFCURVE",
"56 345 CURVE",
"188 345 LINE",
"188 374 OFFCURVE",
"213 393 OFFCURVE",
"250 393 CURVE SMOOTH",
"336 393 LINE SMOOTH",
"372 393 OFFCURVE",
"396 371 OFFCURVE",
"396 337 CURVE SMOOTH",
"396 285 LINE",
"363 301 OFFCURVE",
"319 311 OFFCURVE",
"285 311 CURVE SMOOTH",
"224 311 LINE SMOOTH",
"115 311 OFFCURVE",
"42 255 OFFCURVE",
"42 171 CURVE SMOOTH",
"42 134 LINE SMOOTH",
"42 49 OFFCURVE",
"112 -8 OFFCURVE",
"216 -8 CURVE SMOOTH"
);
},
{
closed = 1;
nodes = (
"198 96 OFFCURVE",
"174 113 OFFCURVE",
"174 139 CURVE SMOOTH",
"174 165 LINE SMOOTH",
"174 191 OFFCURVE",
"196 209 OFFCURVE",
"228 209 CURVE SMOOTH",
"291 209 LINE SMOOTH",
"333 209 OFFCURVE",
"375 199 OFFCURVE",
"396 183 CURVE",
"396 166 LINE",
"379 124 OFFCURVE",
"337 96 OFFCURVE",
"288 96 CURVE SMOOTH",
"234 96 LINE SMOOTH"
);
}
);
};
layerId = "EA06CE92-4115-4482-8874-2441C279E756";
paths = (
{
closed = 1;
nodes = (
"278 -8 LINE SMOOTH",
"323 -8 OFFCURVE",
"374 19 OFFCURVE",
"406 60 CURVE",
"406 0 LINE",
"532 0 LINE",
"532 337 LINE SMOOTH",
"532 439 OFFCURVE",
"454 507 OFFCURVE",
"336 507 CURVE SMOOTH",
"250 507 LINE SMOOTH",
"134 507 OFFCURVE",
"56 442 OFFCURVE",
"56 345 CURVE",
"188 345 LINE",
"188 374 OFFCURVE",
"213 393 OFFCURVE",
"250 393 CURVE SMOOTH",
"336 393 LINE SMOOTH",
"372 393 OFFCURVE",
"396 371 OFFCURVE",
"396 337 CURVE SMOOTH",
"396 285 LINE",
"363 301 OFFCURVE",
"319 311 OFFCURVE",
"285 311 CURVE SMOOTH",
"224 311 LINE SMOOTH",
"115 311 OFFCURVE",
"42 255 OFFCURVE",
"42 171 CURVE SMOOTH",
"42 134 LINE SMOOTH",
"42 49 OFFCURVE",
"112 -8 OFFCURVE",
"216 -8 CURVE SMOOTH"
);
},
{
closed = 1;
nodes = (
"198 96 OFFCURVE",
"174 113 OFFCURVE",
"174 139 CURVE SMOOTH",
"174 165 LINE SMOOTH",
"174 191 OFFCURVE",
"196 209 OFFCURVE",
"228 209 CURVE SMOOTH",
"291 209 LINE SMOOTH",
"333 209 OFFCURVE",
"375 199 OFFCURVE",
"396 183 CURVE",
"396 166 LINE",
"379 124 OFFCURVE",
"337 96 OFFCURVE",
"288 96 CURVE SMOOTH",
"234 96 LINE SMOOTH"
);
}
);
width = 584;
},
{
anchors = (
{
name = bottom;
position = "{270, 0}";
},
{
name = ogonek;
position = "{458, 0}";
},
{
name = top;
position = "{274, 499}";
}
);
background = {
paths = (
{
closed = 1;
nodes = (
"280 -8 LINE SMOOTH",
"332 -8 OFFCURVE",
"388 33 OFFCURVE",
"424 90 CURVE",
"424 0 LINE",
"458 0 LINE",
"458 356 LINE SMOOTH",
"458 447 OFFCURVE",
"399 507 OFFCURVE",
"311 507 CURVE SMOOTH",
"235 507 LINE SMOOTH",
"144 507 OFFCURVE",
"84 459 OFFCURVE",
"84 387 CURVE",
"119 387 LINE",
"119 440 OFFCURVE",
"166 475 OFFCURVE",
"235 475 CURVE SMOOTH",
"311 475 LINE SMOOTH",
"378 475 OFFCURVE",
"423 427 OFFCURVE",
"423 356 CURVE SMOOTH",
"423 245 LINE",
"388 273 OFFCURVE",
"333 291 OFFCURVE",
"286 291 CURVE SMOOTH",
"219 291 LINE SMOOTH",
"128 291 OFFCURVE",
"70 241 OFFCURVE",
"70 164 CURVE SMOOTH",
"70 120 LINE SMOOTH",
"70 43 OFFCURVE",
"129 -8 OFFCURVE",
"217 -8 CURVE SMOOTH"
);
},
{
closed = 1;
nodes = (
"150 24 OFFCURVE",
"105 62 OFFCURVE",
"105 120 CURVE SMOOTH",
"105 164 LINE SMOOTH",
"105 222 OFFCURVE",
"149 259 OFFCURVE",
"219 259 CURVE SMOOTH",
"286 259 LINE SMOOTH",
"336 259 OFFCURVE",
"392 238 OFFCURVE",
"423 207 CURVE",
"423 142 LINE",
"389 72 OFFCURVE",
"331 24 OFFCURVE",
"279 24 CURVE SMOOTH",
"217 24 LINE SMOOTH"
);
}
);
};
layerId = "76C6DC51-463D-4A0C-B694-3EB424048C5D";
paths = (
{
closed = 1;
nodes = (
"280 -8 LINE SMOOTH",
"331 -8 OFFCURVE",
"384 27 OFFCURVE",
"424 85 CURVE",
"424 0 LINE",
"458 0 LINE",
"458 356 LINE SMOOTH",
"458 447 OFFCURVE",
"399 507 OFFCURVE",
"311 507 CURVE SMOOTH",
"235 507 LINE SMOOTH",
"144 507 OFFCURVE",
"84 459 OFFCURVE",
"84 387 CURVE",
"119 387 LINE",
"119 440 OFFCURVE",
"166 475 OFFCURVE",
"235 475 CURVE SMOOTH",
"311 475 LINE SMOOTH",
"378 475 OFFCURVE",
"423 427 OFFCURVE",
"423 356 CURVE SMOOTH",
"423 245 LINE",
"388 273 OFFCURVE",
"333 291 OFFCURVE",
"286 291 CURVE SMOOTH",
"219 291 LINE SMOOTH",
"128 291 OFFCURVE",
"70 241 OFFCURVE",
"70 164 CURVE SMOOTH",
"70 120 LINE SMOOTH",
"70 43 OFFCURVE",
"129 -8 OFFCURVE",
"217 -8 CURVE SMOOTH"
);
},
{
closed = 1;
nodes = (
"150 24 OFFCURVE",
"105 62 OFFCURVE",
"105 120 CURVE SMOOTH",
"105 164 LINE SMOOTH",
"105 222 OFFCURVE",
"149 259 OFFCURVE",
"219 259 CURVE SMOOTH",
"286 259 LINE SMOOTH",
"336 259 OFFCURVE",
"392 238 OFFCURVE",
"423 207 CURVE",
"423 136 LINE",
"386 69 OFFCURVE",
"329 24 OFFCURVE",
"280 24 CURVE SMOOTH",
"217 24 LINE SMOOTH"
);
}
);
width = 540;
},
{
anchors = (
{
name = bottom;
position = "{287, -8}";
},
{
name = ogonek;
position = "{486, 0}";
},
{
name = top;
position = "{283, 499}";
}
);
layerId = "BB270C98-E610-4AC3-8B1B-9C54875E1C66";
paths = (
{
closed = 1;
nodes = (
"280 -8 LINE SMOOTH",
"333 -8 OFFCURVE",
"387 22 OFFCURVE",
"418 70 CURVE",
"418 0 LINE",
"486 0 LINE",
"486 349 LINE SMOOTH",
"486 444 OFFCURVE",
"420 507 OFFCURVE",
"321 507 CURVE SMOOTH",
"241 507 LINE SMOOTH",
"141 507 OFFCURVE",
"74 453 OFFCURVE",
"74 371 CURVE",
"146 371 LINE",
"146 415 OFFCURVE",
"184 444 OFFCURVE",
"241 444 CURVE SMOOTH",
"321 444 LINE SMOOTH",
"378 444 OFFCURVE",
"416 405 OFFCURVE",
"416 349 CURVE SMOOTH",
"416 266 LINE",
"382 289 OFFCURVE",
"331 303 OFFCURVE",
"288 303 CURVE SMOOTH",
"224 303 LINE SMOOTH",
"126 303 OFFCURVE",
"60 248 OFFCURVE",
"60 164 CURVE SMOOTH",
"60 132 LINE SMOOTH",
"60 47 OFFCURVE",
"123 -8 OFFCURVE",
"220 -8 CURVE SMOOTH"
);
},
{
closed = 1;
nodes = (
"166 55 OFFCURVE",
"132 85 OFFCURVE",
"132 132 CURVE SMOOTH",
"132 164 LINE SMOOTH",
"132 210 OFFCURVE",
"169 240 OFFCURVE",
"224 240 CURVE SMOOTH",
"288 240 LINE SMOOTH",
"338 240 OFFCURVE",
"389 223 OFFCURVE",
"416 198 CURVE",
"416 161 LINE",
"399 97 OFFCURVE",
"344 55 OFFCURVE",
"282 55 CURVE SMOOTH",
"220 55 LINE SMOOTH"
);
}
);
width = 556;
},
{
anchors = (
{
name = bottom;
position = "{260, 0}";
},
{
name = ogonek;
position = "{488, 0}";
},
{
name = top;
position = "{342, 499}";
}
);
background = {
paths = (
{
closed = 1;
nodes = (
"233 -8 LINE SMOOTH",
"277 -8 OFFCURVE",
"334 19 OFFCURVE",
"373 60 CURVE",
"362 0 LINE",
"488 0 LINE",
"548 337 LINE SMOOTH",
"566 439 OFFCURVE",
"499 507 OFFCURVE",
"382 507 CURVE SMOOTH",
"296 507 LINE SMOOTH",
"181 507 OFFCURVE",
"90 442 OFFCURVE",
"73 345 CURVE",
"205 345 LINE",
"210 374 OFFCURVE",
"240 393 OFFCURVE",
"276 393 CURVE SMOOTH",
"362 393 LINE SMOOTH",
"398 393 OFFCURVE",
"418 371 OFFCURVE",
"412 337 CURVE SMOOTH",
"403 285 LINE",
"372 301 OFFCURVE",
"330 311 OFFCURVE",
"296 311 CURVE SMOOTH",
"235 311 LINE SMOOTH",
"127 311 OFFCURVE",
"45 255 OFFCURVE",
"29 171 CURVE SMOOTH",
"22 134 LINE SMOOTH",
"6 49 OFFCURVE",
"68 -8 OFFCURVE",
"171 -8 CURVE SMOOTH"
);
},
{
closed = 1;
nodes = (
"172 96 OFFCURVE",
"150 113 OFFCURVE",
"155 139 CURVE SMOOTH",
"160 165 LINE SMOOTH",
"165 191 OFFCURVE",
"190 209 OFFCURVE",
"221 209 CURVE SMOOTH",
"284 209 LINE SMOOTH",
"321 209 OFFCURVE",
"364 201 OFFCURVE",
"385 183 CURVE",
"382 166 LINE",
"357 124 OFFCURVE",
"310 96 OFFCURVE",
"261 96 CURVE SMOOTH",
"207 96 LINE SMOOTH"
);
}
);
};
layerId = "6404A7B3-B80B-4413-A1A7-686F7DCA7307";
paths = (
{
closed = 1;
nodes = (
"242 -8 LINE SMOOTH",
"282 -8 OFFCURVE",
"331 17 OFFCURVE",
"372 60 CURVE",
"361 0 LINE",
"487 0 LINE",
"547 337 LINE SMOOTH",
"565 439 OFFCURVE",
"493 507 OFFCURVE",
"367 507 CURVE SMOOTH",
"282 507 LINE SMOOTH",
"168 507 OFFCURVE",
"91 447 OFFCURVE",
"73 345 CURVE",
"205 345 LINE",
"210 375 OFFCURVE",
"237 393 OFFCURVE",
"276 393 CURVE SMOOTH",
"361 393 LINE SMOOTH",
"397 393 OFFCURVE",
"417 371 OFFCURVE",
"411 337 CURVE SMOOTH",
"402 285 LINE",
"368 301 OFFCURVE",
"319 311 OFFCURVE",
"281 311 CURVE SMOOTH",
"221 311 LINE SMOOTH",
"117 311 OFFCURVE",
"46 259 OFFCURVE",
"29 171 CURVE SMOOTH",
"22 134 LINE SMOOTH",
"6 49 OFFCURVE",
"71 -8 OFFCURVE",
"184 -8 CURVE SMOOTH"
);
},
{
closed = 1;
nodes = (
"171 96 OFFCURVE",
"150 113 OFFCURVE",
"155 139 CURVE SMOOTH",
"160 165 LINE SMOOTH",
"165 193 OFFCURVE",
"188 209 OFFCURVE",
"221 209 CURVE SMOOTH",
"283 209 LINE SMOOTH",
"326 209 OFFCURVE",
"366 199 OFFCURVE",
"384 183 CURVE",
"381 166 LINE",
"356 124 OFFCURVE",
"308 96 OFFCURVE",
"260 96 CURVE SMOOTH",
"207 96 LINE SMOOTH"
);
}
);
width = 584;
},
{
anchors = (
{
name = bottom;
position = "{241, -8}";
},
{
name = ogonek;
position = "{442, 0}";
},
{
name = top;
position = "{327, 499}";
}
);
background = {
paths = (
{
closed = 1;
nodes = (
"234 -8 LINE SMOOTH",
"287 -8 OFFCURVE",
"347 22 OFFCURVE",
"386 70 CURVE",
"374 0 LINE",
"442 0 LINE",
"503 349 LINE SMOOTH",
"520 444 OFFCURVE",
"464 507 OFFCURVE",
"366 507 CURVE SMOOTH",
"286 507 LINE SMOOTH",
"186 507 OFFCURVE",
"110 453 OFFCURVE",
"95 371 CURVE",
"167 371 LINE",
"175 415 OFFCURVE",
"218 444 OFFCURVE",
"275 444 CURVE SMOOTH",
"355 444 LINE SMOOTH",
"409 444 OFFCURVE",
"443 408 OFFCURVE",
"433 349 CURVE SMOOTH",
"419 266 LINE",
"389 289 OFFCURVE",
"339 303 OFFCURVE",
"297 303 CURVE SMOOTH",
"233 303 LINE SMOOTH",
"136 303 OFFCURVE",
"61 248 OFFCURVE",
"45 164 CURVE SMOOTH",
"39 132 LINE SMOOTH",
"23 47 OFFCURVE",
"78 -8 OFFCURVE",
"174 -8 CURVE SMOOTH"
);
},
{
closed = 1;
nodes = (
"132 55 OFFCURVE",
"102 85 OFFCURVE",
"111 132 CURVE SMOOTH",
"117 164 LINE SMOOTH",
"126 210 OFFCURVE",
"167 240 OFFCURVE",
"222 240 CURVE SMOOTH",
"286 240 LINE SMOOTH",
"336 240 OFFCURVE",
"384 223 OFFCURVE",
"407 198 CURVE",
"400 161 LINE",
"372 97 OFFCURVE",
"309 55 OFFCURVE",
"247 55 CURVE SMOOTH",
"185 55 LINE SMOOTH"
);
}
);
};
layerId = "A26C2DC2-6E9D-4E0E-A939-3EF723D8B45B";
paths = (
{
closed = 1;
nodes = (
"245 -8 LINE SMOOTH",
"298 -8 OFFCURVE",
"347 22 OFFCURVE",
"386 70 CURVE",
"374 0 LINE",
"442 0 LINE",
"503 349 LINE SMOOTH",
"520 444 OFFCURVE",
"461 507 OFFCURVE",
"355 507 CURVE SMOOTH",
"275 507 LINE SMOOTH",
"182 507 OFFCURVE",
"110 453 OFFCURVE",
"95 371 CURVE",
"167 371 LINE",
"175 415 OFFCURVE",
"218 444 OFFCURVE",
"275 444 CURVE SMOOTH",
"355 444 LINE SMOOTH",
"412 444 OFFCURVE",
"443 406 OFFCURVE",
"433 349 CURVE SMOOTH",
"419 266 LINE",
"389 289 OFFCURVE",
"328 303 OFFCURVE",
"286 303 CURVE SMOOTH",
"222 303 LINE SMOOTH",
"127 303 OFFCURVE",
"62 251 OFFCURVE",
"45 164 CURVE SMOOTH",
"39 132 LINE SMOOTH",
"23 47 OFFCURVE",
"87 -8 OFFCURVE",
"185 -8 CURVE SMOOTH"
);
},
{
closed = 1;
nodes = (
"132 55 OFFCURVE",
"102 85 OFFCURVE",
"111 132 CURVE SMOOTH",
"117 164 LINE SMOOTH",
"126 212 OFFCURVE",
"165 240 OFFCURVE",
"222 240 CURVE SMOOTH",
"286 240 LINE SMOOTH",
"336 240 OFFCURVE",
"384 223 OFFCURVE",
"407 198 CURVE",
"400 161 LINE",
"372 97 OFFCURVE",
"309 55 OFFCURVE",
"247 55 CURVE SMOOTH",
"185 55 LINE SMOOTH"
);
}
);
width = 556;
},
{
anchors = (
{
name = bottom;
position = "{226, 0}";
},
{
name = ogonek;
position = "{414, 0}";
},
{
name = top;
position = "{318, 499}";
}
);
background = {
paths = (
{
closed = 1;
nodes = (
"234 -8 LINE SMOOTH",
"285 -8 OFFCURVE",
"345 27 OFFCURVE",
"395 85 CURVE",
"380 0 LINE",
"414 0 LINE",
"477 356 LINE SMOOTH",
"493 447 OFFCURVE",
"444 507 OFFCURVE",
"356 507 CURVE SMOOTH",
"280 507 LINE SMOOTH",
"189 507 OFFCURVE",
"121 459 OFFCURVE",
"108 387 CURVE",
"143 387 LINE",
"152 440 OFFCURVE",
"207 475 OFFCURVE",
"275 475 CURVE SMOOTH",
"351 475 LINE SMOOTH",
"417 475 OFFCURVE",
"455 427 OFFCURVE",
"442 356 CURVE SMOOTH",
"422 245 LINE",
"392 273 OFFCURVE",
"340 291 OFFCURVE",
"293 291 CURVE SMOOTH",
"226 291 LINE SMOOTH",
"136 291 OFFCURVE",
"69 241 OFFCURVE",
"55 164 CURVE SMOOTH",
"47 120 LINE SMOOTH",
"33 43 OFFCURVE",
"84 -8 OFFCURVE",
"171 -8 CURVE SMOOTH"
);
},
{
closed = 1;
nodes = (
"107 24 OFFCURVE",
"72 65 OFFCURVE",
"82 120 CURVE SMOOTH",
"90 164 LINE SMOOTH",
"101 224 OFFCURVE",
"153 259 OFFCURVE",
"221 259 CURVE SMOOTH",
"288 259 LINE SMOOTH",
"337 259 OFFCURVE",
"390 238 OFFCURVE",
"415 207 CURVE",
"403 136 LINE",
"354 69 OFFCURVE",
"289 24 OFFCURVE",
"240 24 CURVE SMOOTH",
"177 24 LINE SMOOTH"
);
}
);
};
layerId = "4CEAA5B1-2F28-4CD4-84D3-78B02271F1AF";
paths = (
{
closed = 1;
nodes = (
"239 -8 LINE SMOOTH",
"290 -8 OFFCURVE",
"345 27 OFFCURVE",
"395 85 CURVE",
"380 0 LINE",
"414 0 LINE",
"477 356 LINE SMOOTH",
"493 447 OFFCURVE",
"443 507 OFFCURVE",
"351 507 CURVE SMOOTH",
"275 507 LINE SMOOTH",
"184 507 OFFCURVE",
"122 462 OFFCURVE",
"108 387 CURVE",
"143 387 LINE",
"152 442 OFFCURVE",
"201 475 OFFCURVE",
"275 475 CURVE SMOOTH",
"351 475 LINE SMOOTH",
"419 475 OFFCURVE",
"455 427 OFFCURVE",
"442 356 CURVE SMOOTH",
"422 244 LINE",
"392 272 OFFCURVE",
"335 291 OFFCURVE",
"288 291 CURVE SMOOTH",
"221 291 LINE SMOOTH",
"131 291 OFFCURVE",
"70 244 OFFCURVE",
"55 164 CURVE SMOOTH",
"47 120 LINE SMOOTH",
"33 43 OFFCURVE",
"85 -8 OFFCURVE",
"176 -8 CURVE SMOOTH"
);
},
{
closed = 1;
nodes = (
"110 24 OFFCURVE",
"72 62 OFFCURVE",
"82 120 CURVE SMOOTH",
"90 164 LINE SMOOTH",
"101 224 OFFCURVE",
"150 259 OFFCURVE",
"221 259 CURVE SMOOTH",
"288 259 LINE SMOOTH",
"337 259 OFFCURVE",
"390 238 OFFCURVE",
"415 207 CURVE",
"403 136 LINE",
"354 69 OFFCURVE",
"289 24 OFFCURVE",
"240 24 CURVE SMOOTH",
"177 24 LINE SMOOTH"
);
}
);
width = 540;
}
);
leftKerningGroup = a;
note = a;
rightKerningGroup = n;
unicode = 0061;
},
{
glyphname = b;
lastChange = "2018-06-07 15:27:36 +0000";
layers = (
{
anchors = (
{
name = bottom;
position = "{294, 0}";
},
{
name = top;
position = "{294, 470}";
}
);
background = {
paths = (
{
closed = 1;
nodes = (
"367 -8 LINE SMOOTH",
"486 -8 OFFCURVE",
"566 73 OFFCURVE",
"566 195 CURVE SMOOTH",
"566 309 LINE SMOOTH",
"566 428 OFFCURVE",
"487 507 OFFCURVE",
"369 507 CURVE SMOOTH",
"300 507 LINE SMOOTH",
"264 507 OFFCURVE",
"221 488 OFFCURVE",
"194 460 CURVE",
"194 700 LINE",
"58 700 LINE",
"58 0 LINE",
"184 0 LINE",
"184 64 LINE",
"211 21 OFFCURVE",
"257 -8 OFFCURVE",
"299 -8 CURVE SMOOTH"
);
},
{
closed = 1;
nodes = (
"240 111 OFFCURVE",
"203 147 OFFCURVE",
"194 200 CURVE",
"194 286 LINE",
"199 347 OFFCURVE",
"238 388 OFFCURVE",
"292 388 CURVE SMOOTH",
"353 388 LINE SMOOTH",
"398 388 OFFCURVE",
"430 352 OFFCURVE",
"430 299 CURVE SMOOTH",
"430 205 LINE SMOOTH",
"430 149 OFFCURVE",
"397 111 OFFCURVE",
"351 111 CURVE SMOOTH",
"287 111 LINE SMOOTH"
);
}
);
};
layerId = "EA06CE92-4115-4482-8874-2441C279E756";
paths = (
{
closed = 1;
nodes = (
"368 -8 LINE SMOOTH",
"486 -8 OFFCURVE",
"566 73 OFFCURVE",
"566 195 CURVE SMOOTH",
"566 309 LINE SMOOTH",
"566 428 OFFCURVE",
"487 507 OFFCURVE",
"370 507 CURVE SMOOTH",
"300 507 LINE SMOOTH",
"264 507 OFFCURVE",
"221 488 OFFCURVE",
"194 460 CURVE",
"194 700 LINE",
"58 700 LINE",
"58 0 LINE",
"184 0 LINE",
"184 64 LINE",
"211 21 OFFCURVE",
"257 -8 OFFCURVE",
"299 -8 CURVE SMOOTH"
);
},
{
closed = 1;
nodes = (
"240 111 OFFCURVE",
"203 147 OFFCURVE",
"194 200 CURVE",
"194 286 LINE",
"199 347 OFFCURVE",
"238 388 OFFCURVE",
"292 388 CURVE SMOOTH",
"354 388 LINE SMOOTH",
"399 388 OFFCURVE",
"430 352 OFFCURVE",
"430 299 CURVE SMOOTH",
"430 205 LINE SMOOTH",
"430 149 OFFCURVE",
"398 111 OFFCURVE",
"352 111 CURVE SMOOTH",
"287 111 LINE SMOOTH"
);
}
);
width = 604;
},
{
anchors = (
{
name = bottom;
position = "{273, 0}";
},
{
name = top;
position = "{273, 470}";
}
);
background = {
paths = (
{
closed = 1;
nodes = (
"331 -8 LINE SMOOTH",
"430 -8 OFFCURVE",
"496 65 OFFCURVE",
"496 178 CURVE SMOOTH",
"496 329 LINE SMOOTH",
"496 434 OFFCURVE",
"432 507 OFFCURVE",
"337 507 CURVE SMOOTH",
"267 507 LINE SMOOTH",
"207 507 OFFCURVE",
"150 473 OFFCURVE",
"123 421 CURVE",
"123 700 LINE",
"88 700 LINE",
"88 0 LINE",
"123 0 LINE",
"123 84 LINE",
"158 27 OFFCURVE",
"210 -8 OFFCURVE",
"262 -8 CURVE SMOOTH"
);
},
{
closed = 1;
nodes = (
"200 24 OFFCURVE",
"143 82 OFFCURVE",
"123 150 CURVE",
"123 325 LINE",
"129 415 OFFCURVE",
"187 475 OFFCURVE",
"267 475 CURVE SMOOTH",
"337 475 LINE SMOOTH",
"411 475 OFFCURVE",
"461 415 OFFCURVE",
"461 329 CURVE SMOOTH",
"461 178 LINE SMOOTH",
"461 84 OFFCURVE",
"409 24 OFFCURVE",
"331 24 CURVE SMOOTH",
"262 24 LINE SMOOTH"
);
}
);
};
layerId = "76C6DC51-463D-4A0C-B694-3EB424048C5D";
paths = (
{
closed = 1;
nodes = (
"331 -8 LINE SMOOTH",
"430 -8 OFFCURVE",
"496 67 OFFCURVE",
"496 179 CURVE SMOOTH",
"496 330 LINE SMOOTH",
"496 436 OFFCURVE",
"434 507 OFFCURVE",
"339 507 CURVE SMOOTH",
"269 507 LINE SMOOTH",
"209 507 OFFCURVE",
"152 474 OFFCURVE",
"123 417 CURVE",
"123 700 LINE",
"88 700 LINE",
"88 0 LINE",
"122 0 LINE",
"122 86 LINE",
"155 31 OFFCURVE",
"211 -8 OFFCURVE",
"262 -8 CURVE SMOOTH"
);
},
{
closed = 1;
nodes = (
"200 24 OFFCURVE",
"143 86 OFFCURVE",
"123 148 CURVE",
"123 327 LINE",
"132 415 OFFCURVE",
"191 475 OFFCURVE",
"271 475 CURVE SMOOTH",
"339 475 LINE SMOOTH",
"413 475 OFFCURVE",
"461 417 OFFCURVE",
"461 330 CURVE SMOOTH",
"461 179 LINE SMOOTH",
"461 86 OFFCURVE",
"409 24 OFFCURVE",
"331 24 CURVE SMOOTH",
"262 24 LINE SMOOTH"
);
}
);
width = 564;
},
{
anchors = (
{
name = bottom;
position = "{280, 0}";
},
{
name = top;
position = "{280, 470}";
}
);
layerId = "BB270C98-E610-4AC3-8B1B-9C54875E1C66";
paths = (
{
closed = 1;
nodes = (
"343 -8 LINE SMOOTH",
"449 -8 OFFCURVE",
"522 72 OFFCURVE",
"522 191 CURVE SMOOTH",
"522 320 LINE SMOOTH",
"522 432 OFFCURVE",
"449 507 OFFCURVE",
"347 507 CURVE SMOOTH",
"276 507 LINE SMOOTH",
"226 507 OFFCURVE",
"177 481 OFFCURVE",
"148 440 CURVE",
"148 700 LINE",
"76 700 LINE",
"76 0 LINE",
"146 0 LINE",
"146 64 LINE",
"173 23 OFFCURVE",
"229 -8 OFFCURVE",
"273 -8 CURVE SMOOTH"
);
},
{
closed = 1;
nodes = (
"211 56 OFFCURVE",
"152 112 OFFCURVE",
"148 183 CURVE",
"148 305 LINE",
"154 388 OFFCURVE",
"209 443 OFFCURVE",
"278 443 CURVE SMOOTH",
"345 443 LINE SMOOTH",
"405 443 OFFCURVE",
"450 394 OFFCURVE",
"450 320 CURVE SMOOTH",
"450 191 LINE SMOOTH",
"450 110 OFFCURVE",
"405 56 OFFCURVE",
"341 56 CURVE SMOOTH",
"273 56 LINE SMOOTH"
);
}
);
width = 578;
},
{
anchors = (
{
name = bottom;
position = "{250, 0}";
},
{
name = top;
position = "{333, 470}";
}
);
background = {
paths = (
{
closed = 1;
nodes = (
"323 -8 LINE SMOOTH",
"439 -8 OFFCURVE",
"535 73 OFFCURVE",
"556 195 CURVE SMOOTH",
"576 309 LINE SMOOTH",
"597 428 OFFCURVE",
"532 507 OFFCURVE",
"415 507 CURVE SMOOTH",
"345 507 LINE SMOOTH",
"310 507 OFFCURVE",
"263 488 OFFCURVE",
"231 460 CURVE",
"273 700 LINE",
"137 700 LINE",
"14 0 LINE",
"140 0 LINE",
"151 64 LINE",
"171 21 OFFCURVE",
"211 -8 OFFCURVE",
"254 -8 CURVE SMOOTH"
);
},
{
closed = 1;
nodes = (
"216 111 OFFCURVE",
"185 147 OFFCURVE",
"185 200 CURVE",
"200 286 LINE",
"216 347 OFFCURVE",
"263 388 OFFCURVE",
"316 388 CURVE SMOOTH",
"378 388 LINE SMOOTH",
"422 388 OFFCURVE",
"449 352 OFFCURVE",
"439 299 CURVE SMOOTH",
"422 205 LINE SMOOTH",
"412 149 OFFCURVE",
"373 111 OFFCURVE",
"328 111 CURVE SMOOTH",
"263 111 LINE SMOOTH"
);
}
);
};
layerId = "6404A7B3-B80B-4413-A1A7-686F7DCA7307";
paths = (
{
closed = 1;
nodes = (
"337 -8 LINE SMOOTH",
"453 -8 OFFCURVE",
"534 67 OFFCURVE",
"556 195 CURVE SMOOTH",
"576 309 LINE SMOOTH",
"597 428 OFFCURVE",
"527 507 OFFCURVE",
"401 507 CURVE SMOOTH",
"335 507 LINE SMOOTH",
"301 507 OFFCURVE",
"263 490 OFFCURVE",
"231 460 CURVE",
"273 700 LINE",
"137 700 LINE",
"14 0 LINE",
"140 0 LINE",
"151 64 LINE",
"173 21 OFFCURVE",
"220 -8 OFFCURVE",
"268 -8 CURVE SMOOTH"
);
},
{
closed = 1;
nodes = (
"216 111 OFFCURVE",
"185 147 OFFCURVE",
"185 200 CURVE",
"200 286 LINE",
"216 347 OFFCURVE",
"262 388 OFFCURVE",
"316 388 CURVE SMOOTH",
"378 388 LINE SMOOTH",
"425 388 OFFCURVE",
"449 352 OFFCURVE",
"439 299 CURVE SMOOTH",
"422 205 LINE SMOOTH",
"411 146 OFFCURVE",
"377 111 OFFCURVE",
"328 111 CURVE SMOOTH",
"263 111 LINE SMOOTH"
);
}
);
width = 604;
},
{
anchors = (
{
name = bottom;
position = "{236, 0}";
},
{
name = top;
position = "{319, 470}";
}
);
background = {
paths = (
{
closed = 1;
nodes = (
"298 -8 LINE SMOOTH",
"404 -8 OFFCURVE",
"490 72 OFFCURVE",
"511 191 CURVE SMOOTH",
"534 320 LINE SMOOTH",
"554 432 OFFCURVE",
"494 507 OFFCURVE",
"392 507 CURVE SMOOTH",
"321 507 LINE SMOOTH",
"272 507 OFFCURVE",
"218 481 OFFCURVE",
"182 440 CURVE",
"227 700 LINE",
"155 700 LINE",
"32 0 LINE",
"102 0 LINE",
"113 64 LINE",
"133 23 OFFCURVE",
"184 -8 OFFCURVE",
"228 -8 CURVE SMOOTH"
);
},
{
closed = 1;
nodes = (
"177 56 OFFCURVE",
"128 112 OFFCURVE",
"136 183 CURVE",
"158 305 LINE",
"178 388 OFFCURVE",
"244 443 OFFCURVE",
"312 443 CURVE SMOOTH",
"379 443 LINE SMOOTH",
"438 443 OFFCURVE",
"475 394 OFFCURVE",
"462 320 CURVE SMOOTH",
"439 191 LINE SMOOTH",
"425 110 OFFCURVE",
"371 56 OFFCURVE",
"307 56 CURVE SMOOTH",
"239 56 LINE SMOOTH"
);
}
);
};
layerId = "A26C2DC2-6E9D-4E0E-A939-3EF723D8B45B";
paths = (
{
closed = 1;
nodes = (
"309 -8 LINE SMOOTH",
"413 -8 OFFCURVE",
"489 68 OFFCURVE",
"511 191 CURVE SMOOTH",
"534 320 LINE SMOOTH",
"554 432 OFFCURVE",
"493 507 OFFCURVE",
"381 507 CURVE SMOOTH",
"310 507 LINE SMOOTH",
"268 507 OFFCURVE",
"217 480 OFFCURVE",
"182 440 CURVE",
"227 700 LINE",
"155 700 LINE",
"32 0 LINE",
"102 0 LINE",
"113 64 LINE",
"138 21 OFFCURVE",
"184 -8 OFFCURVE",
"239 -8 CURVE SMOOTH"
);
},
{
closed = 1;
nodes = (
"177 56 OFFCURVE",
"128 112 OFFCURVE",
"136 183 CURVE",
"158 305 LINE",
"178 388 OFFCURVE",
"240 443 OFFCURVE",
"312 443 CURVE SMOOTH",
"379 443 LINE SMOOTH",
"442 443 OFFCURVE",
"475 394 OFFCURVE",
"462 320 CURVE SMOOTH",
"439 191 LINE SMOOTH",
"425 110 OFFCURVE",
"372 56 OFFCURVE",
"307 56 CURVE SMOOTH",
"239 56 LINE SMOOTH"
);
}
);
width = 578;
},
{
anchors = (
{
name = bottom;
position = "{229, 0}";
},
{
name = top;
position = "{312, 470}";
}
);
background = {
paths = (
{
closed = 1;
nodes = (
"291 -8 LINE SMOOTH",
"390 -8 OFFCURVE",
"464 61 OFFCURVE",
"484 179 CURVE SMOOTH",
"510 330 LINE SMOOTH",
"528 436 OFFCURVE",
"476 507 OFFCURVE",
"379 507 CURVE SMOOTH",
"309 507 LINE SMOOTH",
"249 507 OFFCURVE",
"192 474 OFFCURVE",
"153 417 CURVE",
"202 700 LINE",
"167 700 LINE",
"44 0 LINE",
"78 0 LINE",
"93 88 LINE",
"119 30 OFFCURVE",
"167 -8 OFFCURVE",
"222 -8 CURVE SMOOTH"
);
},
{
closed = 1;
nodes = (
"161 24 OFFCURVE",
"114 86 OFFCURVE",
"105 148 CURVE",
"137 327 LINE",
"161 415 OFFCURVE",
"232 475 OFFCURVE",
"311 475 CURVE SMOOTH",
"379 475 LINE SMOOTH",
"452 475 OFFCURVE",
"490 417 OFFCURVE",
"475 330 CURVE SMOOTH",
"449 179 LINE SMOOTH",
"432 82 OFFCURVE",
"374 24 OFFCURVE",
"291 24 CURVE SMOOTH",
"222 24 LINE SMOOTH"
);
}
);
};
layerId = "4CEAA5B1-2F28-4CD4-84D3-78B02271F1AF";
paths = (
{
closed = 1;
nodes = (
"291 -8 LINE SMOOTH",
"390 -8 OFFCURVE",
"464 61 OFFCURVE",
"484 179 CURVE SMOOTH",
"510 330 LINE SMOOTH",
"528 436 OFFCURVE",
"476 507 OFFCURVE",
"379 507 CURVE SMOOTH",
"309 507 LINE SMOOTH",
"249 507 OFFCURVE",
"192 474 OFFCURVE",
"153 417 CURVE",
"202 700 LINE",
"167 700 LINE",
"44 0 LINE",
"78 0 LINE",
"93 88 LINE",
"119 30 OFFCURVE",
"167 -8 OFFCURVE",
"222 -8 CURVE SMOOTH"
);
},
{
closed = 1;
nodes = (
"161 24 OFFCURVE",
"114 86 OFFCURVE",
"105 148 CURVE",
"137 327 LINE",
"161 415 OFFCURVE",
"232 475 OFFCURVE",
"311 475 CURVE SMOOTH",
"379 475 LINE SMOOTH",
"452 475 OFFCURVE",
"490 417 OFFCURVE",
"475 330 CURVE SMOOTH",
"449 179 LINE SMOOTH",
"432 82 OFFCURVE",
"374 24 OFFCURVE",
"291 24 CURVE SMOOTH",
"222 24 LINE SMOOTH"
);
}
);
width = 564;
}
);
leftMetricsKey = n;
note = b;
rightKerningGroup = o;
rightMetricsKey = o;
unicode = 0062;
},
{
glyphname = c;
lastChange = "2018-06-08 17:05:44 +0000";
layers = (
{
anchors = (
{
name = bottom;
position = "{294, 0}";
},
{
name = top;
position = "{285, 499}";
}
);
background = {
paths = (
{
closed = 1;
nodes = (
"330 -8 LINE SMOOTH",
"454 -8 OFFCURVE",
"536 72 OFFCURVE",
"536 193 CURVE",
"401 193 LINE",
"401 143 OFFCURVE",
"373 109 OFFCURVE",
"330 109 CURVE SMOOTH",
"250 109 LINE SMOOTH",
"204 109 OFFCURVE",
"171 146 OFFCURVE",
"171 201 CURVE SMOOTH",
"171 298 LINE SMOOTH",
"171 353 OFFCURVE",
"203 390 OFFCURVE",
"249 390 CURVE SMOOTH",
"329 390 LINE SMOOTH",
"369 390 OFFCURVE",
"396 360 OFFCURVE",
"396 315 CURVE",
"531 315 LINE",
"531 430 OFFCURVE",
"450 507 OFFCURVE",
"329 507 CURVE SMOOTH",
"247 507 LINE SMOOTH",
"120 507 OFFCURVE",
"35 427 OFFCURVE",
"35 308 CURVE SMOOTH",
"35 191 LINE SMOOTH",
"35 72 OFFCURVE",
"120 -8 OFFCURVE",
"248 -8 CURVE SMOOTH"
);
}
);
};
layerId = "EA06CE92-4115-4482-8874-2441C279E756";
paths = (
{
closed = 1;
nodes = (
"330 -8 LINE SMOOTH",
"454 -8 OFFCURVE",
"536 72 OFFCURVE",
"536 193 CURVE",
"401 193 LINE",
"401 143 OFFCURVE",
"373 109 OFFCURVE",
"330 109 CURVE SMOOTH",
"253 109 LINE SMOOTH",
"207 109 OFFCURVE",
"174 146 OFFCURVE",
"174 201 CURVE SMOOTH",
"174 298 LINE SMOOTH",
"174 353 OFFCURVE",
"206 390 OFFCURVE",
"252 390 CURVE SMOOTH",
"329 390 LINE SMOOTH",
"369 390 OFFCURVE",
"396 360 OFFCURVE",
"396 315 CURVE",
"531 315 LINE",
"531 430 OFFCURVE",
"450 507 OFFCURVE",
"329 507 CURVE SMOOTH",
"250 507 LINE SMOOTH",
"123 507 OFFCURVE",
"38 427 OFFCURVE",
"38 308 CURVE SMOOTH",
"38 191 LINE SMOOTH",
"38 72 OFFCURVE",
"123 -8 OFFCURVE",
"251 -8 CURVE SMOOTH"
);
}
);
width = 560;
},
{
anchors = (
{
name = bottom;
position = "{269, 0}";
},
{
name = top;
position = "{269, 499}";
}
);
background = {
paths = (
{
closed = 1;
nodes = (
"313 -8 LINE SMOOTH",
"406 -8 OFFCURVE",
"468 58 OFFCURVE",
"468 157 CURVE",
"434 157 LINE",
"434 77 OFFCURVE",
"386 24 OFFCURVE",
"313 24 CURVE SMOOTH",
"231 24 LINE SMOOTH",
"154 24 OFFCURVE",
"103 79 OFFCURVE",
"103 162 CURVE SMOOTH",
"103 327 LINE SMOOTH",
"103 416 OFFCURVE",
"154 475 OFFCURVE",
"230 475 CURVE SMOOTH",
"312 475 LINE SMOOTH",
"383 475 OFFCURVE",
"431 434 OFFCURVE",
"431 373 CURVE",
"465 373 LINE",
"465 453 OFFCURVE",
"404 507 OFFCURVE",
"312 507 CURVE SMOOTH",
"230 507 LINE SMOOTH",
"133 507 OFFCURVE",
"68 435 OFFCURVE",
"68 327 CURVE SMOOTH",
"68 162 LINE SMOOTH",
"68 60 OFFCURVE",
"133 -8 OFFCURVE",
"231 -8 CURVE SMOOTH"
);
}
);
};
layerId = "76C6DC51-463D-4A0C-B694-3EB424048C5D";
paths = (
{
closed = 1;
nodes = (
"313 -8 LINE SMOOTH",
"406 -8 OFFCURVE",
"468 58 OFFCURVE",
"468 157 CURVE",
"434 157 LINE",
"434 77 OFFCURVE",
"386 24 OFFCURVE",
"313 24 CURVE SMOOTH",
"231 24 LINE SMOOTH",
"154 24 OFFCURVE",
"103 79 OFFCURVE",
"103 162 CURVE SMOOTH",
"103 327 LINE SMOOTH",
"103 416 OFFCURVE",
"154 475 OFFCURVE",
"230 475 CURVE SMOOTH",
"312 475 LINE SMOOTH",
"383 475 OFFCURVE",
"431 434 OFFCURVE",
"431 373 CURVE",
"465 373 LINE",
"465 453 OFFCURVE",
"404 507 OFFCURVE",
"312 507 CURVE SMOOTH",
"230 507 LINE SMOOTH",
"133 507 OFFCURVE",
"68 435 OFFCURVE",
"68 327 CURVE SMOOTH",
"68 162 LINE SMOOTH",
"68 60 OFFCURVE",
"133 -8 OFFCURVE",
"231 -8 CURVE SMOOTH"
);
}
);
width = 522;
},
{
anchors = (
{
name = bottom;
position = "{278, 0}";
},
{
name = top;
position = "{278, 499}";
}
);
background = {
paths = (
{
closed = 1;
nodes = (
"320 -10 LINE SMOOTH",
"424 -10 OFFCURVE",
"494 64 OFFCURVE",
"494 175 CURVE",
"424 175 LINE",
"424 102 OFFCURVE",
"382 54 OFFCURVE",
"320 54 CURVE SMOOTH",
"238 54 LINE SMOOTH",
"172 54 OFFCURVE",
"128 101 OFFCURVE",
"128 171 CURVE SMOOTH",
"128 316 LINE SMOOTH",
"128 392 OFFCURVE",
"172 443 OFFCURVE",
"237 443 CURVE SMOOTH",
"319 443 LINE SMOOTH",
"380 443 OFFCURVE",
"420 406 OFFCURVE",
"420 351 CURVE",
"490 351 LINE",
"490 445 OFFCURVE",
"422 507 OFFCURVE",
"319 507 CURVE SMOOTH",
"237 507 LINE SMOOTH",
"129 507 OFFCURVE",
"56 431 OFFCURVE",
"56 316 CURVE SMOOTH",
"56 171 LINE SMOOTH",
"56 62 OFFCURVE",
"129 -10 OFFCURVE",
"238 -10 CURVE SMOOTH"
);
}
);
};
layerId = "BB270C98-E610-4AC3-8B1B-9C54875E1C66";
paths = (
{
closed = 1;
nodes = (
"320 -8 LINE SMOOTH",
"424 -8 OFFCURVE",
"494 66 OFFCURVE",
"494 177 CURVE",
"424 177 LINE",
"424 104 OFFCURVE",
"382 56 OFFCURVE",
"320 56 CURVE SMOOTH",
"238 56 LINE SMOOTH",
"172 56 OFFCURVE",
"128 103 OFFCURVE",
"128 173 CURVE SMOOTH",
"128 316 LINE SMOOTH",
"128 392 OFFCURVE",
"172 443 OFFCURVE",
"237 443 CURVE SMOOTH",
"319 443 LINE SMOOTH",
"380 443 OFFCURVE",
"420 406 OFFCURVE",
"420 351 CURVE",
"490 351 LINE",
"490 445 OFFCURVE",
"422 507 OFFCURVE",
"319 507 CURVE SMOOTH",
"237 507 LINE SMOOTH",
"129 507 OFFCURVE",
"56 431 OFFCURVE",
"56 316 CURVE SMOOTH",
"56 173 LINE SMOOTH",
"56 64 OFFCURVE",
"129 -8 OFFCURVE",
"238 -8 CURVE SMOOTH"
);
}
);
width = 536;
},
{
anchors = (
{
name = bottom;
position = "{250, 0}";
},
{
name = top;
position = "{329, 499}";
}
);
background = {
paths = (
{
closed = 1;
nodes = (
"285 -8 LINE SMOOTH",
"409 -8 OFFCURVE",
"505 72 OFFCURVE",
"526 193 CURVE",
"391 193 LINE",
"383 145 OFFCURVE",
"350 109 OFFCURVE",
"306 109 CURVE SMOOTH",
"229 109 LINE SMOOTH",
"184 109 OFFCURVE",
"156 146 OFFCURVE",
"166 201 CURVE SMOOTH",
"183 298 LINE SMOOTH",
"193 353 OFFCURVE",
"231 390 OFFCURVE",
"277 390 CURVE SMOOTH",
"354 390 LINE SMOOTH",
"393 390 OFFCURVE",
"416 360 OFFCURVE",
"408 315 CURVE",
"543 315 LINE",
"563 430 OFFCURVE",
"495 507 OFFCURVE",
"375 507 CURVE SMOOTH",
"296 507 LINE SMOOTH",
"170 507 OFFCURVE",
"70 427 OFFCURVE",
"49 308 CURVE SMOOTH",
"28 191 LINE SMOOTH",
"7 72 OFFCURVE",
"78 -8 OFFCURVE",
"206 -8 CURVE SMOOTH"
);
}
);
};
layerId = "6404A7B3-B80B-4413-A1A7-686F7DCA7307";
paths = (
{
closed = 1;
nodes = (
"299 -8 LINE SMOOTH",
"420 -8 OFFCURVE",
"504 67 OFFCURVE",
"526 193 CURVE",
"391 193 LINE",
"383 140 OFFCURVE",
"351 109 OFFCURVE",
"306 109 CURVE SMOOTH",
"229 109 LINE SMOOTH",
"181 109 OFFCURVE",
"156 146 OFFCURVE",
"166 201 CURVE SMOOTH",
"183 298 LINE SMOOTH",
"194 356 OFFCURVE",
"228 390 OFFCURVE",
"277 390 CURVE SMOOTH",
"354 390 LINE SMOOTH",
"394 390 OFFCURVE",
"416 360 OFFCURVE",
"408 315 CURVE",
"543 315 LINE",
"563 430 OFFCURVE",
"490 507 OFFCURVE",
"361 507 CURVE SMOOTH",
"282 507 LINE SMOOTH",
"158 507 OFFCURVE",
"71 433 OFFCURVE",
"49 308 CURVE SMOOTH",
"28 191 LINE SMOOTH",
"7 72 OFFCURVE",
"88 -8 OFFCURVE",
"220 -8 CURVE SMOOTH"
);
}
);
width = 560;
},
{
anchors = (
{
name = bottom;
position = "{234, 0}";
},
{
name = top;
position = "{322, 499}";
}
);
background = {
paths = (
{
closed = 1;
nodes = (
"282 -8 LINE SMOOTH",
"380 -8 OFFCURVE",
"461 66 OFFCURVE",
"481 177 CURVE",
"411 177 LINE",
"398 104 OFFCURVE",
"348 56 OFFCURVE",
"285 56 CURVE SMOOTH",
"203 56 LINE SMOOTH",
"137 56 OFFCURVE",
"101 102 OFFCURVE",
"114 172 CURVE SMOOTH",
"140 316 LINE SMOOTH",
"154 396 OFFCURVE",
"203 443 OFFCURVE",
"271 443 CURVE SMOOTH",
"353 443 LINE SMOOTH",
"413 443 OFFCURVE",
"447 406 OFFCURVE",
"438 351 CURVE",
"508 351 LINE",
"524 445 OFFCURVE",
"462 507 OFFCURVE",
"353 507 CURVE SMOOTH",
"271 507 LINE SMOOTH",
"165 507 OFFCURVE",
"90 436 OFFCURVE",
"68 316 CURVE SMOOTH",
"42 172 LINE SMOOTH",
"23 65 OFFCURVE",
"84 -8 OFFCURVE",
"200 -8 CURVE SMOOTH"
);
}
);
};
layerId = "A26C2DC2-6E9D-4E0E-A939-3EF723D8B45B";
paths = (
{
closed = 1;
nodes = (
"282 -8 LINE SMOOTH",
"380 -8 OFFCURVE",
"461 66 OFFCURVE",
"481 177 CURVE",
"411 177 LINE",
"398 104 OFFCURVE",
"348 56 OFFCURVE",
"285 56 CURVE SMOOTH",
"203 56 LINE SMOOTH",
"137 56 OFFCURVE",
"101 102 OFFCURVE",
"114 172 CURVE SMOOTH",
"140 316 LINE SMOOTH",
"154 396 OFFCURVE",
"203 443 OFFCURVE",
"271 443 CURVE SMOOTH",
"353 443 LINE SMOOTH",
"413 443 OFFCURVE",
"447 406 OFFCURVE",
"438 351 CURVE",
"508 351 LINE",
"524 445 OFFCURVE",
"462 507 OFFCURVE",
"353 507 CURVE SMOOTH",
"271 507 LINE SMOOTH",
"165 507 OFFCURVE",
"90 436 OFFCURVE",
"68 316 CURVE SMOOTH",
"42 172 LINE SMOOTH",
"23 65 OFFCURVE",
"84 -8 OFFCURVE",
"200 -8 CURVE SMOOTH"
);
}
);
width = 536;
},
{
anchors = (
{
name = bottom;
position = "{225, 0}";
},
{
name = top;
position = "{313, 499}";
}
);
background = {
paths = (
{
closed = 1;
nodes = (
"268 -8 LINE SMOOTH",
"360 -8 OFFCURVE",
"435 58 OFFCURVE",
"452 157 CURVE",
"418 157 LINE",
"404 77 OFFCURVE",
"346 24 OFFCURVE",
"274 24 CURVE SMOOTH",
"192 24 LINE SMOOTH",
"115 24 OFFCURVE",
"73 79 OFFCURVE",
"88 162 CURVE SMOOTH",
"117 327 LINE SMOOTH",
"133 416 OFFCURVE",
"194 475 OFFCURVE",
"270 475 CURVE SMOOTH",
"352 475 LINE SMOOTH",
"423 475 OFFCURVE",
"464 434 OFFCURVE",
"453 373 CURVE",
"487 373 LINE",
"501 453 OFFCURVE",
"450 507 OFFCURVE",
"358 507 CURVE SMOOTH",
"276 507 LINE SMOOTH",
"179 507 OFFCURVE",
"101 435 OFFCURVE",
"82 327 CURVE SMOOTH",
"53 162 LINE SMOOTH",
"35 60 OFFCURVE",
"89 -8 OFFCURVE",
"186 -8 CURVE SMOOTH"
);
}
);
};
layerId = "4CEAA5B1-2F28-4CD4-84D3-78B02271F1AF";
paths = (
{
closed = 1;
nodes = (
"274 -8 LINE SMOOTH",
"368 -8 OFFCURVE",
"434 53 OFFCURVE",
"452 157 CURVE",
"418 157 LINE",
"403 73 OFFCURVE",
"350 24 OFFCURVE",
"274 24 CURVE SMOOTH",
"192 24 LINE SMOOTH",
"115 24 OFFCURVE",
"73 79 OFFCURVE",
"88 162 CURVE SMOOTH",
"117 327 LINE SMOOTH",
"134 420 OFFCURVE",
"191 475 OFFCURVE",
"270 475 CURVE SMOOTH",
"352 475 LINE SMOOTH",
"424 475 OFFCURVE",
"464 434 OFFCURVE",
"453 373 CURVE",
"487 373 LINE",
"501 453 OFFCURVE",
"447 507 OFFCURVE",
"352 507 CURVE SMOOTH",
"270 507 LINE SMOOTH",
"172 507 OFFCURVE",
"102 440 OFFCURVE",
"82 327 CURVE SMOOTH",
"53 162 LINE SMOOTH",
"35 60 OFFCURVE",
"91 -8 OFFCURVE",
"192 -8 CURVE SMOOTH"
);
}
);
width = 522;
}
);
leftKerningGroup = o;
leftMetricsKey = o;
note = c;
rightKerningGroup = c;
unicode = 0063;
},
